<?xml version="1.0" encoding="utf-8" standalone="no"?>
<!DOCTYPE svg PUBLIC "-//W3C//DTD SVG 1.1//EN"
  "http://www.w3.org/Graphics/SVG/1.1/DTD/svg11.dtd">
<svg xmlns:xlink="http://www.w3.org/1999/xlink" width="632.524219pt" height="390.757969pt" viewBox="0 0 632.524219 390.757969" xmlns="http://www.w3.org/2000/svg" version="1.1">
 <metadata>
  <rdf:RDF xmlns:dc="http://purl.org/dc/elements/1.1/" xmlns:cc="http://creativecommons.org/ns#" xmlns:rdf="http://www.w3.org/1999/02/22-rdf-syntax-ns#">
   <cc:Work>
    <dc:type rdf:resource="http://purl.org/dc/dcmitype/StillImage"/>
    <dc:date>2025-01-26T21:01:30.835761</dc:date>
    <dc:format>image/svg+xml</dc:format>
    <dc:creator>
     <cc:Agent>
      <dc:title>Matplotlib v3.9.1, https://matplotlib.org/</dc:title>
     </cc:Agent>
    </dc:creator>
   </cc:Work>
  </rdf:RDF>
 </metadata>
 <defs>
  <style type="text/css">*{stroke-linejoin: round; stroke-linecap: butt}</style>
 </defs>
 <g id="figure_1">
  <g id="patch_1">
   <path d="M -0 390.757969 
L 632.524219 390.757969 
L 632.524219 0 
L -0 0 
z
" style="fill: #ffffff"/>
  </g>
  <g id="axes_1">
   <g id="patch_2">
    <path d="M 58.324219 344.00625 
L 616.324219 344.00625 
L 616.324219 11.36625 
L 58.324219 11.36625 
z
" style="fill: #ffffff"/>
   </g>
   <g id="PolyCollection_1">
    <defs>
     <path id="mf1c38c278a" d="M 112.140506 -46.760035 
L 112.140506 -46.751719 
L 113.157881 -46.751719 
L 114.175256 -46.751719 
L 115.192631 -46.751719 
L 116.210006 -46.751719 
L 117.227381 -46.751719 
L 118.244756 -46.751719 
L 119.262131 -46.751719 
L 120.279506 -46.751719 
L 121.296881 -46.751719 
L 122.314256 -46.751719 
L 123.331631 -46.751719 
L 124.349006 -46.751719 
L 125.366381 -46.751719 
L 126.383756 -46.751719 
L 127.401131 -46.751719 
L 128.418506 -46.751719 
L 129.435881 -46.751719 
L 130.453256 -46.751719 
L 131.470631 -46.751719 
L 132.488006 -46.751719 
L 133.505381 -46.751719 
L 134.522756 -46.751719 
L 135.540131 -46.751719 
L 136.557506 -46.751719 
L 137.574881 -46.751719 
L 138.592256 -46.751719 
L 139.609631 -46.751719 
L 140.627006 -46.751719 
L 141.644381 -46.751719 
L 142.661756 -46.751719 
L 143.679131 -46.751719 
L 144.696506 -46.751719 
L 145.713881 -46.751719 
L 146.731256 -46.751719 
L 147.748631 -46.751719 
L 148.766006 -46.751719 
L 149.783381 -46.751719 
L 150.800756 -46.751719 
L 151.818131 -46.751719 
L 152.835506 -46.751719 
L 153.852881 -46.751719 
L 154.870256 -46.751719 
L 155.887631 -46.751719 
L 156.905006 -46.751719 
L 157.922381 -46.751719 
L 158.939756 -46.751719 
L 159.957131 -46.751719 
L 160.974506 -46.751719 
L 161.991881 -46.751719 
L 163.009256 -46.751719 
L 164.026631 -46.751719 
L 165.044006 -46.751719 
L 166.061381 -46.751719 
L 167.078756 -46.751719 
L 168.096131 -46.751719 
L 169.113506 -46.751719 
L 170.130881 -46.751719 
L 171.148256 -46.751719 
L 172.165631 -46.751719 
L 173.183006 -46.751719 
L 174.200381 -46.751719 
L 175.217756 -46.751719 
L 176.235131 -46.751719 
L 177.252506 -46.751719 
L 178.269881 -46.751719 
L 179.287256 -46.751719 
L 180.304631 -46.751719 
L 181.322006 -46.751719 
L 182.339381 -46.751719 
L 183.356756 -46.751719 
L 184.374131 -46.751719 
L 185.391506 -46.751719 
L 186.408881 -46.751719 
L 187.426256 -46.751719 
L 188.443631 -46.751719 
L 189.461006 -46.751719 
L 190.478381 -46.751719 
L 191.495756 -46.751719 
L 192.513131 -46.751719 
L 193.530506 -46.751719 
L 194.547881 -46.751719 
L 195.565256 -46.751719 
L 196.582631 -46.751719 
L 197.600006 -46.751719 
L 198.617381 -46.751719 
L 199.634756 -46.751719 
L 200.652131 -46.751719 
L 201.669506 -46.751719 
L 202.686881 -46.751719 
L 203.704256 -46.751719 
L 204.721631 -46.751719 
L 205.739006 -46.751719 
L 206.756381 -46.751719 
L 207.773756 -46.751719 
L 208.791131 -46.751719 
L 209.808506 -46.751719 
L 210.825881 -46.751719 
L 211.843256 -46.751719 
L 212.860631 -46.751719 
L 213.878006 -46.751719 
L 214.895381 -46.751719 
L 215.912756 -46.751719 
L 216.930131 -46.751719 
L 217.947506 -46.751719 
L 218.964881 -46.751719 
L 219.982256 -46.751719 
L 220.999631 -46.751719 
L 222.017006 -46.751719 
L 223.034381 -46.751719 
L 224.051756 -46.751719 
L 225.069131 -46.751719 
L 226.086506 -46.751719 
L 227.103881 -46.751719 
L 228.121256 -46.751719 
L 229.138631 -46.751719 
L 230.156006 -46.751719 
L 231.173381 -46.751719 
L 232.190756 -46.751719 
L 233.208131 -46.751719 
L 234.225506 -46.751719 
L 235.242881 -46.751719 
L 236.260256 -46.751719 
L 237.277631 -46.751719 
L 238.295006 -46.751719 
L 239.312381 -46.751719 
L 240.329756 -46.751719 
L 241.347131 -46.751719 
L 242.364506 -46.751719 
L 243.381881 -46.751719 
L 244.399256 -46.751719 
L 245.416631 -46.751719 
L 246.434006 -46.751719 
L 247.451381 -46.751719 
L 248.468756 -46.751719 
L 249.486131 -46.751719 
L 250.503506 -46.751719 
L 251.520881 -46.751719 
L 252.538256 -46.751719 
L 253.555631 -46.751719 
L 254.573006 -46.751719 
L 255.590381 -46.751719 
L 256.607756 -46.751719 
L 257.625131 -46.751719 
L 258.642506 -46.751719 
L 259.659881 -46.751719 
L 260.677256 -46.751719 
L 261.694631 -46.751719 
L 262.712006 -46.751719 
L 263.729381 -46.751719 
L 264.746756 -46.751719 
L 265.764131 -46.751719 
L 266.781506 -46.751719 
L 267.798881 -46.751719 
L 268.816256 -46.751719 
L 269.833631 -46.751719 
L 270.851006 -46.751719 
L 271.868381 -46.751719 
L 272.885756 -46.751719 
L 273.903131 -46.751719 
L 274.920506 -46.751719 
L 275.937881 -46.751719 
L 276.955256 -46.751719 
L 277.972631 -46.751719 
L 278.990006 -46.751719 
L 280.007381 -46.751719 
L 281.024756 -46.751719 
L 282.042131 -46.751719 
L 283.059506 -46.751719 
L 284.076881 -46.751719 
L 285.094256 -46.751719 
L 286.111631 -46.751719 
L 287.129006 -46.751719 
L 288.146381 -46.751719 
L 289.163756 -46.751719 
L 290.181131 -46.751719 
L 291.198506 -46.751719 
L 292.215881 -46.751719 
L 293.233256 -46.751719 
L 294.250631 -46.751719 
L 295.268006 -46.751719 
L 296.285381 -46.751719 
L 297.302756 -46.751719 
L 298.320131 -46.751719 
L 299.337506 -46.751719 
L 300.354881 -46.751719 
L 301.372256 -46.751719 
L 302.389631 -46.751719 
L 303.407006 -46.751719 
L 304.424381 -46.751719 
L 305.441756 -46.751719 
L 306.459131 -46.751719 
L 307.476506 -46.751719 
L 308.493881 -46.751719 
L 309.511256 -46.751719 
L 310.528631 -46.751719 
L 311.546006 -46.751719 
L 312.563381 -46.751719 
L 313.580756 -46.751719 
L 314.598131 -46.751719 
L 315.615506 -46.751719 
L 316.632881 -46.751719 
L 317.650256 -46.751719 
L 318.667631 -46.751719 
L 319.685006 -46.751719 
L 320.702381 -46.751719 
L 321.719756 -46.751719 
L 322.737131 -46.751719 
L 323.754506 -46.751719 
L 324.771881 -46.751719 
L 325.789256 -46.751719 
L 326.806631 -46.751719 
L 327.824006 -46.751719 
L 328.841381 -46.751719 
L 329.858756 -46.751719 
L 330.876131 -46.751719 
L 331.893506 -46.751719 
L 332.910881 -46.751719 
L 333.928256 -46.751719 
L 334.945631 -46.751719 
L 335.963006 -46.751719 
L 336.980381 -46.751719 
L 337.997756 -46.751719 
L 339.015131 -46.751719 
L 340.032506 -46.751719 
L 341.049881 -46.751719 
L 342.067256 -46.751719 
L 343.084631 -46.751719 
L 344.102006 -46.751719 
L 345.119381 -46.751719 
L 346.136756 -46.751719 
L 347.154131 -46.751719 
L 348.171506 -46.751719 
L 349.188881 -46.751719 
L 350.206256 -46.751719 
L 351.223631 -46.751719 
L 352.241006 -46.751719 
L 353.258381 -46.751719 
L 354.275756 -46.751719 
L 355.293131 -46.751719 
L 356.310506 -46.751719 
L 357.327881 -46.751719 
L 358.345256 -46.751719 
L 359.362631 -46.751719 
L 360.380006 -46.751719 
L 361.397381 -46.751719 
L 362.414756 -46.751719 
L 363.432131 -46.751719 
L 364.449506 -46.751719 
L 365.466881 -46.751719 
L 366.484256 -46.751719 
L 367.501631 -46.751719 
L 368.519006 -46.751719 
L 369.536381 -46.751719 
L 370.553756 -46.751719 
L 371.571131 -46.751719 
L 372.588506 -46.751719 
L 373.605881 -46.751719 
L 374.623256 -46.751719 
L 375.640631 -46.751719 
L 376.658006 -46.751719 
L 377.675381 -46.751719 
L 378.692756 -46.751719 
L 379.710131 -46.751719 
L 380.727506 -46.751719 
L 381.744881 -46.751719 
L 382.762256 -46.751719 
L 383.779631 -46.751719 
L 384.797006 -46.751719 
L 385.814381 -46.751719 
L 386.831756 -46.751719 
L 387.849131 -46.751719 
L 388.866506 -46.751719 
L 389.883881 -46.751719 
L 390.901256 -46.751719 
L 391.918631 -46.751719 
L 392.936006 -46.751719 
L 393.953381 -46.751719 
L 394.970756 -46.751719 
L 395.988131 -46.751719 
L 397.005506 -46.751719 
L 398.022881 -46.751719 
L 399.040256 -46.751719 
L 400.057631 -46.751719 
L 401.075006 -46.751719 
L 402.092381 -46.751719 
L 403.109756 -46.751719 
L 404.127131 -46.751719 
L 405.144506 -46.751719 
L 406.161881 -46.751719 
L 407.179256 -46.751719 
L 408.196631 -46.751719 
L 409.214006 -46.751719 
L 410.231381 -46.751719 
L 411.248756 -46.751719 
L 412.266131 -46.751719 
L 413.283506 -46.751719 
L 414.300881 -46.751719 
L 415.318256 -46.751719 
L 416.335631 -46.751719 
L 417.353006 -46.751719 
L 418.370381 -46.751719 
L 419.387756 -46.751719 
L 420.405131 -46.751719 
L 421.422506 -46.751719 
L 422.439881 -46.751719 
L 423.457256 -46.751719 
L 424.474631 -46.751719 
L 425.492006 -46.751719 
L 426.509381 -46.751719 
L 427.526756 -46.751719 
L 428.544131 -46.751719 
L 429.561506 -46.751719 
L 430.578881 -46.751719 
L 431.596256 -46.751719 
L 432.613631 -46.751719 
L 433.631006 -46.751719 
L 434.648381 -46.751719 
L 435.665756 -46.751719 
L 436.683131 -46.751719 
L 437.700506 -46.751719 
L 438.717881 -46.751719 
L 439.735256 -46.751719 
L 440.752631 -46.751719 
L 441.770006 -46.751719 
L 442.787381 -46.751719 
L 443.804756 -46.751719 
L 444.822131 -46.751719 
L 445.839506 -46.751719 
L 446.856881 -46.751719 
L 447.874256 -46.751719 
L 448.891631 -46.751719 
L 449.909006 -46.751719 
L 450.926381 -46.751719 
L 451.943756 -46.751719 
L 452.961131 -46.751719 
L 453.978506 -46.751719 
L 454.995881 -46.751719 
L 456.013256 -46.751719 
L 457.030631 -46.751719 
L 458.048006 -46.751719 
L 459.065381 -46.751719 
L 460.082756 -46.751719 
L 461.100131 -46.751719 
L 462.117506 -46.751719 
L 463.134881 -46.751719 
L 464.152256 -46.751719 
L 465.169631 -46.751719 
L 466.187006 -46.751719 
L 467.204381 -46.751719 
L 468.221756 -46.751719 
L 469.239131 -46.751719 
L 470.256506 -46.751719 
L 471.273881 -46.751719 
L 472.291256 -46.751719 
L 473.308631 -46.751719 
L 474.326006 -46.751719 
L 475.343381 -46.751719 
L 476.360756 -46.751719 
L 477.378131 -46.751719 
L 478.395506 -46.751719 
L 479.412881 -46.751719 
L 480.430256 -46.751719 
L 481.447631 -46.751719 
L 482.465006 -46.751719 
L 483.482381 -46.751719 
L 484.499756 -46.751719 
L 485.517131 -46.751719 
L 486.534506 -46.751719 
L 487.551881 -46.751719 
L 488.569256 -46.751719 
L 489.586631 -46.751719 
L 490.604006 -46.751719 
L 491.621381 -46.751719 
L 492.638756 -46.751719 
L 493.656131 -46.751719 
L 494.673506 -46.751719 
L 495.690881 -46.751719 
L 496.708256 -46.751719 
L 497.725631 -46.751719 
L 498.743006 -46.751719 
L 499.760381 -46.751719 
L 500.777756 -46.751719 
L 501.795131 -46.751719 
L 502.812506 -46.751719 
L 503.829881 -46.751719 
L 504.847256 -46.751719 
L 505.864631 -46.751719 
L 506.882006 -46.751719 
L 507.899381 -46.751719 
L 508.916756 -46.751719 
L 509.934131 -46.751719 
L 510.951506 -46.751719 
L 511.968881 -46.751719 
L 512.986256 -46.751719 
L 514.003631 -46.751719 
L 515.021006 -46.751719 
L 516.038381 -46.751719 
L 517.055756 -46.751719 
L 518.073131 -46.751719 
L 519.090506 -46.751719 
L 520.107881 -46.751719 
L 521.125256 -46.751719 
L 522.142631 -46.751719 
L 523.160006 -46.751719 
L 524.177381 -46.751719 
L 525.194756 -46.751719 
L 526.212131 -46.751719 
L 527.229506 -46.751719 
L 528.246881 -46.751719 
L 529.264256 -46.751719 
L 530.281631 -46.751719 
L 531.299006 -46.751719 
L 532.316381 -46.751719 
L 533.333756 -46.751719 
L 534.351131 -46.751719 
L 535.368506 -46.751719 
L 536.385881 -46.751719 
L 537.403256 -46.751719 
L 538.420631 -46.751719 
L 539.438006 -46.751719 
L 540.455381 -46.751719 
L 541.472756 -46.751719 
L 542.490131 -46.751719 
L 543.507506 -46.751719 
L 544.524881 -46.751719 
L 545.542256 -46.751719 
L 546.559631 -46.751719 
L 547.577006 -46.751719 
L 548.594381 -46.751719 
L 549.611756 -46.751719 
L 550.629131 -46.751719 
L 551.646506 -46.751719 
L 552.663881 -46.751719 
L 553.681256 -46.751719 
L 554.698631 -46.751719 
L 555.716006 -46.751719 
L 556.733381 -46.751719 
L 557.750756 -46.751719 
L 558.768131 -46.751719 
L 559.785506 -46.751719 
L 560.802881 -46.751719 
L 561.820256 -46.751719 
L 562.837631 -46.751719 
L 563.855006 -46.751719 
L 564.872381 -46.751719 
L 565.889756 -46.751719 
L 566.907131 -46.751719 
L 567.924506 -46.751719 
L 568.941881 -46.751719 
L 569.959256 -46.751719 
L 570.976631 -46.751719 
L 571.994006 -46.751719 
L 573.011381 -46.751719 
L 574.028756 -46.751719 
L 575.046131 -46.751719 
L 576.063506 -46.751719 
L 577.080881 -46.751719 
L 578.098256 -46.751719 
L 579.115631 -46.751719 
L 580.133006 -46.751719 
L 581.150381 -46.751719 
L 582.167756 -46.751719 
L 583.185131 -46.751719 
L 584.202506 -46.751719 
L 585.219881 -46.751719 
L 586.237256 -46.751719 
L 587.254631 -46.751719 
L 588.272006 -46.751719 
L 589.289381 -46.751719 
L 590.306756 -46.751719 
L 591.324131 -46.751719 
L 592.341506 -46.751719 
L 593.358881 -46.751719 
L 594.376256 -46.751719 
L 595.393631 -46.751719 
L 596.411006 -46.751719 
L 597.428381 -46.751719 
L 598.445756 -46.751719 
L 599.463131 -46.751719 
L 600.480506 -46.751719 
L 601.497881 -46.751719 
L 602.515256 -46.751719 
L 603.532631 -46.751719 
L 604.550006 -46.751719 
L 605.567381 -46.751719 
L 606.584756 -46.751719 
L 607.602131 -46.751719 
L 608.619506 -46.751719 
L 609.636881 -46.751719 
L 610.654256 -46.751719 
L 611.671631 -46.751719 
L 612.689006 -46.751719 
L 613.706381 -46.751719 
L 614.723756 -46.751719 
L 615.741131 -46.751719 
L 615.741131 -49.362943 
L 615.741131 -49.362943 
L 614.723756 -53.587471 
L 613.706381 -59.092663 
L 612.689006 -62.843179 
L 611.671631 -67.616563 
L 610.654256 -72.947119 
L 609.636881 -75.774559 
L 608.619506 -81.263119 
L 607.602131 -86.119663 
L 606.584756 -89.861863 
L 605.567381 -94.127971 
L 604.550006 -100.281811 
L 603.532631 -104.206963 
L 602.515256 -107.940847 
L 601.497881 -114.003211 
L 600.480506 -116.007367 
L 599.463131 -120.514639 
L 598.445756 -127.674715 
L 597.428381 -130.518787 
L 596.411006 -134.410675 
L 595.393631 -140.331667 
L 594.376256 -140.414827 
L 593.358881 -148.963675 
L 592.341506 -149.396107 
L 591.324131 -154.352443 
L 590.306756 -162.369067 
L 589.289381 -161.853475 
L 588.272006 -166.834759 
L 587.254631 -175.208971 
L 586.237256 -174.818119 
L 585.219881 -178.294207 
L 584.202506 -184.381519 
L 583.185131 -185.737027 
L 582.167756 -191.791075 
L 581.150381 -198.277555 
L 580.133006 -197.038471 
L 579.115631 -195.441799 
L 578.098256 -209.969851 
L 577.080881 -207.150727 
L 576.063506 -211.109143 
L 575.046131 -218.028055 
L 574.028756 -215.583151 
L 573.011381 -221.354455 
L 571.994006 -230.119519 
L 570.976631 -226.252579 
L 569.959256 -235.524919 
L 568.941881 -231.998935 
L 567.924506 -237.271279 
L 566.907131 -246.377299 
L 565.889756 -240.057139 
L 564.872381 -246.052975 
L 563.855006 -253.728643 
L 562.837631 -250.435507 
L 561.820256 -254.277499 
L 560.802881 -261.919903 
L 559.785506 -257.695375 
L 558.768131 -261.678739 
L 557.750756 -274.709911 
L 556.733381 -264.863767 
L 555.716006 -265.687051 
L 554.698631 -278.859595 
L 553.681256 -272.289955 
L 552.663881 -276.273319 
L 551.646506 -286.252519 
L 550.629131 -277.445875 
L 549.611756 -289.470811 
L 548.594381 -284.123623 
L 547.577006 -283.533187 
L 546.559631 -294.501991 
L 545.542256 -288.788899 
L 544.524881 -289.013431 
L 543.507506 -298.310719 
L 542.490131 -292.364779 
L 541.472756 -286.252519 
L 540.455381 -305.662063 
L 539.438006 -298.551883 
L 538.420631 -298.693255 
L 537.403256 -307.790959 
L 536.385881 -301.046683 
L 535.368506 -301.163107 
L 534.351131 -311.508211 
L 533.333756 -301.587223 
L 532.316381 -303.050839 
L 531.299006 -313.254571 
L 530.281631 -303.849175 
L 529.264256 -303.508219 
L 528.246881 -316.905295 
L 527.229506 -305.845015 
L 526.212131 -317.753527 
L 525.194756 -307.641271 
L 524.177381 -306.152707 
L 523.160006 -318.202591 
L 522.142631 -309.204679 
L 521.125256 -309.504055 
L 520.107881 -316.190119 
L 519.090506 -308.115283 
L 518.073131 -306.343975 
L 517.055756 -318.659971 
L 516.038381 -306.452083 
L 515.021006 -307.924015 
L 514.003631 -317.138143 
L 512.986256 -304.797199 
L 511.968881 -307.924015 
L 510.951506 -313.994695 
L 509.934131 -302.942731 
L 508.916756 -302.027971 
L 507.899381 -311.474947 
L 506.882006 -301.512379 
L 505.864631 -310.551871 
L 504.847256 -289.911559 
L 503.829881 -302.227555 
L 502.812506 -309.903223 
L 501.795131 -297.213007 
L 500.777756 -294.934423 
L 499.760381 -309.387631 
L 498.743006 -293.637127 
L 497.725631 -294.219247 
L 496.708256 -303.092419 
L 495.690881 -291.982243 
L 494.673506 -290.610103 
L 493.656131 -299.408431 
L 492.638756 -289.820083 
L 491.621381 -286.260835 
L 490.604006 -294.086191 
L 489.586631 -283.732771 
L 488.569256 -282.759799 
L 487.551881 -288.838795 
L 486.534506 -279.092443 
L 485.517131 -281.803459 
L 484.499756 -286.493683 
L 483.482381 -276.739015 
L 482.465006 -280.431319 
L 481.447631 -270.219271 
L 480.430256 -269.354407 
L 479.412881 -274.161055 
L 478.395506 -268.032163 
L 477.378131 -266.019691 
L 476.360756 -269.936527 
L 475.343381 -261.578947 
L 474.326006 -258.319075 
L 473.308631 -266.377279 
L 472.291256 -252.938623 
L 471.273881 -253.911595 
L 470.256506 -258.443815 
L 469.239131 -251.175631 
L 468.221756 -246.934471 
L 467.204381 -245.637175 
L 466.187006 -245.870023 
L 465.169631 -244.123663 
L 464.152256 -245.420959 
L 463.134881 -237.919927 
L 462.117506 -244.223455 
L 461.100131 -234.352363 
L 460.082756 -232.572739 
L 459.065381 -239.034271 
L 458.048006 -228.348211 
L 457.030631 -225.354451 
L 456.013256 -230.377315 
L 454.995881 -220.173583 
L 453.978506 -221.379403 
L 452.961131 -223.458403 
L 451.943756 -216.107059 
L 450.926381 -212.115379 
L 449.909006 -219.109135 
L 448.891631 -208.622659 
L 447.874256 -206.851351 
L 446.856881 -213.005191 
L 445.839506 -201.870067 
L 444.822131 -202.152811 
L 443.804756 -203.183995 
L 442.787381 -195.541591 
L 441.770006 -196.439719 
L 440.752631 -199.175683 
L 439.735256 -193.213111 
L 438.717881 -196.730779 
L 437.700506 -188.065507 
L 436.683131 -186.685051 
L 435.665756 -188.597731 
L 434.648381 -180.996907 
L 433.631006 -179.233915 
L 432.613631 -183.990667 
L 431.596256 -174.959491 
L 430.578881 -167.009395 
L 429.561506 -175.915831 
L 428.544131 -171.300451 
L 427.526756 -168.572803 
L 426.509381 -169.520827 
L 425.492006 -163.142455 
L 424.474631 -162.119587 
L 423.457256 -164.697547 
L 422.439881 -159.001087 
L 421.422506 -157.088407 
L 420.405131 -162.144535 
L 419.387756 -152.680927 
L 418.370381 -157.055143 
L 417.353006 -149.662219 
L 416.335631 -147.949123 
L 415.318256 -149.861803 
L 414.300881 -142.468879 
L 413.283506 -144.107131 
L 412.266131 -143.258899 
L 411.248756 -139.308799 
L 410.231381 -137.437699 
L 409.214006 -139.566595 
L 408.196631 -135.616495 
L 407.179256 -133.895083 
L 406.161881 -135.949135 
L 405.144506 -128.947063 
L 404.127131 -128.356627 
L 403.109756 -129.587395 
L 402.092381 -124.880539 
L 401.075006 -123.899251 
L 400.057631 -125.537503 
L 399.040256 -121.130023 
L 398.022881 -118.560379 
L 397.005506 -121.005283 
L 395.988131 -116.913811 
L 394.970756 -118.294267 
L 393.953381 -114.127951 
L 392.936006 -110.843131 
L 391.918631 -113.545831 
L 390.901256 -109.828579 
L 389.883881 -108.489703 
L 388.866506 -109.495939 
L 387.849131 -105.429415 
L 386.831756 -103.483471 
L 385.814381 -105.396151 
L 384.797006 -101.629003 
L 383.779631 -101.836903 
L 382.762256 -102.078067 
L 381.744881 -99.100939 
L 380.727506 -97.737115 
L 379.710131 -98.759983 
L 378.692756 -97.520899 
L 377.675381 -95.092627 
L 376.658006 -94.527139 
L 375.640631 -91.899283 
L 374.623256 -91.100947 
L 373.605881 -90.618619 
L 372.588506 -90.169555 
L 371.571131 -90.069763 
L 370.553756 -88.024027 
L 369.536381 -86.710099 
L 368.519006 -87.400327 
L 367.501631 -84.182035 
L 366.484256 -83.533387 
L 365.466881 -84.797419 
L 364.449506 -81.737131 
L 363.432131 -80.689315 
L 362.414756 -81.604075 
L 361.397381 -80.148775 
L 360.380006 -79.358755 
L 359.362631 -79.076011 
L 358.345256 -77.304703 
L 357.327881 -76.764163 
L 356.310506 -75.433603 
L 355.293131 -75.749611 
L 354.275756 -74.992855 
L 353.258381 -75.375391 
L 352.241006 -73.321339 
L 351.223631 -73.487659 
L 350.206256 -71.350447 
L 349.188881 -71.940883 
L 348.171506 -72.173731 
L 347.154131 -70.477267 
L 346.136756 -69.038599 
L 345.119381 -69.437767 
L 344.102006 -67.766251 
L 343.084631 -67.308871 
L 342.067256 -67.475191 
L 341.049881 -66.660223 
L 340.032506 -65.969995 
L 339.015131 -66.377479 
L 337.997756 -65.071867 
L 336.980381 -65.146711 
L 335.963006 -65.063551 
L 334.945631 -63.533407 
L 333.928256 -62.876443 
L 332.910881 -63.125923 
L 331.893506 -61.978315 
L 330.876131 -62.435695 
L 329.858756 -60.880603 
L 328.841381 -61.013659 
L 327.824006 -61.753783 
L 326.806631 -59.566675 
L 325.789256 -59.658151 
L 324.771881 -59.882683 
L 323.754506 -59.724679 
L 322.737131 -58.851499 
L 321.719756 -58.552123 
L 320.702381 -58.111375 
L 319.685006 -57.728839 
L 318.667631 -57.146719 
L 317.650256 -57.404515 
L 316.632881 -56.564599 
L 315.615506 -57.271459 
L 314.598131 -56.822395 
L 313.580756 -55.633207 
L 312.563381 -56.231959 
L 311.546006 -55.292251 
L 310.528631 -54.818239 
L 309.511256 -55.466887 
L 308.493881 -55.142563 
L 307.476506 -54.360859 
L 306.459131 -54.286015 
L 305.441756 -53.762107 
L 304.424381 -53.637367 
L 303.407006 -53.670631 
L 302.389631 -53.313043 
L 301.372256 -53.021983 
L 300.354881 -53.188303 
L 299.337506 -52.789135 
L 298.320131 -52.780819 
L 297.302756 -52.564603 
L 296.285381 -52.007431 
L 295.268006 -51.965851 
L 294.250631 -51.899323 
L 293.233256 -51.641527 
L 292.215881 -51.915955 
L 291.198506 -51.392047 
L 290.181131 -51.741319 
L 289.163756 -51.134251 
L 288.146381 -51.092671 
L 287.129006 -50.735083 
L 286.111631 -50.801611 
L 285.094256 -50.552131 
L 284.076881 -50.726767 
L 283.059506 -50.286019 
L 282.042131 -50.194543 
L 281.024756 -49.845271 
L 280.007381 -50.310967 
L 278.990006 -49.828639 
L 277.972631 -49.870219 
L 276.955256 -49.687267 
L 275.937881 -49.587475 
L 274.920506 -49.836955 
L 273.903131 -49.446103 
L 272.885756 -49.387891 
L 271.868381 -49.396207 
L 270.851006 -49.055251 
L 269.833631 -48.905563 
L 268.816256 -48.980407 
L 267.798881 -48.697663 
L 266.781506 -48.938827 
L 265.764131 -49.121779 
L 264.746756 -48.814087 
L 263.729381 -48.755875 
L 262.712006 -48.514711 
L 261.694631 -48.714295 
L 260.677256 -48.481447 
L 259.659881 -48.290179 
L 258.642506 -48.323443 
L 257.625131 -48.256915 
L 256.607756 -48.273547 
L 255.590381 -48.123859 
L 254.573006 -48.273547 
L 253.555631 -48.190387 
L 252.538256 -48.165439 
L 251.520881 -48.024067 
L 250.503506 -48.049015 
L 249.486131 -47.965855 
L 248.468756 -47.749639 
L 247.451381 -47.816167 
L 246.434006 -47.724691 
L 245.416631 -47.791219 
L 244.399256 -47.641531 
L 243.381881 -47.683111 
L 242.364506 -47.541739 
L 241.347131 -47.774587 
L 240.329756 -47.699743 
L 239.312381 -47.400367 
L 238.295006 -47.466895 
L 237.277631 -47.416999 
L 236.260256 -47.458579 
L 235.242881 -47.333839 
L 234.225506 -47.450263 
L 233.208131 -47.333839 
L 232.190756 -47.392051 
L 231.173381 -47.416999 
L 230.156006 -47.325523 
L 229.138631 -47.258995 
L 228.121256 -47.267311 
L 227.103881 -47.258995 
L 226.086506 -47.092675 
L 225.069131 -47.292259 
L 224.051756 -47.117623 
L 223.034381 -47.150887 
L 222.017006 -47.142571 
L 220.999631 -47.076043 
L 219.982256 -47.150887 
L 218.964881 -47.109307 
L 217.947506 -47.017831 
L 216.930131 -47.175835 
L 215.912756 -47.034463 
L 214.895381 -47.009515 
L 213.878006 -47.026147 
L 212.860631 -47.067727 
L 211.843256 -46.992883 
L 210.825881 -46.942987 
L 209.808506 -47.001199 
L 208.791131 -46.918039 
L 207.773756 -46.992883 
L 206.756381 -46.967935 
L 205.739006 -46.901407 
L 204.721631 -46.942987 
L 203.704256 -46.959619 
L 202.686881 -46.868143 
L 201.669506 -46.942987 
L 200.652131 -46.934671 
L 199.634756 -46.934671 
L 198.617381 -46.893091 
L 197.600006 -46.834879 
L 196.582631 -46.893091 
L 195.565256 -46.901407 
L 194.547881 -46.843195 
L 193.530506 -46.868143 
L 192.513131 -46.901407 
L 191.495756 -46.793299 
L 190.478381 -46.868143 
L 189.461006 -46.818247 
L 188.443631 -46.843195 
L 187.426256 -46.834879 
L 186.408881 -46.818247 
L 185.391506 -46.801615 
L 184.374131 -46.826563 
L 183.356756 -46.809931 
L 182.339381 -46.793299 
L 181.322006 -46.843195 
L 180.304631 -46.784983 
L 179.287256 -46.776667 
L 178.269881 -46.793299 
L 177.252506 -46.784983 
L 176.235131 -46.793299 
L 175.217756 -46.793299 
L 174.200381 -46.818247 
L 173.183006 -46.834879 
L 172.165631 -46.834879 
L 171.148256 -46.776667 
L 170.130881 -46.784983 
L 169.113506 -46.818247 
L 168.096131 -46.768351 
L 167.078756 -46.776667 
L 166.061381 -46.801615 
L 165.044006 -46.793299 
L 164.026631 -46.776667 
L 163.009256 -46.776667 
L 161.991881 -46.760035 
L 160.974506 -46.768351 
L 159.957131 -46.784983 
L 158.939756 -46.768351 
L 157.922381 -46.751719 
L 156.905006 -46.784983 
L 155.887631 -46.768351 
L 154.870256 -46.768351 
L 153.852881 -46.784983 
L 152.835506 -46.751719 
L 151.818131 -46.776667 
L 150.800756 -46.760035 
L 149.783381 -46.776667 
L 148.766006 -46.776667 
L 147.748631 -46.760035 
L 146.731256 -46.760035 
L 145.713881 -46.751719 
L 144.696506 -46.760035 
L 143.679131 -46.751719 
L 142.661756 -46.751719 
L 141.644381 -46.768351 
L 140.627006 -46.751719 
L 139.609631 -46.768351 
L 138.592256 -46.751719 
L 137.574881 -46.760035 
L 136.557506 -46.760035 
L 135.540131 -46.760035 
L 134.522756 -46.776667 
L 133.505381 -46.751719 
L 132.488006 -46.760035 
L 131.470631 -46.751719 
L 130.453256 -46.768351 
L 129.435881 -46.751719 
L 128.418506 -46.768351 
L 127.401131 -46.751719 
L 126.383756 -46.751719 
L 125.366381 -46.760035 
L 124.349006 -46.751719 
L 123.331631 -46.751719 
L 122.314256 -46.751719 
L 121.296881 -46.751719 
L 120.279506 -46.751719 
L 119.262131 -46.751719 
L 118.244756 -46.760035 
L 117.227381 -46.751719 
L 116.210006 -46.751719 
L 115.192631 -46.751719 
L 114.175256 -46.751719 
L 113.157881 -46.760035 
L 112.140506 -46.760035 
z
"/>
    </defs>
    <g clip-path="url(#p8ee4b25023)">
     <use xlink:href="#mf1c38c278a" x="0" y="390.757969" style="fill: #ffa500"/>
    </g>
   </g>
   <g id="matplotlib.axis_1">
    <g id="xtick_1">
     <g id="line2d_1">
      <defs>
       <path id="m747313e2f6" d="M 0 0 
L 0 -3.5 
" style="stroke: #000000; stroke-width: 0.8"/>
      </defs>
      <g>
       <use xlink:href="#m747313e2f6" x="58.324219" y="344.00625" style="stroke: #000000; stroke-width: 0.8"/>
      </g>
     </g>
     <g id="line2d_2">
      <defs>
       <path id="mbbc0ed6245" d="M 0 0 
L 0 3.5 
" style="stroke: #000000; stroke-width: 0.8"/>
      </defs>
      <g>
       <use xlink:href="#mbbc0ed6245" x="58.324219" y="11.36625" style="stroke: #000000; stroke-width: 0.8"/>
      </g>
     </g>
     <g id="text_1">
      <!-- 165 -->
      <g transform="translate(49.324219 363.33875) scale(0.12 -0.12)">
       <defs>
        <path id="TimesNewRomanPSMT-31" d="M 750 3822 
L 1781 4325 
L 1884 4325 
L 1884 747 
Q 1884 391 1914 303 
Q 1944 216 2037 169 
Q 2131 122 2419 116 
L 2419 0 
L 825 0 
L 825 116 
Q 1125 122 1212 167 
Q 1300 213 1334 289 
Q 1369 366 1369 747 
L 1369 3034 
Q 1369 3497 1338 3628 
Q 1316 3728 1258 3775 
Q 1200 3822 1119 3822 
Q 1003 3822 797 3725 
L 750 3822 
z
" transform="scale(0.015625)"/>
        <path id="TimesNewRomanPSMT-36" d="M 2869 4325 
L 2869 4209 
Q 2456 4169 2195 4045 
Q 1934 3922 1679 3669 
Q 1425 3416 1258 3105 
Q 1091 2794 978 2366 
Q 1428 2675 1881 2675 
Q 2316 2675 2634 2325 
Q 2953 1975 2953 1425 
Q 2953 894 2631 456 
Q 2244 -75 1606 -75 
Q 1172 -75 869 213 
Q 275 772 275 1663 
Q 275 2231 503 2743 
Q 731 3256 1154 3653 
Q 1578 4050 1965 4187 
Q 2353 4325 2688 4325 
L 2869 4325 
z
M 925 2138 
Q 869 1716 869 1456 
Q 869 1156 980 804 
Q 1091 453 1309 247 
Q 1469 100 1697 100 
Q 1969 100 2183 356 
Q 2397 613 2397 1088 
Q 2397 1622 2184 2012 
Q 1972 2403 1581 2403 
Q 1463 2403 1327 2353 
Q 1191 2303 925 2138 
z
" transform="scale(0.015625)"/>
        <path id="TimesNewRomanPSMT-35" d="M 2778 4238 
L 2534 3706 
L 1259 3706 
L 981 3138 
Q 1809 3016 2294 2522 
Q 2709 2097 2709 1522 
Q 2709 1188 2573 903 
Q 2438 619 2231 419 
Q 2025 219 1772 97 
Q 1413 -75 1034 -75 
Q 653 -75 479 54 
Q 306 184 306 341 
Q 306 428 378 495 
Q 450 563 559 563 
Q 641 563 702 538 
Q 763 513 909 409 
Q 1144 247 1384 247 
Q 1750 247 2026 523 
Q 2303 800 2303 1197 
Q 2303 1581 2056 1914 
Q 1809 2247 1375 2428 
Q 1034 2569 447 2591 
L 1259 4238 
L 2778 4238 
z
" transform="scale(0.015625)"/>
       </defs>
       <use xlink:href="#TimesNewRomanPSMT-31"/>
       <use xlink:href="#TimesNewRomanPSMT-36" x="50"/>
       <use xlink:href="#TimesNewRomanPSMT-35" x="100"/>
      </g>
     </g>
    </g>
    <g id="xtick_2">
     <g id="line2d_3">
      <g>
       <use xlink:href="#m747313e2f6" x="244.324219" y="344.00625" style="stroke: #000000; stroke-width: 0.8"/>
      </g>
     </g>
     <g id="line2d_4">
      <g>
       <use xlink:href="#mbbc0ed6245" x="244.324219" y="11.36625" style="stroke: #000000; stroke-width: 0.8"/>
      </g>
     </g>
     <g id="text_2">
      <!-- 170 -->
      <g transform="translate(235.324219 363.33875) scale(0.12 -0.12)">
       <defs>
        <path id="TimesNewRomanPSMT-37" d="M 644 4238 
L 2916 4238 
L 2916 4119 
L 1503 -88 
L 1153 -88 
L 2419 3728 
L 1253 3728 
Q 900 3728 750 3644 
Q 488 3500 328 3200 
L 238 3234 
L 644 4238 
z
" transform="scale(0.015625)"/>
        <path id="TimesNewRomanPSMT-30" d="M 231 2094 
Q 231 2819 450 3342 
Q 669 3866 1031 4122 
Q 1313 4325 1613 4325 
Q 2100 4325 2488 3828 
Q 2972 3213 2972 2159 
Q 2972 1422 2759 906 
Q 2547 391 2217 158 
Q 1888 -75 1581 -75 
Q 975 -75 572 641 
Q 231 1244 231 2094 
z
M 844 2016 
Q 844 1141 1059 588 
Q 1238 122 1591 122 
Q 1759 122 1940 273 
Q 2122 425 2216 781 
Q 2359 1319 2359 2297 
Q 2359 3022 2209 3506 
Q 2097 3866 1919 4016 
Q 1791 4119 1609 4119 
Q 1397 4119 1231 3928 
Q 1006 3669 925 3112 
Q 844 2556 844 2016 
z
" transform="scale(0.015625)"/>
       </defs>
       <use xlink:href="#TimesNewRomanPSMT-31"/>
       <use xlink:href="#TimesNewRomanPSMT-37" x="50"/>
       <use xlink:href="#TimesNewRomanPSMT-30" x="100"/>
      </g>
     </g>
    </g>
    <g id="xtick_3">
     <g id="line2d_5">
      <g>
       <use xlink:href="#m747313e2f6" x="430.324219" y="344.00625" style="stroke: #000000; stroke-width: 0.8"/>
      </g>
     </g>
     <g id="line2d_6">
      <g>
       <use xlink:href="#mbbc0ed6245" x="430.324219" y="11.36625" style="stroke: #000000; stroke-width: 0.8"/>
      </g>
     </g>
     <g id="text_3">
      <!-- 175 -->
      <g transform="translate(421.324219 363.33875) scale(0.12 -0.12)">
       <use xlink:href="#TimesNewRomanPSMT-31"/>
       <use xlink:href="#TimesNewRomanPSMT-37" x="50"/>
       <use xlink:href="#TimesNewRomanPSMT-35" x="100"/>
      </g>
     </g>
    </g>
    <g id="xtick_4">
     <g id="line2d_7">
      <g>
       <use xlink:href="#m747313e2f6" x="616.324219" y="344.00625" style="stroke: #000000; stroke-width: 0.8"/>
      </g>
     </g>
     <g id="line2d_8">
      <g>
       <use xlink:href="#mbbc0ed6245" x="616.324219" y="11.36625" style="stroke: #000000; stroke-width: 0.8"/>
      </g>
     </g>
     <g id="text_4">
      <!-- 180 -->
      <g transform="translate(607.324219 363.33875) scale(0.12 -0.12)">
       <defs>
        <path id="TimesNewRomanPSMT-38" d="M 1228 2134 
Q 725 2547 579 2797 
Q 434 3047 434 3316 
Q 434 3728 753 4026 
Q 1072 4325 1600 4325 
Q 2113 4325 2425 4047 
Q 2738 3769 2738 3413 
Q 2738 3175 2569 2928 
Q 2400 2681 1866 2347 
Q 2416 1922 2594 1678 
Q 2831 1359 2831 1006 
Q 2831 559 2490 242 
Q 2150 -75 1597 -75 
Q 994 -75 656 303 
Q 388 606 388 966 
Q 388 1247 577 1523 
Q 766 1800 1228 2134 
z
M 1719 2469 
Q 2094 2806 2194 3001 
Q 2294 3197 2294 3444 
Q 2294 3772 2109 3958 
Q 1925 4144 1606 4144 
Q 1288 4144 1088 3959 
Q 888 3775 888 3528 
Q 888 3366 970 3203 
Q 1053 3041 1206 2894 
L 1719 2469 
z
M 1375 2016 
Q 1116 1797 991 1539 
Q 866 1281 866 981 
Q 866 578 1086 336 
Q 1306 94 1647 94 
Q 1984 94 2187 284 
Q 2391 475 2391 747 
Q 2391 972 2272 1150 
Q 2050 1481 1375 2016 
z
" transform="scale(0.015625)"/>
       </defs>
       <use xlink:href="#TimesNewRomanPSMT-31"/>
       <use xlink:href="#TimesNewRomanPSMT-38" x="50"/>
       <use xlink:href="#TimesNewRomanPSMT-30" x="100"/>
      </g>
     </g>
    </g>
    <g id="text_5">
     <!-- Angle [deg] -->
     <g transform="translate(301.296094 380.32125) scale(0.15 -0.15)">
      <defs>
       <path id="TimesNewRomanPSMT-41" d="M 2928 1419 
L 1288 1419 
L 1000 750 
Q 894 503 894 381 
Q 894 284 986 211 
Q 1078 138 1384 116 
L 1384 0 
L 50 0 
L 50 116 
Q 316 163 394 238 
Q 553 388 747 847 
L 2238 4334 
L 2347 4334 
L 3822 809 
Q 4000 384 4145 257 
Q 4291 131 4550 116 
L 4550 0 
L 2878 0 
L 2878 116 
Q 3131 128 3220 200 
Q 3309 272 3309 375 
Q 3309 513 3184 809 
L 2928 1419 
z
M 2841 1650 
L 2122 3363 
L 1384 1650 
L 2841 1650 
z
" transform="scale(0.015625)"/>
       <path id="TimesNewRomanPSMT-6e" d="M 1034 2341 
Q 1538 2947 1994 2947 
Q 2228 2947 2397 2830 
Q 2566 2713 2666 2444 
Q 2734 2256 2734 1869 
L 2734 647 
Q 2734 375 2778 278 
Q 2813 200 2889 156 
Q 2966 113 3172 113 
L 3172 0 
L 1756 0 
L 1756 113 
L 1816 113 
Q 2016 113 2095 173 
Q 2175 234 2206 353 
Q 2219 400 2219 647 
L 2219 1819 
Q 2219 2209 2117 2386 
Q 2016 2563 1775 2563 
Q 1403 2563 1034 2156 
L 1034 647 
Q 1034 356 1069 288 
Q 1113 197 1189 155 
Q 1266 113 1500 113 
L 1500 0 
L 84 0 
L 84 113 
L 147 113 
Q 366 113 442 223 
Q 519 334 519 647 
L 519 1709 
Q 519 2225 495 2337 
Q 472 2450 423 2490 
Q 375 2531 294 2531 
Q 206 2531 84 2484 
L 38 2597 
L 900 2947 
L 1034 2947 
L 1034 2341 
z
" transform="scale(0.015625)"/>
       <path id="TimesNewRomanPSMT-67" d="M 966 1044 
Q 703 1172 562 1401 
Q 422 1631 422 1909 
Q 422 2334 742 2640 
Q 1063 2947 1563 2947 
Q 1972 2947 2272 2747 
L 2878 2747 
Q 3013 2747 3034 2739 
Q 3056 2731 3066 2713 
Q 3084 2684 3084 2613 
Q 3084 2531 3069 2500 
Q 3059 2484 3036 2475 
Q 3013 2466 2878 2466 
L 2506 2466 
Q 2681 2241 2681 1891 
Q 2681 1491 2375 1206 
Q 2069 922 1553 922 
Q 1341 922 1119 984 
Q 981 866 932 777 
Q 884 688 884 625 
Q 884 572 936 522 
Q 988 472 1138 450 
Q 1225 438 1575 428 
Q 2219 413 2409 384 
Q 2700 344 2873 169 
Q 3047 -6 3047 -263 
Q 3047 -616 2716 -925 
Q 2228 -1381 1444 -1381 
Q 841 -1381 425 -1109 
Q 191 -953 191 -784 
Q 191 -709 225 -634 
Q 278 -519 444 -313 
Q 466 -284 763 25 
Q 600 122 533 198 
Q 466 275 466 372 
Q 466 481 555 628 
Q 644 775 966 1044 
z
M 1509 2797 
Q 1278 2797 1122 2612 
Q 966 2428 966 2047 
Q 966 1553 1178 1281 
Q 1341 1075 1591 1075 
Q 1828 1075 1981 1253 
Q 2134 1431 2134 1813 
Q 2134 2309 1919 2591 
Q 1759 2797 1509 2797 
z
M 934 0 
Q 788 -159 713 -296 
Q 638 -434 638 -550 
Q 638 -700 819 -813 
Q 1131 -1006 1722 -1006 
Q 2284 -1006 2551 -807 
Q 2819 -609 2819 -384 
Q 2819 -222 2659 -153 
Q 2497 -84 2016 -72 
Q 1313 -53 934 0 
z
" transform="scale(0.015625)"/>
       <path id="TimesNewRomanPSMT-6c" d="M 1184 4444 
L 1184 647 
Q 1184 378 1223 290 
Q 1263 203 1344 158 
Q 1425 113 1647 113 
L 1647 0 
L 244 0 
L 244 113 
Q 441 113 512 153 
Q 584 194 625 287 
Q 666 381 666 647 
L 666 3247 
Q 666 3731 644 3842 
Q 622 3953 573 3993 
Q 525 4034 450 4034 
Q 369 4034 244 3984 
L 191 4094 
L 1044 4444 
L 1184 4444 
z
" transform="scale(0.015625)"/>
       <path id="TimesNewRomanPSMT-65" d="M 681 1784 
Q 678 1147 991 784 
Q 1303 422 1725 422 
Q 2006 422 2214 576 
Q 2422 731 2563 1106 
L 2659 1044 
Q 2594 616 2278 264 
Q 1963 -88 1488 -88 
Q 972 -88 605 314 
Q 238 716 238 1394 
Q 238 2128 614 2539 
Q 991 2950 1559 2950 
Q 2041 2950 2350 2633 
Q 2659 2316 2659 1784 
L 681 1784 
z
M 681 1966 
L 2006 1966 
Q 1991 2241 1941 2353 
Q 1863 2528 1708 2628 
Q 1553 2728 1384 2728 
Q 1125 2728 920 2526 
Q 716 2325 681 1966 
z
" transform="scale(0.015625)"/>
       <path id="TimesNewRomanPSMT-20" transform="scale(0.015625)"/>
       <path id="TimesNewRomanPSMT-5b" d="M 1900 -1269 
L 525 -1269 
L 525 4334 
L 1900 4334 
L 1900 4088 
L 994 4088 
L 994 -1025 
L 1900 -1025 
L 1900 -1269 
z
" transform="scale(0.015625)"/>
       <path id="TimesNewRomanPSMT-64" d="M 2222 322 
Q 2013 103 1813 7 
Q 1613 -88 1381 -88 
Q 913 -88 563 304 
Q 213 697 213 1313 
Q 213 1928 600 2439 
Q 988 2950 1597 2950 
Q 1975 2950 2222 2709 
L 2222 3238 
Q 2222 3728 2198 3840 
Q 2175 3953 2125 3993 
Q 2075 4034 2000 4034 
Q 1919 4034 1784 3984 
L 1744 4094 
L 2597 4444 
L 2738 4444 
L 2738 1134 
Q 2738 631 2761 520 
Q 2784 409 2836 365 
Q 2888 322 2956 322 
Q 3041 322 3181 375 
L 3216 266 
L 2366 -88 
L 2222 -88 
L 2222 322 
z
M 2222 541 
L 2222 2016 
Q 2203 2228 2109 2403 
Q 2016 2578 1861 2667 
Q 1706 2756 1559 2756 
Q 1284 2756 1069 2509 
Q 784 2184 784 1559 
Q 784 928 1059 592 
Q 1334 256 1672 256 
Q 1956 256 2222 541 
z
" transform="scale(0.015625)"/>
       <path id="TimesNewRomanPSMT-5d" d="M 234 4334 
L 1609 4334 
L 1609 -1272 
L 234 -1272 
L 234 -1025 
L 1141 -1025 
L 1141 4088 
L 234 4088 
L 234 4334 
z
" transform="scale(0.015625)"/>
      </defs>
      <use xlink:href="#TimesNewRomanPSMT-41"/>
      <use xlink:href="#TimesNewRomanPSMT-6e" x="72.216797"/>
      <use xlink:href="#TimesNewRomanPSMT-67" x="122.216797"/>
      <use xlink:href="#TimesNewRomanPSMT-6c" x="172.216797"/>
      <use xlink:href="#TimesNewRomanPSMT-65" x="200"/>
      <use xlink:href="#TimesNewRomanPSMT-20" x="244.384766"/>
      <use xlink:href="#TimesNewRomanPSMT-5b" x="269.384766"/>
      <use xlink:href="#TimesNewRomanPSMT-64" x="302.685547"/>
      <use xlink:href="#TimesNewRomanPSMT-65" x="352.685547"/>
      <use xlink:href="#TimesNewRomanPSMT-67" x="397.070312"/>
      <use xlink:href="#TimesNewRomanPSMT-5d" x="447.070312"/>
     </g>
    </g>
   </g>
   <g id="matplotlib.axis_2">
    <g id="ytick_1">
     <g id="line2d_9">
      <defs>
       <path id="mb04f25442f" d="M 0 0 
L 3.5 0 
" style="stroke: #000000; stroke-width: 0.8"/>
      </defs>
      <g>
       <use xlink:href="#mb04f25442f" x="58.324219" y="344.00625" style="stroke: #000000; stroke-width: 0.8"/>
      </g>
     </g>
     <g id="line2d_10">
      <defs>
       <path id="md7aa1a32b7" d="M 0 0 
L -3.5 0 
" style="stroke: #000000; stroke-width: 0.8"/>
      </defs>
      <g>
       <use xlink:href="#md7aa1a32b7" x="616.324219" y="344.00625" style="stroke: #000000; stroke-width: 0.8"/>
      </g>
     </g>
     <g id="text_6">
      <!-- 0 -->
      <g transform="translate(48.824219 348.1725) scale(0.12 -0.12)">
       <use xlink:href="#TimesNewRomanPSMT-30"/>
      </g>
     </g>
    </g>
    <g id="ytick_2">
     <g id="line2d_11">
      <g>
       <use xlink:href="#mb04f25442f" x="58.324219" y="302.42625" style="stroke: #000000; stroke-width: 0.8"/>
      </g>
     </g>
     <g id="line2d_12">
      <g>
       <use xlink:href="#md7aa1a32b7" x="616.324219" y="302.42625" style="stroke: #000000; stroke-width: 0.8"/>
      </g>
     </g>
     <g id="text_7">
      <!-- 5000 -->
      <g transform="translate(30.824219 306.5925) scale(0.12 -0.12)">
       <use xlink:href="#TimesNewRomanPSMT-35"/>
       <use xlink:href="#TimesNewRomanPSMT-30" x="50"/>
       <use xlink:href="#TimesNewRomanPSMT-30" x="100"/>
       <use xlink:href="#TimesNewRomanPSMT-30" x="150"/>
      </g>
     </g>
    </g>
    <g id="ytick_3">
     <g id="line2d_13">
      <g>
       <use xlink:href="#mb04f25442f" x="58.324219" y="260.84625" style="stroke: #000000; stroke-width: 0.8"/>
      </g>
     </g>
     <g id="line2d_14">
      <g>
       <use xlink:href="#md7aa1a32b7" x="616.324219" y="260.84625" style="stroke: #000000; stroke-width: 0.8"/>
      </g>
     </g>
     <g id="text_8">
      <!-- 10000 -->
      <g transform="translate(24.824219 265.0125) scale(0.12 -0.12)">
       <use xlink:href="#TimesNewRomanPSMT-31"/>
       <use xlink:href="#TimesNewRomanPSMT-30" x="50"/>
       <use xlink:href="#TimesNewRomanPSMT-30" x="100"/>
       <use xlink:href="#TimesNewRomanPSMT-30" x="150"/>
       <use xlink:href="#TimesNewRomanPSMT-30" x="200"/>
      </g>
     </g>
    </g>
    <g id="ytick_4">
     <g id="line2d_15">
      <g>
       <use xlink:href="#mb04f25442f" x="58.324219" y="219.26625" style="stroke: #000000; stroke-width: 0.8"/>
      </g>
     </g>
     <g id="line2d_16">
      <g>
       <use xlink:href="#md7aa1a32b7" x="616.324219" y="219.26625" style="stroke: #000000; stroke-width: 0.8"/>
      </g>
     </g>
     <g id="text_9">
      <!-- 15000 -->
      <g transform="translate(24.824219 223.4325) scale(0.12 -0.12)">
       <use xlink:href="#TimesNewRomanPSMT-31"/>
       <use xlink:href="#TimesNewRomanPSMT-35" x="50"/>
       <use xlink:href="#TimesNewRomanPSMT-30" x="100"/>
       <use xlink:href="#TimesNewRomanPSMT-30" x="150"/>
       <use xlink:href="#TimesNewRomanPSMT-30" x="200"/>
      </g>
     </g>
    </g>
    <g id="ytick_5">
     <g id="line2d_17">
      <g>
       <use xlink:href="#mb04f25442f" x="58.324219" y="177.68625" style="stroke: #000000; stroke-width: 0.8"/>
      </g>
     </g>
     <g id="line2d_18">
      <g>
       <use xlink:href="#md7aa1a32b7" x="616.324219" y="177.68625" style="stroke: #000000; stroke-width: 0.8"/>
      </g>
     </g>
     <g id="text_10">
      <!-- 20000 -->
      <g transform="translate(24.824219 181.8525) scale(0.12 -0.12)">
       <defs>
        <path id="TimesNewRomanPSMT-32" d="M 2934 816 
L 2638 0 
L 138 0 
L 138 116 
Q 1241 1122 1691 1759 
Q 2141 2397 2141 2925 
Q 2141 3328 1894 3587 
Q 1647 3847 1303 3847 
Q 991 3847 742 3664 
Q 494 3481 375 3128 
L 259 3128 
Q 338 3706 661 4015 
Q 984 4325 1469 4325 
Q 1984 4325 2329 3994 
Q 2675 3663 2675 3213 
Q 2675 2891 2525 2569 
Q 2294 2063 1775 1497 
Q 997 647 803 472 
L 1909 472 
Q 2247 472 2383 497 
Q 2519 522 2628 598 
Q 2738 675 2819 816 
L 2934 816 
z
" transform="scale(0.015625)"/>
       </defs>
       <use xlink:href="#TimesNewRomanPSMT-32"/>
       <use xlink:href="#TimesNewRomanPSMT-30" x="50"/>
       <use xlink:href="#TimesNewRomanPSMT-30" x="100"/>
       <use xlink:href="#TimesNewRomanPSMT-30" x="150"/>
       <use xlink:href="#TimesNewRomanPSMT-30" x="200"/>
      </g>
     </g>
    </g>
    <g id="ytick_6">
     <g id="line2d_19">
      <g>
       <use xlink:href="#mb04f25442f" x="58.324219" y="136.10625" style="stroke: #000000; stroke-width: 0.8"/>
      </g>
     </g>
     <g id="line2d_20">
      <g>
       <use xlink:href="#md7aa1a32b7" x="616.324219" y="136.10625" style="stroke: #000000; stroke-width: 0.8"/>
      </g>
     </g>
     <g id="text_11">
      <!-- 25000 -->
      <g transform="translate(24.824219 140.2725) scale(0.12 -0.12)">
       <use xlink:href="#TimesNewRomanPSMT-32"/>
       <use xlink:href="#TimesNewRomanPSMT-35" x="50"/>
       <use xlink:href="#TimesNewRomanPSMT-30" x="100"/>
       <use xlink:href="#TimesNewRomanPSMT-30" x="150"/>
       <use xlink:href="#TimesNewRomanPSMT-30" x="200"/>
      </g>
     </g>
    </g>
    <g id="ytick_7">
     <g id="line2d_21">
      <g>
       <use xlink:href="#mb04f25442f" x="58.324219" y="94.52625" style="stroke: #000000; stroke-width: 0.8"/>
      </g>
     </g>
     <g id="line2d_22">
      <g>
       <use xlink:href="#md7aa1a32b7" x="616.324219" y="94.52625" style="stroke: #000000; stroke-width: 0.8"/>
      </g>
     </g>
     <g id="text_12">
      <!-- 30000 -->
      <g transform="translate(24.824219 98.6925) scale(0.12 -0.12)">
       <defs>
        <path id="TimesNewRomanPSMT-33" d="M 325 3431 
Q 506 3859 782 4092 
Q 1059 4325 1472 4325 
Q 1981 4325 2253 3994 
Q 2459 3747 2459 3466 
Q 2459 3003 1878 2509 
Q 2269 2356 2469 2072 
Q 2669 1788 2669 1403 
Q 2669 853 2319 450 
Q 1863 -75 997 -75 
Q 569 -75 414 31 
Q 259 138 259 259 
Q 259 350 332 419 
Q 406 488 509 488 
Q 588 488 669 463 
Q 722 447 909 348 
Q 1097 250 1169 231 
Q 1284 197 1416 197 
Q 1734 197 1970 444 
Q 2206 691 2206 1028 
Q 2206 1275 2097 1509 
Q 2016 1684 1919 1775 
Q 1784 1900 1550 2001 
Q 1316 2103 1072 2103 
L 972 2103 
L 972 2197 
Q 1219 2228 1467 2375 
Q 1716 2522 1828 2728 
Q 1941 2934 1941 3181 
Q 1941 3503 1739 3701 
Q 1538 3900 1238 3900 
Q 753 3900 428 3381 
L 325 3431 
z
" transform="scale(0.015625)"/>
       </defs>
       <use xlink:href="#TimesNewRomanPSMT-33"/>
       <use xlink:href="#TimesNewRomanPSMT-30" x="50"/>
       <use xlink:href="#TimesNewRomanPSMT-30" x="100"/>
       <use xlink:href="#TimesNewRomanPSMT-30" x="150"/>
       <use xlink:href="#TimesNewRomanPSMT-30" x="200"/>
      </g>
     </g>
    </g>
    <g id="ytick_8">
     <g id="line2d_23">
      <g>
       <use xlink:href="#mb04f25442f" x="58.324219" y="52.94625" style="stroke: #000000; stroke-width: 0.8"/>
      </g>
     </g>
     <g id="line2d_24">
      <g>
       <use xlink:href="#md7aa1a32b7" x="616.324219" y="52.94625" style="stroke: #000000; stroke-width: 0.8"/>
      </g>
     </g>
     <g id="text_13">
      <!-- 35000 -->
      <g transform="translate(24.824219 57.1125) scale(0.12 -0.12)">
       <use xlink:href="#TimesNewRomanPSMT-33"/>
       <use xlink:href="#TimesNewRomanPSMT-35" x="50"/>
       <use xlink:href="#TimesNewRomanPSMT-30" x="100"/>
       <use xlink:href="#TimesNewRomanPSMT-30" x="150"/>
       <use xlink:href="#TimesNewRomanPSMT-30" x="200"/>
      </g>
     </g>
    </g>
    <g id="ytick_9">
     <g id="line2d_25">
      <g>
       <use xlink:href="#mb04f25442f" x="58.324219" y="11.36625" style="stroke: #000000; stroke-width: 0.8"/>
      </g>
     </g>
     <g id="line2d_26">
      <g>
       <use xlink:href="#md7aa1a32b7" x="616.324219" y="11.36625" style="stroke: #000000; stroke-width: 0.8"/>
      </g>
     </g>
     <g id="text_14">
      <!-- 40000 -->
      <g transform="translate(24.824219 15.5325) scale(0.12 -0.12)">
       <defs>
        <path id="TimesNewRomanPSMT-34" d="M 2978 1563 
L 2978 1119 
L 2409 1119 
L 2409 0 
L 1894 0 
L 1894 1119 
L 100 1119 
L 100 1519 
L 2066 4325 
L 2409 4325 
L 2409 1563 
L 2978 1563 
z
M 1894 1563 
L 1894 3666 
L 406 1563 
L 1894 1563 
z
" transform="scale(0.015625)"/>
       </defs>
       <use xlink:href="#TimesNewRomanPSMT-34"/>
       <use xlink:href="#TimesNewRomanPSMT-30" x="50"/>
       <use xlink:href="#TimesNewRomanPSMT-30" x="100"/>
       <use xlink:href="#TimesNewRomanPSMT-30" x="150"/>
       <use xlink:href="#TimesNewRomanPSMT-30" x="200"/>
      </g>
     </g>
    </g>
    <g id="text_15">
     <!-- $N_\mathrm{CO_2}$ -->
     <g transform="translate(17.374219 192.53625) rotate(-90) scale(0.15 -0.15)">
      <defs>
       <path id="STIXGeneral-Italic-4e" d="M 4653 4179 
L 4653 4077 
Q 4480 4038 4413 4016 
Q 4346 3994 4266 3882 
Q 4186 3770 4144 3635 
Q 4102 3501 4000 3149 
L 3066 -96 
L 2950 -96 
L 1478 3424 
L 749 723 
Q 691 525 691 378 
Q 691 243 790 182 
Q 890 122 1139 102 
L 1139 0 
L -128 0 
L -128 102 
Q 147 141 262 304 
Q 378 467 550 1075 
L 1299 3731 
Q 1152 4077 749 4077 
L 749 4179 
L 1773 4179 
L 3098 986 
L 3776 3469 
Q 3827 3648 3827 3750 
Q 3827 3923 3740 3987 
Q 3654 4051 3386 4077 
L 3386 4179 
L 4653 4179 
z
" transform="scale(0.015625)"/>
       <path id="STIXGeneral-Regular-43" d="M 3930 838 
L 4051 723 
Q 3482 -90 2304 -90 
Q 1376 -90 794 480 
Q 179 1082 179 2080 
Q 179 3014 755 3661 
Q 1357 4326 2310 4326 
Q 2720 4326 3072 4230 
Q 3475 4115 3514 4115 
Q 3725 4115 3782 4326 
L 3910 4326 
L 3968 2874 
L 3821 2874 
Q 3718 3334 3488 3584 
Q 3034 4070 2458 4070 
Q 1747 4070 1334 3548 
Q 922 3027 922 2182 
Q 922 1152 1382 653 
Q 1811 192 2522 192 
Q 2944 192 3251 339 
Q 3558 486 3930 838 
z
" transform="scale(0.015625)"/>
       <path id="STIXGeneral-Regular-4f" d="M 4403 2118 
Q 4403 1133 3820 521 
Q 3238 -90 2310 -90 
Q 1376 -90 797 524 
Q 218 1139 218 2138 
Q 218 3110 797 3718 
Q 1376 4326 2310 4326 
Q 3245 4326 3824 3702 
Q 4403 3078 4403 2118 
z
M 3674 2157 
Q 3674 2701 3520 3133 
Q 3366 3565 3091 3795 
Q 2733 4096 2304 4096 
Q 1760 4096 1389 3667 
Q 1184 3437 1065 3011 
Q 947 2586 947 2125 
Q 947 960 1523 429 
Q 1837 141 2317 141 
Q 2816 141 3142 448 
Q 3674 960 3674 2157 
z
" transform="scale(0.015625)"/>
       <path id="STIXGeneral-Regular-32" d="M 3034 877 
L 2688 0 
L 186 0 
L 186 77 
L 1325 1286 
Q 1773 1754 1965 2144 
Q 2157 2534 2157 2950 
Q 2157 3379 1920 3616 
Q 1683 3853 1267 3853 
Q 922 3853 720 3673 
Q 518 3494 326 3021 
L 192 3053 
Q 301 3648 630 3987 
Q 960 4326 1523 4326 
Q 2054 4326 2380 4006 
Q 2707 3686 2707 3200 
Q 2707 2477 1888 1613 
L 832 486 
L 2330 486 
Q 2541 486 2665 569 
Q 2790 653 2944 915 
L 3034 877 
z
" transform="scale(0.015625)"/>
      </defs>
      <use xlink:href="#STIXGeneral-Italic-4e" transform="translate(0 0.703125)"/>
      <use xlink:href="#STIXGeneral-Regular-43" transform="translate(66.699997 -12.525) scale(0.7)"/>
      <use xlink:href="#STIXGeneral-Regular-4f" transform="translate(113.389995 -12.525) scale(0.7)"/>
      <use xlink:href="#STIXGeneral-Regular-32" transform="translate(165.032482 -21.975) scale(0.49)"/>
     </g>
    </g>
   </g>
   <g id="patch_3">
    <path d="M 58.324219 344.00625 
L 58.324219 11.36625 
" style="fill: none; stroke: #000000; stroke-width: 0.8; stroke-linejoin: miter; stroke-linecap: square"/>
   </g>
   <g id="patch_4">
    <path d="M 616.324219 344.00625 
L 616.324219 11.36625 
" style="fill: none; stroke: #000000; stroke-width: 0.8; stroke-linejoin: miter; stroke-linecap: square"/>
   </g>
   <g id="patch_5">
    <path d="M 58.324219 344.00625 
L 616.324219 344.00625 
" style="fill: none; stroke: #000000; stroke-width: 0.8; stroke-linejoin: miter; stroke-linecap: square"/>
   </g>
   <g id="patch_6">
    <path d="M 58.324219 11.36625 
L 616.324219 11.36625 
" style="fill: none; stroke: #000000; stroke-width: 0.8; stroke-linejoin: miter; stroke-linecap: square"/>
   </g>
  </g>
 </g>
 <defs>
  <clipPath id="p8ee4b25023">
   <rect x="58.324219" y="11.36625" width="558" height="332.64"/>
  </clipPath>
 </defs>
</svg>
