<svg width="1582" height="909" xmlns="http://www.w3.org/2000/svg" xmlns:xlink="http://www.w3.org/1999/xlink" xml:space="preserve" overflow="hidden"><g transform="translate(-90 -1035)"><path d="M93.5 1774.5C93.5 1683.37 167.373 1609.5 258.5 1609.5 349.627 1609.5 423.5 1683.37 423.5 1774.5 423.5 1865.63 349.627 1939.5 258.5 1939.5 167.373 1939.5 93.5 1865.63 93.5 1774.5Z" stroke="#000000" stroke-width="6.875" stroke-miterlimit="8" fill="#00B0F0" fill-rule="evenodd"/><path d="M691.5 1203.5C691.5 1112.37 765.373 1038.5 856.5 1038.5 947.627 1038.5 1021.5 1112.37 1021.5 1203.5 1021.5 1294.63 947.627 1368.5 856.5 1368.5 765.373 1368.5 691.5 1294.63 691.5 1203.5Z" stroke="#000000" stroke-width="6.875" stroke-miterlimit="8" fill="#00B0F0" fill-rule="evenodd"/><path d="M1338.5 1775.5C1338.5 1684.37 1412.37 1610.5 1503.5 1610.5 1594.63 1610.5 1668.5 1684.37 1668.5 1775.5 1668.5 1866.63 1594.63 1940.5 1503.5 1940.5 1412.37 1940.5 1338.5 1866.63 1338.5 1775.5Z" stroke="#000000" stroke-width="6.875" stroke-miterlimit="8" fill="#00B0F0" fill-rule="evenodd"/><path d="M0 0 364.78 337.096" stroke="#FF0000" stroke-width="27.5" stroke-miterlimit="8" fill="none" fill-rule="evenodd" transform="matrix(-1 0 0 1 739.78 1320)"/><path d="M973 1320 1386.11 1658.09" stroke="#FF0000" stroke-width="27.5" stroke-miterlimit="8" fill="none" fill-rule="evenodd"/><path d="M1070.87 1461.91 1058.48 1472.3 1044.73 1482.13 1030.68 1491.14 1016.3 1499.4 1001.6 1506.88 986.636 1513.61 971.42 1519.57 955.986 1524.76 940.364 1529.19 924.584 1532.86 908.676 1535.75 892.668 1537.88 876.592 1539.25 860.475 1539.85 844.349 1539.68 828.241 1538.74 812.183 1537.03 796.203 1534.56 780.331 1531.32 764.597 1527.3 749.031 1522.52 733.662 1516.97 718.52 1510.64 703.635 1503.55 689.037 1495.68 674.756 1487.04 660.747 1477.58 648.08 1467.53 656.629 1456.76 669.089 1466.65 668.662 1466.33 682.31 1475.55 682.02 1475.37 696.008 1483.83 695.711 1483.66 710.008 1491.36 709.705 1491.21 724.284 1498.16 723.975 1498.02 738.806 1504.22 738.492 1504.09 753.546 1509.53 753.229 1509.43 768.477 1514.11 768.157 1514.02 783.569 1517.95 783.246 1517.88 798.794 1521.06 798.47 1521 814.125 1523.42 813.799 1523.38 829.531 1525.05 829.204 1525.02 844.984 1525.94 844.657 1525.93 860.456 1526.1 860.129 1526.1 875.918 1525.51 875.591 1525.53 891.342 1524.2 891.016 1524.23 906.698 1522.15 906.373 1522.2 921.958 1519.36 921.635 1519.42 937.093 1515.84 936.772 1515.92 952.075 1511.58 951.757 1511.68 966.875 1506.59 966.561 1506.7 981.465 1500.87 981.155 1501 995.816 1494.41 995.511 1494.56 1009.9 1487.22 1009.6 1487.38 1023.69 1479.3 1023.4 1479.48 1037.15 1470.65 1036.87 1470.84 1050.27 1461.26 1049.85 1461.59 1062.04 1451.37ZM1047.55 1445.91 1092.01 1433.65 1075.14 1476.57ZM644.203 1482.3 626.199 1439.84 670.969 1450.91Z"/><path d="M844.765 1608.21C843.495 1614.07 842.86 1619 842.86 1623 842.86 1626.03 843.319 1628.25 844.238 1629.67 845.156 1631.09 846.642 1631.8 848.696 1631.8 851.722 1631.8 854.593 1629.76 857.308 1625.7 860.023 1621.63 862.326 1615.8 864.218 1608.21ZM861.381 1580.89C858.22 1580.89 855.295 1582.89 852.607 1586.89 849.918 1590.89 847.629 1596.62 845.737 1604.08L865.15 1604.08C866.42 1598.37 867.055 1593.47 867.055 1589.36 867.055 1586.53 866.595 1584.41 865.677 1583 864.758 1581.6 863.326 1580.89 861.381 1580.89ZM861.867 1577.61C869.702 1577.61 873.62 1582.58 873.62 1592.53 873.62 1595.33 873.303 1598.69 872.668 1602.6 872.033 1606.5 871.026 1610.48 869.648 1614.53 868.271 1618.58 866.528 1622.17 864.42 1625.29 862.313 1628.41 859.881 1630.82 857.125 1632.53 854.37 1634.23 851.398 1635.08 848.209 1635.08 844.184 1635.08 841.185 1633.85 839.212 1631.39 837.24 1628.93 836.254 1625.24 836.254 1620.33 836.254 1617.65 836.551 1614.36 837.146 1610.44 837.74 1606.52 838.719 1602.52 840.084 1598.42 841.448 1594.33 843.204 1590.69 845.352 1587.52 847.5 1584.35 849.972 1581.9 852.769 1580.18 855.565 1578.47 858.598 1577.61 861.867 1577.61Z" fill-rule="evenodd"/><text fill="#000000" fill-opacity="0" font-family="Arial,Arial_MSFontService,sans-serif" font-size="57.4678" x="836.254" y="1627.9">𝜃</text></g></svg>