<?xml version="1.0" encoding="utf-8" standalone="no"?>
<!DOCTYPE svg PUBLIC "-//W3C//DTD SVG 1.1//EN"
  "http://www.w3.org/Graphics/SVG/1.1/DTD/svg11.dtd">
<svg xmlns:xlink="http://www.w3.org/1999/xlink" width="431.644219pt" height="316.729969pt" viewBox="0 0 431.644219 316.729969" xmlns="http://www.w3.org/2000/svg" version="1.1">
 <metadata>
  <rdf:RDF xmlns:dc="http://purl.org/dc/elements/1.1/" xmlns:cc="http://creativecommons.org/ns#" xmlns:rdf="http://www.w3.org/1999/02/22-rdf-syntax-ns#">
   <cc:Work>
    <dc:type rdf:resource="http://purl.org/dc/dcmitype/StillImage"/>
    <dc:date>2025-01-26T19:15:27.635805</dc:date>
    <dc:format>image/svg+xml</dc:format>
    <dc:creator>
     <cc:Agent>
      <dc:title>Matplotlib v3.9.1, https://matplotlib.org/</dc:title>
     </cc:Agent>
    </dc:creator>
   </cc:Work>
  </rdf:RDF>
 </metadata>
 <defs>
  <style type="text/css">*{stroke-linejoin: round; stroke-linecap: butt}</style>
 </defs>
 <g id="figure_1">
  <g id="patch_1">
   <path d="M 0 316.729969 
L 431.644219 316.729969 
L 431.644219 0 
L 0 0 
z
" style="fill: #ffffff"/>
  </g>
  <g id="axes_1">
   <g id="patch_2">
    <path d="M 58.324219 277.47825 
L 415.444219 277.47825 
L 415.444219 11.36625 
L 58.324219 11.36625 
z
" style="fill: #ffffff"/>
   </g>
   <g id="PolyCollection_1">
    <defs>
     <path id="m6b93e701b6" d="M 34.845236 -39.262363 
L 34.845236 -39.251719 
L 35.693734 -39.251719 
L 36.542232 -39.251719 
L 37.39073 -39.251719 
L 38.239228 -39.251719 
L 39.087726 -39.251719 
L 39.936224 -39.251719 
L 40.784722 -39.251719 
L 41.63322 -39.251719 
L 42.481718 -39.251719 
L 43.330216 -39.251719 
L 44.178714 -39.251719 
L 45.027212 -39.251719 
L 45.87571 -39.251719 
L 46.724208 -39.251719 
L 47.572706 -39.251719 
L 48.421204 -39.251719 
L 49.269702 -39.251719 
L 50.1182 -39.251719 
L 50.966698 -39.251719 
L 51.815196 -39.251719 
L 52.663694 -39.251719 
L 53.512192 -39.251719 
L 54.36069 -39.251719 
L 55.209189 -39.251719 
L 56.057687 -39.251719 
L 56.906185 -39.251719 
L 57.754683 -39.251719 
L 58.603181 -39.251719 
L 59.451679 -39.251719 
L 60.300177 -39.251719 
L 61.148675 -39.251719 
L 61.997173 -39.251719 
L 62.845671 -39.251719 
L 63.694169 -39.251719 
L 64.542667 -39.251719 
L 65.391165 -39.251719 
L 66.239663 -39.251719 
L 67.088161 -39.251719 
L 67.936659 -39.251719 
L 68.785157 -39.251719 
L 69.633655 -39.251719 
L 70.482153 -39.251719 
L 71.330651 -39.251719 
L 72.179149 -39.251719 
L 73.027647 -39.251719 
L 73.876145 -39.251719 
L 74.724643 -39.251719 
L 75.573141 -39.251719 
L 76.421639 -39.251719 
L 77.270137 -39.251719 
L 78.118635 -39.251719 
L 78.967133 -39.251719 
L 79.815631 -39.251719 
L 80.664129 -39.251719 
L 81.512627 -39.251719 
L 82.361126 -39.251719 
L 83.209624 -39.251719 
L 84.058122 -39.251719 
L 84.90662 -39.251719 
L 85.755118 -39.251719 
L 86.603616 -39.251719 
L 87.452114 -39.251719 
L 88.300612 -39.251719 
L 89.14911 -39.251719 
L 89.997608 -39.251719 
L 90.846106 -39.251719 
L 91.694604 -39.251719 
L 92.543102 -39.251719 
L 93.3916 -39.251719 
L 94.240098 -39.251719 
L 95.088596 -39.251719 
L 95.937094 -39.251719 
L 96.785592 -39.251719 
L 97.63409 -39.251719 
L 98.482588 -39.251719 
L 99.331086 -39.251719 
L 100.179584 -39.251719 
L 101.028082 -39.251719 
L 101.87658 -39.251719 
L 102.725078 -39.251719 
L 103.573576 -39.251719 
L 104.422074 -39.251719 
L 105.270572 -39.251719 
L 106.11907 -39.251719 
L 106.967568 -39.251719 
L 107.816066 -39.251719 
L 108.664564 -39.251719 
L 109.513063 -39.251719 
L 110.361561 -39.251719 
L 111.210059 -39.251719 
L 112.058557 -39.251719 
L 112.907055 -39.251719 
L 113.755553 -39.251719 
L 114.604051 -39.251719 
L 115.452549 -39.251719 
L 116.301047 -39.251719 
L 117.149545 -39.251719 
L 117.998043 -39.251719 
L 118.846541 -39.251719 
L 119.695039 -39.251719 
L 120.543537 -39.251719 
L 121.392035 -39.251719 
L 122.240533 -39.251719 
L 123.089031 -39.251719 
L 123.937529 -39.251719 
L 124.786027 -39.251719 
L 125.634525 -39.251719 
L 126.483023 -39.251719 
L 127.331521 -39.251719 
L 128.180019 -39.251719 
L 129.028517 -39.251719 
L 129.877015 -39.251719 
L 130.725513 -39.251719 
L 131.574011 -39.251719 
L 132.422509 -39.251719 
L 133.271007 -39.251719 
L 134.119505 -39.251719 
L 134.968003 -39.251719 
L 135.816501 -39.251719 
L 136.665 -39.251719 
L 137.513498 -39.251719 
L 138.361996 -39.251719 
L 139.210494 -39.251719 
L 140.058992 -39.251719 
L 140.90749 -39.251719 
L 141.755988 -39.251719 
L 142.604486 -39.251719 
L 143.452984 -39.251719 
L 144.301482 -39.251719 
L 145.14998 -39.251719 
L 145.998478 -39.251719 
L 146.846976 -39.251719 
L 147.695474 -39.251719 
L 148.543972 -39.251719 
L 149.39247 -39.251719 
L 150.240968 -39.251719 
L 151.089466 -39.251719 
L 151.937964 -39.251719 
L 152.786462 -39.251719 
L 153.63496 -39.251719 
L 154.483458 -39.251719 
L 155.331956 -39.251719 
L 156.180454 -39.251719 
L 157.028952 -39.251719 
L 157.87745 -39.251719 
L 158.725948 -39.251719 
L 159.574446 -39.251719 
L 160.422944 -39.251719 
L 161.271442 -39.251719 
L 162.11994 -39.251719 
L 162.968438 -39.251719 
L 163.816937 -39.251719 
L 164.665435 -39.251719 
L 165.513933 -39.251719 
L 166.362431 -39.251719 
L 167.210929 -39.251719 
L 168.059427 -39.251719 
L 168.907925 -39.251719 
L 169.756423 -39.251719 
L 170.604921 -39.251719 
L 171.453419 -39.251719 
L 172.301917 -39.251719 
L 173.150415 -39.251719 
L 173.998913 -39.251719 
L 174.847411 -39.251719 
L 175.695909 -39.251719 
L 176.544407 -39.251719 
L 177.392905 -39.251719 
L 178.241403 -39.251719 
L 179.089901 -39.251719 
L 179.938399 -39.251719 
L 180.786897 -39.251719 
L 181.635395 -39.251719 
L 182.483893 -39.251719 
L 183.332391 -39.251719 
L 184.180889 -39.251719 
L 185.029387 -39.251719 
L 185.877885 -39.251719 
L 186.726383 -39.251719 
L 187.574881 -39.251719 
L 188.423379 -39.251719 
L 189.271877 -39.251719 
L 190.120375 -39.251719 
L 190.968874 -39.251719 
L 191.817372 -39.251719 
L 192.66587 -39.251719 
L 193.514368 -39.251719 
L 194.362866 -39.251719 
L 195.211364 -39.251719 
L 196.059862 -39.251719 
L 196.90836 -39.251719 
L 197.756858 -39.251719 
L 198.605356 -39.251719 
L 199.453854 -39.251719 
L 200.302352 -39.251719 
L 201.15085 -39.251719 
L 201.999348 -39.251719 
L 202.847846 -39.251719 
L 203.696344 -39.251719 
L 204.544842 -39.251719 
L 205.39334 -39.251719 
L 206.241838 -39.251719 
L 207.090336 -39.251719 
L 207.938834 -39.251719 
L 208.787332 -39.251719 
L 209.63583 -39.251719 
L 210.484328 -39.251719 
L 211.332826 -39.251719 
L 212.181324 -39.251719 
L 213.029822 -39.251719 
L 213.87832 -39.251719 
L 214.726818 -39.251719 
L 215.575316 -39.251719 
L 216.423814 -39.251719 
L 217.272312 -39.251719 
L 218.120811 -39.251719 
L 218.969309 -39.251719 
L 219.817807 -39.251719 
L 220.666305 -39.251719 
L 221.514803 -39.251719 
L 222.363301 -39.251719 
L 223.211799 -39.251719 
L 224.060297 -39.251719 
L 224.908795 -39.251719 
L 225.757293 -39.251719 
L 226.605791 -39.251719 
L 227.454289 -39.251719 
L 228.302787 -39.251719 
L 229.151285 -39.251719 
L 229.999783 -39.251719 
L 230.848281 -39.251719 
L 231.696779 -39.251719 
L 232.545277 -39.251719 
L 233.393775 -39.251719 
L 234.242273 -39.251719 
L 235.090771 -39.251719 
L 235.939269 -39.251719 
L 236.787767 -39.251719 
L 237.636265 -39.251719 
L 238.484763 -39.251719 
L 239.333261 -39.251719 
L 240.181759 -39.251719 
L 241.030257 -39.251719 
L 241.878755 -39.251719 
L 242.727253 -39.251719 
L 243.575751 -39.251719 
L 244.424249 -39.251719 
L 245.272747 -39.251719 
L 246.121246 -39.251719 
L 246.969744 -39.251719 
L 247.818242 -39.251719 
L 248.66674 -39.251719 
L 249.515238 -39.251719 
L 250.363736 -39.251719 
L 251.212234 -39.251719 
L 252.060732 -39.251719 
L 252.90923 -39.251719 
L 253.757728 -39.251719 
L 254.606226 -39.251719 
L 255.454724 -39.251719 
L 256.303222 -39.251719 
L 257.15172 -39.251719 
L 258.000218 -39.251719 
L 258.848716 -39.251719 
L 259.697214 -39.251719 
L 260.545712 -39.251719 
L 261.39421 -39.251719 
L 262.242708 -39.251719 
L 263.091206 -39.251719 
L 263.939704 -39.251719 
L 264.788202 -39.251719 
L 265.6367 -39.251719 
L 266.485198 -39.251719 
L 267.333696 -39.251719 
L 268.182194 -39.251719 
L 269.030692 -39.251719 
L 269.87919 -39.251719 
L 270.727688 -39.251719 
L 271.576186 -39.251719 
L 272.424684 -39.251719 
L 273.273183 -39.251719 
L 274.121681 -39.251719 
L 274.970179 -39.251719 
L 275.818677 -39.251719 
L 276.667175 -39.251719 
L 277.515673 -39.251719 
L 278.364171 -39.251719 
L 279.212669 -39.251719 
L 280.061167 -39.251719 
L 280.909665 -39.251719 
L 281.758163 -39.251719 
L 282.606661 -39.251719 
L 283.455159 -39.251719 
L 284.303657 -39.251719 
L 285.152155 -39.251719 
L 286.000653 -39.251719 
L 286.849151 -39.251719 
L 287.697649 -39.251719 
L 288.546147 -39.251719 
L 289.394645 -39.251719 
L 290.243143 -39.251719 
L 291.091641 -39.251719 
L 291.940139 -39.251719 
L 292.788637 -39.251719 
L 293.637135 -39.251719 
L 294.485633 -39.251719 
L 295.334131 -39.251719 
L 296.182629 -39.251719 
L 297.031127 -39.251719 
L 297.879625 -39.251719 
L 298.728123 -39.251719 
L 299.576621 -39.251719 
L 300.42512 -39.251719 
L 301.273618 -39.251719 
L 302.122116 -39.251719 
L 302.970614 -39.251719 
L 303.819112 -39.251719 
L 304.66761 -39.251719 
L 305.516108 -39.251719 
L 306.364606 -39.251719 
L 307.213104 -39.251719 
L 308.061602 -39.251719 
L 308.9101 -39.251719 
L 309.758598 -39.251719 
L 310.607096 -39.251719 
L 311.455594 -39.251719 
L 312.304092 -39.251719 
L 313.15259 -39.251719 
L 314.001088 -39.251719 
L 314.849586 -39.251719 
L 315.698084 -39.251719 
L 316.546582 -39.251719 
L 317.39508 -39.251719 
L 318.243578 -39.251719 
L 319.092076 -39.251719 
L 319.940574 -39.251719 
L 320.789072 -39.251719 
L 321.63757 -39.251719 
L 322.486068 -39.251719 
L 323.334566 -39.251719 
L 324.183064 -39.251719 
L 325.031562 -39.251719 
L 325.88006 -39.251719 
L 326.728558 -39.251719 
L 327.577057 -39.251719 
L 328.425555 -39.251719 
L 329.274053 -39.251719 
L 330.122551 -39.251719 
L 330.971049 -39.251719 
L 331.819547 -39.251719 
L 332.668045 -39.251719 
L 333.516543 -39.251719 
L 334.365041 -39.251719 
L 335.213539 -39.251719 
L 336.062037 -39.251719 
L 336.910535 -39.251719 
L 337.759033 -39.251719 
L 338.607531 -39.251719 
L 339.456029 -39.251719 
L 340.304527 -39.251719 
L 341.153025 -39.251719 
L 342.001523 -39.251719 
L 342.850021 -39.251719 
L 343.698519 -39.251719 
L 344.547017 -39.251719 
L 345.395515 -39.251719 
L 346.244013 -39.251719 
L 347.092511 -39.251719 
L 347.941009 -39.251719 
L 348.789507 -39.251719 
L 349.638005 -39.251719 
L 350.486503 -39.251719 
L 351.335001 -39.251719 
L 352.183499 -39.251719 
L 353.031997 -39.251719 
L 353.880495 -39.251719 
L 354.728994 -39.251719 
L 355.577492 -39.251719 
L 356.42599 -39.251719 
L 357.274488 -39.251719 
L 358.122986 -39.251719 
L 358.971484 -39.251719 
L 359.819982 -39.251719 
L 360.66848 -39.251719 
L 361.516978 -39.251719 
L 362.365476 -39.251719 
L 363.213974 -39.251719 
L 364.062472 -39.251719 
L 364.91097 -39.251719 
L 365.759468 -39.251719 
L 366.607966 -39.251719 
L 367.456464 -39.251719 
L 368.304962 -39.251719 
L 369.15346 -39.251719 
L 370.001958 -39.251719 
L 370.850456 -39.251719 
L 371.698954 -39.251719 
L 372.547452 -39.251719 
L 373.39595 -39.251719 
L 374.244448 -39.251719 
L 375.092946 -39.251719 
L 375.941444 -39.251719 
L 376.789942 -39.251719 
L 377.63844 -39.251719 
L 378.486938 -39.251719 
L 379.335436 -39.251719 
L 380.183934 -39.251719 
L 381.032432 -39.251719 
L 381.880931 -39.251719 
L 382.729429 -39.251719 
L 383.577927 -39.251719 
L 384.426425 -39.251719 
L 385.274923 -39.251719 
L 386.123421 -39.251719 
L 386.971919 -39.251719 
L 387.820417 -39.251719 
L 388.668915 -39.251719 
L 389.517413 -39.251719 
L 390.365911 -39.251719 
L 391.214409 -39.251719 
L 392.062907 -39.251719 
L 392.911405 -39.251719 
L 393.759903 -39.251719 
L 394.608401 -39.251719 
L 395.456899 -39.251719 
L 396.305397 -39.251719 
L 397.153895 -39.251719 
L 398.002393 -39.251719 
L 398.850891 -39.251719 
L 399.699389 -39.251719 
L 400.547887 -39.251719 
L 401.396385 -39.251719 
L 402.244883 -39.251719 
L 403.093381 -39.251719 
L 403.941879 -39.251719 
L 404.790377 -39.251719 
L 405.638875 -39.251719 
L 406.487373 -39.251719 
L 407.335871 -39.251719 
L 408.184369 -39.251719 
L 409.032868 -39.251719 
L 409.881366 -39.251719 
L 410.729864 -39.251719 
L 411.578362 -39.251719 
L 412.42686 -39.251719 
L 413.275358 -39.251719 
L 414.123856 -39.251719 
L 414.972354 -39.251719 
L 414.972354 -41.98735 
L 414.972354 -41.98735 
L 414.123856 -46.937033 
L 413.275358 -51.354493 
L 412.42686 -56.8364 
L 411.578362 -62.414107 
L 410.729864 -65.266828 
L 409.881366 -72.611519 
L 409.032868 -76.188064 
L 408.184369 -79.934921 
L 407.335871 -86.055497 
L 406.487373 -90.696491 
L 405.638875 -93.591789 
L 404.790377 -100.021055 
L 403.941879 -102.724753 
L 403.093381 -110.165245 
L 402.244883 -114.188858 
L 401.396385 -118.765984 
L 400.547887 -123.449556 
L 399.699389 -129.442398 
L 398.850891 -131.869339 
L 398.002393 -137.681225 
L 397.153895 -141.885795 
L 396.305397 -146.037142 
L 395.456899 -151.359382 
L 394.608401 -151.625494 
L 393.759903 -160.832969 
L 392.911405 -164.164692 
L 392.062907 -164.739493 
L 391.214409 -167.783815 
L 390.365911 -176.608089 
L 389.517413 -177.491581 
L 388.668915 -185.208829 
L 387.820417 -188.593773 
L 386.971919 -187.795437 
L 386.123421 -196.491977 
L 385.274923 -199.695966 
L 384.426425 -197.652226 
L 383.577927 -207.913504 
L 382.729429 -208.562818 
L 381.880931 -214.108592 
L 381.032432 -218.515406 
L 380.183934 -215.290129 
L 379.335436 -224.79565 
L 378.486938 -226.307166 
L 377.63844 -223.709913 
L 376.789942 -235.003706 
L 375.941444 -237.239047 
L 375.092946 -238.335428 
L 374.244448 -240.932681 
L 373.39595 -237.388069 
L 372.547452 -246.499744 
L 371.698954 -250.438202 
L 370.850456 -245.648186 
L 370.001958 -255.611419 
L 369.15346 -255.536908 
L 368.304962 -254.206348 
L 367.456464 -256.026554 
L 366.607966 -262.753865 
L 365.759468 -257.271958 
L 364.91097 -266.862635 
L 364.062472 -260.688836 
L 363.213974 -268.746708 
L 362.365476 -270.684003 
L 361.516978 -265.042429 
L 360.66848 -272.142297 
L 359.819982 -276.251066 
L 358.971484 -270.481758 
L 358.122986 -280.966571 
L 357.274488 -279.593433 
L 356.42599 -273.696391 
L 355.577492 -285.213718 
L 354.728994 -282.935799 
L 353.880495 -280.455636 
L 353.031997 -284.617627 
L 352.183499 -277.613559 
L 351.335001 -283.829936 
L 350.486503 -286.19301 
L 349.638005 -281.115593 
L 348.789507 -288.343195 
L 347.941009 -288.311262 
L 347.092511 -279.785033 
L 346.244013 -288.162239 
L 345.395515 -286.980702 
L 344.547017 -278.177717 
L 343.698519 -279.827611 
L 342.850021 -281.232683 
L 342.001523 -284.202493 
L 341.153025 -284.479249 
L 340.304527 -276.059465 
L 339.456029 -283.191267 
L 338.607531 -283.617046 
L 337.759033 -276.974891 
L 336.910535 -282.808066 
L 336.062037 -280.274679 
L 335.213539 -273.951858 
L 334.365041 -278.51834 
L 333.516543 -279.582788 
L 332.668045 -271.109782 
L 331.819547 -276.559756 
L 330.971049 -270.119845 
L 330.122551 -273.366412 
L 329.274053 -274.611816 
L 328.425555 -263.520268 
L 327.577057 -268.203839 
L 326.728558 -269.034109 
L 325.88006 -260.752703 
L 325.031562 -266.128165 
L 324.183064 -264.276026 
L 323.334566 -253.109966 
L 322.486068 -258.123517 
L 321.63757 -252.673543 
L 320.789072 -256.441689 
L 319.940574 -248.671218 
L 319.092076 -247.51097 
L 318.243578 -250.438202 
L 317.39508 -249.661155 
L 316.546582 -241.943907 
L 315.698084 -245.307563 
L 314.849586 -244.360204 
L 314.001088 -235.63173 
L 313.15259 -241.241371 
L 312.304092 -234.482126 
L 311.455594 -234.024414 
L 310.607096 -232.385164 
L 309.758598 -225.711075 
L 308.9101 -230.234979 
L 308.061602 -225.987831 
L 307.213104 -217.844804 
L 306.364606 -223.65669 
L 305.516108 -219.696944 
L 304.66761 -213.608301 
L 303.819112 -218.270583 
L 302.970614 -209.691133 
L 302.122116 -205.880409 
L 301.273618 -209.435665 
L 300.42512 -201.697128 
L 299.576621 -205.050139 
L 298.728123 -203.283156 
L 297.879625 -195.235929 
L 297.031127 -197.471269 
L 296.182629 -192.202252 
L 295.334131 -188.976974 
L 294.485633 -189.8924 
L 293.637135 -188.615062 
L 292.788637 -183.2396 
L 291.940139 -183.580223 
L 291.091641 -176.970001 
L 290.243143 -177.629959 
L 289.394645 -177.353202 
L 288.546147 -172.190629 
L 287.697649 -172.882521 
L 286.849151 -169.965933 
L 286.000653 -164.909805 
L 285.152155 -165.814586 
L 284.303657 -165.42074 
L 283.455159 -158.693429 
L 282.606661 -160.481701 
L 281.758163 -153.786324 
L 280.909665 -156.713556 
L 280.061167 -152.817676 
L 279.212669 -147.31448 
L 278.364171 -147.740259 
L 277.515673 -147.708325 
L 276.667175 -139.714321 
L 275.818677 -142.39673 
L 274.970179 -140.917147 
L 274.121681 -134.690126 
L 273.273183 -134.466592 
L 272.424684 -132.891209 
L 271.576186 -127.600903 
L 270.727688 -131.464849 
L 269.87919 -127.66477 
L 269.030692 -126.43001 
L 268.182194 -124.801405 
L 267.333696 -120.224278 
L 266.485198 -120.532968 
L 265.6367 -119.819788 
L 264.788202 -116.488066 
L 263.939704 -116.009064 
L 263.091206 -113.667278 
L 262.242708 -111.144537 
L 261.39421 -111.400004 
L 260.545712 -105.620052 
L 259.697214 -106.663211 
L 258.848716 -106.609988 
L 258.000218 -103.299555 
L 257.15172 -102.107373 
L 256.303222 -101.585794 
L 255.454724 -97.306713 
L 254.606226 -98.679851 
L 253.757728 -97.242846 
L 252.90923 -92.516697 
L 252.060732 -93.943057 
L 251.212234 -92.601853 
L 250.363736 -89.38722 
L 249.515238 -90.430379 
L 248.66674 -85.736163 
L 247.818242 -86.992212 
L 246.969744 -85.906475 
L 246.121246 -82.947309 
L 245.272747 -83.394377 
L 244.424249 -82.606686 
L 243.575751 -79.924277 
L 242.727253 -79.711387 
L 241.878755 -78.43405 
L 241.030257 -77.539913 
L 240.181759 -76.422243 
L 239.333261 -75.059749 
L 238.484763 -74.154969 
L 237.636265 -73.707901 
L 236.787767 -71.238381 
L 235.939269 -70.386823 
L 235.090771 -71.738672 
L 234.242273 -69.92911 
L 233.393775 -67.959881 
L 232.545277 -67.853437 
L 231.696779 -66.938011 
L 230.848281 -66.831566 
L 229.999783 -65.511651 
L 229.151285 -64.574937 
L 228.302787 -64.223669 
L 227.454289 -63.063421 
L 226.605791 -63.223088 
L 225.757293 -62.211862 
L 224.908795 -60.806791 
L 224.060297 -61.083547 
L 223.211799 -60.498101 
L 222.363301 -58.465005 
L 221.514803 -59.093029 
L 220.666305 -57.815692 
L 219.817807 -56.900267 
L 218.969309 -57.049289 
L 218.120811 -56.293531 
L 217.272312 -55.931619 
L 216.423814 -55.250372 
L 215.575316 -55.154572 
L 214.726818 -53.749501 
L 213.87832 -54.57977 
L 213.029822 -53.451455 
L 212.181324 -53.110832 
L 211.332826 -52.22734 
L 210.484328 -51.91865 
L 209.63583 -51.503515 
L 208.787332 -50.790335 
L 207.938834 -51.045803 
L 207.090336 -50.321978 
L 206.241838 -50.06651 
L 205.39334 -49.757821 
L 204.544842 -49.555575 
L 203.696344 -48.682728 
L 202.847846 -48.533705 
L 201.999348 -48.586928 
L 201.15085 -48.150504 
L 200.302352 -47.756658 
L 199.453854 -47.171212 
L 198.605356 -46.862522 
L 197.756858 -47.288301 
L 196.90836 -46.117408 
L 196.059862 -46.447387 
L 195.211364 -46.032253 
L 194.362866 -45.936452 
L 193.514368 -45.116827 
L 192.66587 -45.702274 
L 191.817372 -44.935871 
L 190.968874 -44.712337 
L 190.120375 -45.138116 
L 189.271877 -44.531381 
L 188.423379 -44.701693 
L 187.574881 -43.945934 
L 186.726383 -44.212046 
L 185.877885 -44.094957 
L 185.029387 -43.275332 
L 184.180889 -43.520155 
L 183.332391 -43.733045 
L 182.483893 -42.860197 
L 181.635395 -43.243399 
L 180.786897 -42.945353 
L 179.938399 -42.519574 
L 179.089901 -42.423774 
L 178.241403 -42.455707 
L 177.392905 -42.423774 
L 176.544407 -42.264107 
L 175.695909 -41.944772 
L 174.847411 -42.210884 
L 173.998913 -42.232173 
L 173.150415 -41.67866 
L 172.301917 -42.08315 
L 171.453419 -41.550926 
L 170.604921 -41.518993 
L 169.756423 -41.67866 
L 168.907925 -41.476415 
L 168.059427 -40.997413 
L 167.210929 -41.252881 
L 166.362431 -40.848391 
L 165.513933 -40.901613 
L 164.665435 -41.125147 
L 163.816937 -40.859035 
L 162.968438 -40.720657 
L 162.11994 -40.763235 
L 161.271442 -40.65679 
L 160.422944 -40.465189 
L 159.574446 -40.411967 
L 158.725948 -40.369389 
L 157.87745 -40.529056 
L 157.028952 -40.582279 
L 156.180454 -40.2523 
L 155.331956 -40.337456 
L 154.483458 -40.209722 
L 153.63496 -40.262944 
L 152.786462 -40.167144 
L 151.937964 -40.071344 
L 151.089466 -40.103277 
L 150.240968 -40.209722 
L 149.39247 -39.922321 
L 148.543972 -40.145855 
L 147.695474 -39.964899 
L 146.846976 -40.071344 
L 145.998478 -39.932965 
L 145.14998 -39.805232 
L 144.301482 -39.84781 
L 143.452984 -39.826521 
L 142.604486 -39.741365 
L 141.755988 -39.837165 
L 140.90749 -39.783943 
L 140.058992 -39.624276 
L 139.210494 -39.837165 
L 138.361996 -39.688142 
L 137.513498 -39.63492 
L 136.665 -39.592342 
L 135.816501 -39.528475 
L 134.968003 -39.677498 
L 134.119505 -39.581698 
L 133.271007 -39.581698 
L 132.422509 -39.560409 
L 131.574011 -39.560409 
L 130.725513 -39.528475 
L 129.877015 -39.517831 
L 129.028517 -39.464608 
L 128.180019 -39.528475 
L 127.331521 -39.475253 
L 126.483023 -39.560409 
L 125.634525 -39.42203 
L 124.786027 -39.571053 
L 123.937529 -39.464608 
L 123.089031 -39.496542 
L 122.240533 -39.507186 
L 121.392035 -39.443319 
L 120.543537 -39.411386 
L 119.695039 -39.432675 
L 118.846541 -39.390097 
L 117.998043 -39.464608 
L 117.149545 -39.411386 
L 116.301047 -39.411386 
L 115.452549 -39.368808 
L 114.604051 -39.400741 
L 113.755553 -39.390097 
L 112.907055 -39.336875 
L 112.058557 -39.400741 
L 111.210059 -39.294297 
L 110.361561 -39.379453 
L 109.513063 -39.347519 
L 108.664564 -39.347519 
L 107.816066 -39.358164 
L 106.967568 -39.400741 
L 106.11907 -39.294297 
L 105.270572 -39.358164 
L 104.422074 -39.368808 
L 103.573576 -39.379453 
L 102.725078 -39.304941 
L 101.87658 -39.304941 
L 101.028082 -39.315586 
L 100.179584 -39.358164 
L 99.331086 -39.379453 
L 98.482588 -39.336875 
L 97.63409 -39.336875 
L 96.785592 -39.315586 
L 95.937094 -39.336875 
L 95.088596 -39.347519 
L 94.240098 -39.315586 
L 93.3916 -39.304941 
L 92.543102 -39.32623 
L 91.694604 -39.315586 
L 90.846106 -39.32623 
L 89.997608 -39.336875 
L 89.14911 -39.32623 
L 88.300612 -39.273008 
L 87.452114 -39.262363 
L 86.603616 -39.294297 
L 85.755118 -39.294297 
L 84.90662 -39.294297 
L 84.058122 -39.262363 
L 83.209624 -39.273008 
L 82.361126 -39.315586 
L 81.512627 -39.273008 
L 80.664129 -39.315586 
L 79.815631 -39.262363 
L 78.967133 -39.251719 
L 78.118635 -39.251719 
L 77.270137 -39.294297 
L 76.421639 -39.262363 
L 75.573141 -39.294297 
L 74.724643 -39.283652 
L 73.876145 -39.262363 
L 73.027647 -39.262363 
L 72.179149 -39.262363 
L 71.330651 -39.251719 
L 70.482153 -39.273008 
L 69.633655 -39.251719 
L 68.785157 -39.251719 
L 67.936659 -39.273008 
L 67.088161 -39.273008 
L 66.239663 -39.283652 
L 65.391165 -39.251719 
L 64.542667 -39.273008 
L 63.694169 -39.262363 
L 62.845671 -39.283652 
L 61.997173 -39.251719 
L 61.148675 -39.251719 
L 60.300177 -39.273008 
L 59.451679 -39.262363 
L 58.603181 -39.251719 
L 57.754683 -39.251719 
L 56.906185 -39.262363 
L 56.057687 -39.251719 
L 55.209189 -39.251719 
L 54.36069 -39.262363 
L 53.512192 -39.262363 
L 52.663694 -39.262363 
L 51.815196 -39.273008 
L 50.966698 -39.251719 
L 50.1182 -39.273008 
L 49.269702 -39.251719 
L 48.421204 -39.251719 
L 47.572706 -39.251719 
L 46.724208 -39.251719 
L 45.87571 -39.251719 
L 45.027212 -39.262363 
L 44.178714 -39.251719 
L 43.330216 -39.251719 
L 42.481718 -39.251719 
L 41.63322 -39.262363 
L 40.784722 -39.251719 
L 39.936224 -39.251719 
L 39.087726 -39.251719 
L 38.239228 -39.251719 
L 37.39073 -39.251719 
L 36.542232 -39.251719 
L 35.693734 -39.251719 
L 34.845236 -39.262363 
z
"/>
    </defs>
    <g clip-path="url(#pa508dd0b49)">
     <use xlink:href="#m6b93e701b6" x="0" y="316.729969" style="fill: #ffa500; fill-opacity: 0.5"/>
    </g>
   </g>
   <g id="matplotlib.axis_1">
    <g id="xtick_1">
     <g id="line2d_1">
      <defs>
       <path id="mdec3be7479" d="M 0 0 
L 0 -3.5 
" style="stroke: #000000; stroke-width: 0.8"/>
      </defs>
      <g>
       <use xlink:href="#mdec3be7479" x="58.324219" y="277.47825" style="stroke: #000000; stroke-width: 0.8"/>
      </g>
     </g>
     <g id="line2d_2">
      <defs>
       <path id="mb2ba3adb17" d="M 0 0 
L 0 3.5 
" style="stroke: #000000; stroke-width: 0.8"/>
      </defs>
      <g>
       <use xlink:href="#mb2ba3adb17" x="58.324219" y="11.36625" style="stroke: #000000; stroke-width: 0.8"/>
      </g>
     </g>
     <g id="text_1">
      <!-- 165 -->
      <g transform="translate(49.324219 289.31075) scale(0.12 -0.12)">
       <defs>
        <path id="TimesNewRomanPSMT-31" d="M 750 3822 
L 1781 4325 
L 1884 4325 
L 1884 747 
Q 1884 391 1914 303 
Q 1944 216 2037 169 
Q 2131 122 2419 116 
L 2419 0 
L 825 0 
L 825 116 
Q 1125 122 1212 167 
Q 1300 213 1334 289 
Q 1369 366 1369 747 
L 1369 3034 
Q 1369 3497 1338 3628 
Q 1316 3728 1258 3775 
Q 1200 3822 1119 3822 
Q 1003 3822 797 3725 
L 750 3822 
z
" transform="scale(0.015625)"/>
        <path id="TimesNewRomanPSMT-36" d="M 2869 4325 
L 2869 4209 
Q 2456 4169 2195 4045 
Q 1934 3922 1679 3669 
Q 1425 3416 1258 3105 
Q 1091 2794 978 2366 
Q 1428 2675 1881 2675 
Q 2316 2675 2634 2325 
Q 2953 1975 2953 1425 
Q 2953 894 2631 456 
Q 2244 -75 1606 -75 
Q 1172 -75 869 213 
Q 275 772 275 1663 
Q 275 2231 503 2743 
Q 731 3256 1154 3653 
Q 1578 4050 1965 4187 
Q 2353 4325 2688 4325 
L 2869 4325 
z
M 925 2138 
Q 869 1716 869 1456 
Q 869 1156 980 804 
Q 1091 453 1309 247 
Q 1469 100 1697 100 
Q 1969 100 2183 356 
Q 2397 613 2397 1088 
Q 2397 1622 2184 2012 
Q 1972 2403 1581 2403 
Q 1463 2403 1327 2353 
Q 1191 2303 925 2138 
z
" transform="scale(0.015625)"/>
        <path id="TimesNewRomanPSMT-35" d="M 2778 4238 
L 2534 3706 
L 1259 3706 
L 981 3138 
Q 1809 3016 2294 2522 
Q 2709 2097 2709 1522 
Q 2709 1188 2573 903 
Q 2438 619 2231 419 
Q 2025 219 1772 97 
Q 1413 -75 1034 -75 
Q 653 -75 479 54 
Q 306 184 306 341 
Q 306 428 378 495 
Q 450 563 559 563 
Q 641 563 702 538 
Q 763 513 909 409 
Q 1144 247 1384 247 
Q 1750 247 2026 523 
Q 2303 800 2303 1197 
Q 2303 1581 2056 1914 
Q 1809 2247 1375 2428 
Q 1034 2569 447 2591 
L 1259 4238 
L 2778 4238 
z
" transform="scale(0.015625)"/>
       </defs>
       <use xlink:href="#TimesNewRomanPSMT-31"/>
       <use xlink:href="#TimesNewRomanPSMT-36" x="50"/>
       <use xlink:href="#TimesNewRomanPSMT-35" x="100"/>
      </g>
     </g>
    </g>
    <g id="xtick_2">
     <g id="line2d_3">
      <g>
       <use xlink:href="#mdec3be7479" x="177.364219" y="277.47825" style="stroke: #000000; stroke-width: 0.8"/>
      </g>
     </g>
     <g id="line2d_4">
      <g>
       <use xlink:href="#mb2ba3adb17" x="177.364219" y="11.36625" style="stroke: #000000; stroke-width: 0.8"/>
      </g>
     </g>
     <g id="text_2">
      <!-- 170 -->
      <g transform="translate(168.364219 289.31075) scale(0.12 -0.12)">
       <defs>
        <path id="TimesNewRomanPSMT-37" d="M 644 4238 
L 2916 4238 
L 2916 4119 
L 1503 -88 
L 1153 -88 
L 2419 3728 
L 1253 3728 
Q 900 3728 750 3644 
Q 488 3500 328 3200 
L 238 3234 
L 644 4238 
z
" transform="scale(0.015625)"/>
        <path id="TimesNewRomanPSMT-30" d="M 231 2094 
Q 231 2819 450 3342 
Q 669 3866 1031 4122 
Q 1313 4325 1613 4325 
Q 2100 4325 2488 3828 
Q 2972 3213 2972 2159 
Q 2972 1422 2759 906 
Q 2547 391 2217 158 
Q 1888 -75 1581 -75 
Q 975 -75 572 641 
Q 231 1244 231 2094 
z
M 844 2016 
Q 844 1141 1059 588 
Q 1238 122 1591 122 
Q 1759 122 1940 273 
Q 2122 425 2216 781 
Q 2359 1319 2359 2297 
Q 2359 3022 2209 3506 
Q 2097 3866 1919 4016 
Q 1791 4119 1609 4119 
Q 1397 4119 1231 3928 
Q 1006 3669 925 3112 
Q 844 2556 844 2016 
z
" transform="scale(0.015625)"/>
       </defs>
       <use xlink:href="#TimesNewRomanPSMT-31"/>
       <use xlink:href="#TimesNewRomanPSMT-37" x="50"/>
       <use xlink:href="#TimesNewRomanPSMT-30" x="100"/>
      </g>
     </g>
    </g>
    <g id="xtick_3">
     <g id="line2d_5">
      <g>
       <use xlink:href="#mdec3be7479" x="296.404219" y="277.47825" style="stroke: #000000; stroke-width: 0.8"/>
      </g>
     </g>
     <g id="line2d_6">
      <g>
       <use xlink:href="#mb2ba3adb17" x="296.404219" y="11.36625" style="stroke: #000000; stroke-width: 0.8"/>
      </g>
     </g>
     <g id="text_3">
      <!-- 175 -->
      <g transform="translate(287.404219 289.31075) scale(0.12 -0.12)">
       <use xlink:href="#TimesNewRomanPSMT-31"/>
       <use xlink:href="#TimesNewRomanPSMT-37" x="50"/>
       <use xlink:href="#TimesNewRomanPSMT-35" x="100"/>
      </g>
     </g>
    </g>
    <g id="xtick_4">
     <g id="line2d_7">
      <g>
       <use xlink:href="#mdec3be7479" x="415.444219" y="277.47825" style="stroke: #000000; stroke-width: 0.8"/>
      </g>
     </g>
     <g id="line2d_8">
      <g>
       <use xlink:href="#mb2ba3adb17" x="415.444219" y="11.36625" style="stroke: #000000; stroke-width: 0.8"/>
      </g>
     </g>
     <g id="text_4">
      <!-- 180 -->
      <g transform="translate(406.444219 289.31075) scale(0.12 -0.12)">
       <defs>
        <path id="TimesNewRomanPSMT-38" d="M 1228 2134 
Q 725 2547 579 2797 
Q 434 3047 434 3316 
Q 434 3728 753 4026 
Q 1072 4325 1600 4325 
Q 2113 4325 2425 4047 
Q 2738 3769 2738 3413 
Q 2738 3175 2569 2928 
Q 2400 2681 1866 2347 
Q 2416 1922 2594 1678 
Q 2831 1359 2831 1006 
Q 2831 559 2490 242 
Q 2150 -75 1597 -75 
Q 994 -75 656 303 
Q 388 606 388 966 
Q 388 1247 577 1523 
Q 766 1800 1228 2134 
z
M 1719 2469 
Q 2094 2806 2194 3001 
Q 2294 3197 2294 3444 
Q 2294 3772 2109 3958 
Q 1925 4144 1606 4144 
Q 1288 4144 1088 3959 
Q 888 3775 888 3528 
Q 888 3366 970 3203 
Q 1053 3041 1206 2894 
L 1719 2469 
z
M 1375 2016 
Q 1116 1797 991 1539 
Q 866 1281 866 981 
Q 866 578 1086 336 
Q 1306 94 1647 94 
Q 1984 94 2187 284 
Q 2391 475 2391 747 
Q 2391 972 2272 1150 
Q 2050 1481 1375 2016 
z
" transform="scale(0.015625)"/>
       </defs>
       <use xlink:href="#TimesNewRomanPSMT-31"/>
       <use xlink:href="#TimesNewRomanPSMT-38" x="50"/>
       <use xlink:href="#TimesNewRomanPSMT-30" x="100"/>
      </g>
     </g>
    </g>
    <g id="text_5">
     <!-- Angle [deg] -->
     <g transform="translate(200.856094 306.29325) scale(0.15 -0.15)">
      <defs>
       <path id="TimesNewRomanPSMT-41" d="M 2928 1419 
L 1288 1419 
L 1000 750 
Q 894 503 894 381 
Q 894 284 986 211 
Q 1078 138 1384 116 
L 1384 0 
L 50 0 
L 50 116 
Q 316 163 394 238 
Q 553 388 747 847 
L 2238 4334 
L 2347 4334 
L 3822 809 
Q 4000 384 4145 257 
Q 4291 131 4550 116 
L 4550 0 
L 2878 0 
L 2878 116 
Q 3131 128 3220 200 
Q 3309 272 3309 375 
Q 3309 513 3184 809 
L 2928 1419 
z
M 2841 1650 
L 2122 3363 
L 1384 1650 
L 2841 1650 
z
" transform="scale(0.015625)"/>
       <path id="TimesNewRomanPSMT-6e" d="M 1034 2341 
Q 1538 2947 1994 2947 
Q 2228 2947 2397 2830 
Q 2566 2713 2666 2444 
Q 2734 2256 2734 1869 
L 2734 647 
Q 2734 375 2778 278 
Q 2813 200 2889 156 
Q 2966 113 3172 113 
L 3172 0 
L 1756 0 
L 1756 113 
L 1816 113 
Q 2016 113 2095 173 
Q 2175 234 2206 353 
Q 2219 400 2219 647 
L 2219 1819 
Q 2219 2209 2117 2386 
Q 2016 2563 1775 2563 
Q 1403 2563 1034 2156 
L 1034 647 
Q 1034 356 1069 288 
Q 1113 197 1189 155 
Q 1266 113 1500 113 
L 1500 0 
L 84 0 
L 84 113 
L 147 113 
Q 366 113 442 223 
Q 519 334 519 647 
L 519 1709 
Q 519 2225 495 2337 
Q 472 2450 423 2490 
Q 375 2531 294 2531 
Q 206 2531 84 2484 
L 38 2597 
L 900 2947 
L 1034 2947 
L 1034 2341 
z
" transform="scale(0.015625)"/>
       <path id="TimesNewRomanPSMT-67" d="M 966 1044 
Q 703 1172 562 1401 
Q 422 1631 422 1909 
Q 422 2334 742 2640 
Q 1063 2947 1563 2947 
Q 1972 2947 2272 2747 
L 2878 2747 
Q 3013 2747 3034 2739 
Q 3056 2731 3066 2713 
Q 3084 2684 3084 2613 
Q 3084 2531 3069 2500 
Q 3059 2484 3036 2475 
Q 3013 2466 2878 2466 
L 2506 2466 
Q 2681 2241 2681 1891 
Q 2681 1491 2375 1206 
Q 2069 922 1553 922 
Q 1341 922 1119 984 
Q 981 866 932 777 
Q 884 688 884 625 
Q 884 572 936 522 
Q 988 472 1138 450 
Q 1225 438 1575 428 
Q 2219 413 2409 384 
Q 2700 344 2873 169 
Q 3047 -6 3047 -263 
Q 3047 -616 2716 -925 
Q 2228 -1381 1444 -1381 
Q 841 -1381 425 -1109 
Q 191 -953 191 -784 
Q 191 -709 225 -634 
Q 278 -519 444 -313 
Q 466 -284 763 25 
Q 600 122 533 198 
Q 466 275 466 372 
Q 466 481 555 628 
Q 644 775 966 1044 
z
M 1509 2797 
Q 1278 2797 1122 2612 
Q 966 2428 966 2047 
Q 966 1553 1178 1281 
Q 1341 1075 1591 1075 
Q 1828 1075 1981 1253 
Q 2134 1431 2134 1813 
Q 2134 2309 1919 2591 
Q 1759 2797 1509 2797 
z
M 934 0 
Q 788 -159 713 -296 
Q 638 -434 638 -550 
Q 638 -700 819 -813 
Q 1131 -1006 1722 -1006 
Q 2284 -1006 2551 -807 
Q 2819 -609 2819 -384 
Q 2819 -222 2659 -153 
Q 2497 -84 2016 -72 
Q 1313 -53 934 0 
z
" transform="scale(0.015625)"/>
       <path id="TimesNewRomanPSMT-6c" d="M 1184 4444 
L 1184 647 
Q 1184 378 1223 290 
Q 1263 203 1344 158 
Q 1425 113 1647 113 
L 1647 0 
L 244 0 
L 244 113 
Q 441 113 512 153 
Q 584 194 625 287 
Q 666 381 666 647 
L 666 3247 
Q 666 3731 644 3842 
Q 622 3953 573 3993 
Q 525 4034 450 4034 
Q 369 4034 244 3984 
L 191 4094 
L 1044 4444 
L 1184 4444 
z
" transform="scale(0.015625)"/>
       <path id="TimesNewRomanPSMT-65" d="M 681 1784 
Q 678 1147 991 784 
Q 1303 422 1725 422 
Q 2006 422 2214 576 
Q 2422 731 2563 1106 
L 2659 1044 
Q 2594 616 2278 264 
Q 1963 -88 1488 -88 
Q 972 -88 605 314 
Q 238 716 238 1394 
Q 238 2128 614 2539 
Q 991 2950 1559 2950 
Q 2041 2950 2350 2633 
Q 2659 2316 2659 1784 
L 681 1784 
z
M 681 1966 
L 2006 1966 
Q 1991 2241 1941 2353 
Q 1863 2528 1708 2628 
Q 1553 2728 1384 2728 
Q 1125 2728 920 2526 
Q 716 2325 681 1966 
z
" transform="scale(0.015625)"/>
       <path id="TimesNewRomanPSMT-20" transform="scale(0.015625)"/>
       <path id="TimesNewRomanPSMT-5b" d="M 1900 -1269 
L 525 -1269 
L 525 4334 
L 1900 4334 
L 1900 4088 
L 994 4088 
L 994 -1025 
L 1900 -1025 
L 1900 -1269 
z
" transform="scale(0.015625)"/>
       <path id="TimesNewRomanPSMT-64" d="M 2222 322 
Q 2013 103 1813 7 
Q 1613 -88 1381 -88 
Q 913 -88 563 304 
Q 213 697 213 1313 
Q 213 1928 600 2439 
Q 988 2950 1597 2950 
Q 1975 2950 2222 2709 
L 2222 3238 
Q 2222 3728 2198 3840 
Q 2175 3953 2125 3993 
Q 2075 4034 2000 4034 
Q 1919 4034 1784 3984 
L 1744 4094 
L 2597 4444 
L 2738 4444 
L 2738 1134 
Q 2738 631 2761 520 
Q 2784 409 2836 365 
Q 2888 322 2956 322 
Q 3041 322 3181 375 
L 3216 266 
L 2366 -88 
L 2222 -88 
L 2222 322 
z
M 2222 541 
L 2222 2016 
Q 2203 2228 2109 2403 
Q 2016 2578 1861 2667 
Q 1706 2756 1559 2756 
Q 1284 2756 1069 2509 
Q 784 2184 784 1559 
Q 784 928 1059 592 
Q 1334 256 1672 256 
Q 1956 256 2222 541 
z
" transform="scale(0.015625)"/>
       <path id="TimesNewRomanPSMT-5d" d="M 234 4334 
L 1609 4334 
L 1609 -1272 
L 234 -1272 
L 234 -1025 
L 1141 -1025 
L 1141 4088 
L 234 4088 
L 234 4334 
z
" transform="scale(0.015625)"/>
      </defs>
      <use xlink:href="#TimesNewRomanPSMT-41"/>
      <use xlink:href="#TimesNewRomanPSMT-6e" x="72.216797"/>
      <use xlink:href="#TimesNewRomanPSMT-67" x="122.216797"/>
      <use xlink:href="#TimesNewRomanPSMT-6c" x="172.216797"/>
      <use xlink:href="#TimesNewRomanPSMT-65" x="200"/>
      <use xlink:href="#TimesNewRomanPSMT-20" x="244.384766"/>
      <use xlink:href="#TimesNewRomanPSMT-5b" x="269.384766"/>
      <use xlink:href="#TimesNewRomanPSMT-64" x="302.685547"/>
      <use xlink:href="#TimesNewRomanPSMT-65" x="352.685547"/>
      <use xlink:href="#TimesNewRomanPSMT-67" x="397.070312"/>
      <use xlink:href="#TimesNewRomanPSMT-5d" x="447.070312"/>
     </g>
    </g>
   </g>
   <g id="matplotlib.axis_2">
    <g id="ytick_1">
     <g id="line2d_9">
      <defs>
       <path id="mdb8190125a" d="M 0 0 
L 3.5 0 
" style="stroke: #000000; stroke-width: 0.8"/>
      </defs>
      <g>
       <use xlink:href="#mdb8190125a" x="58.324219" y="277.47825" style="stroke: #000000; stroke-width: 0.8"/>
      </g>
     </g>
     <g id="line2d_10">
      <defs>
       <path id="m5ae923fdc6" d="M 0 0 
L -3.5 0 
" style="stroke: #000000; stroke-width: 0.8"/>
      </defs>
      <g>
       <use xlink:href="#m5ae923fdc6" x="415.444219" y="277.47825" style="stroke: #000000; stroke-width: 0.8"/>
      </g>
     </g>
     <g id="text_6">
      <!-- 0 -->
      <g transform="translate(48.824219 281.6445) scale(0.12 -0.12)">
       <use xlink:href="#TimesNewRomanPSMT-30"/>
      </g>
     </g>
    </g>
    <g id="ytick_2">
     <g id="line2d_11">
      <g>
       <use xlink:href="#mdb8190125a" x="58.324219" y="224.25585" style="stroke: #000000; stroke-width: 0.8"/>
      </g>
     </g>
     <g id="line2d_12">
      <g>
       <use xlink:href="#m5ae923fdc6" x="415.444219" y="224.25585" style="stroke: #000000; stroke-width: 0.8"/>
      </g>
     </g>
     <g id="text_7">
      <!-- 5000 -->
      <g transform="translate(30.824219 228.4221) scale(0.12 -0.12)">
       <use xlink:href="#TimesNewRomanPSMT-35"/>
       <use xlink:href="#TimesNewRomanPSMT-30" x="50"/>
       <use xlink:href="#TimesNewRomanPSMT-30" x="100"/>
       <use xlink:href="#TimesNewRomanPSMT-30" x="150"/>
      </g>
     </g>
    </g>
    <g id="ytick_3">
     <g id="line2d_13">
      <g>
       <use xlink:href="#mdb8190125a" x="58.324219" y="171.03345" style="stroke: #000000; stroke-width: 0.8"/>
      </g>
     </g>
     <g id="line2d_14">
      <g>
       <use xlink:href="#m5ae923fdc6" x="415.444219" y="171.03345" style="stroke: #000000; stroke-width: 0.8"/>
      </g>
     </g>
     <g id="text_8">
      <!-- 10000 -->
      <g transform="translate(24.824219 175.1997) scale(0.12 -0.12)">
       <use xlink:href="#TimesNewRomanPSMT-31"/>
       <use xlink:href="#TimesNewRomanPSMT-30" x="50"/>
       <use xlink:href="#TimesNewRomanPSMT-30" x="100"/>
       <use xlink:href="#TimesNewRomanPSMT-30" x="150"/>
       <use xlink:href="#TimesNewRomanPSMT-30" x="200"/>
      </g>
     </g>
    </g>
    <g id="ytick_4">
     <g id="line2d_15">
      <g>
       <use xlink:href="#mdb8190125a" x="58.324219" y="117.81105" style="stroke: #000000; stroke-width: 0.8"/>
      </g>
     </g>
     <g id="line2d_16">
      <g>
       <use xlink:href="#m5ae923fdc6" x="415.444219" y="117.81105" style="stroke: #000000; stroke-width: 0.8"/>
      </g>
     </g>
     <g id="text_9">
      <!-- 15000 -->
      <g transform="translate(24.824219 121.9773) scale(0.12 -0.12)">
       <use xlink:href="#TimesNewRomanPSMT-31"/>
       <use xlink:href="#TimesNewRomanPSMT-35" x="50"/>
       <use xlink:href="#TimesNewRomanPSMT-30" x="100"/>
       <use xlink:href="#TimesNewRomanPSMT-30" x="150"/>
       <use xlink:href="#TimesNewRomanPSMT-30" x="200"/>
      </g>
     </g>
    </g>
    <g id="ytick_5">
     <g id="line2d_17">
      <g>
       <use xlink:href="#mdb8190125a" x="58.324219" y="64.58865" style="stroke: #000000; stroke-width: 0.8"/>
      </g>
     </g>
     <g id="line2d_18">
      <g>
       <use xlink:href="#m5ae923fdc6" x="415.444219" y="64.58865" style="stroke: #000000; stroke-width: 0.8"/>
      </g>
     </g>
     <g id="text_10">
      <!-- 20000 -->
      <g transform="translate(24.824219 68.7549) scale(0.12 -0.12)">
       <defs>
        <path id="TimesNewRomanPSMT-32" d="M 2934 816 
L 2638 0 
L 138 0 
L 138 116 
Q 1241 1122 1691 1759 
Q 2141 2397 2141 2925 
Q 2141 3328 1894 3587 
Q 1647 3847 1303 3847 
Q 991 3847 742 3664 
Q 494 3481 375 3128 
L 259 3128 
Q 338 3706 661 4015 
Q 984 4325 1469 4325 
Q 1984 4325 2329 3994 
Q 2675 3663 2675 3213 
Q 2675 2891 2525 2569 
Q 2294 2063 1775 1497 
Q 997 647 803 472 
L 1909 472 
Q 2247 472 2383 497 
Q 2519 522 2628 598 
Q 2738 675 2819 816 
L 2934 816 
z
" transform="scale(0.015625)"/>
       </defs>
       <use xlink:href="#TimesNewRomanPSMT-32"/>
       <use xlink:href="#TimesNewRomanPSMT-30" x="50"/>
       <use xlink:href="#TimesNewRomanPSMT-30" x="100"/>
       <use xlink:href="#TimesNewRomanPSMT-30" x="150"/>
       <use xlink:href="#TimesNewRomanPSMT-30" x="200"/>
      </g>
     </g>
    </g>
    <g id="ytick_6">
     <g id="line2d_19">
      <g>
       <use xlink:href="#mdb8190125a" x="58.324219" y="11.36625" style="stroke: #000000; stroke-width: 0.8"/>
      </g>
     </g>
     <g id="line2d_20">
      <g>
       <use xlink:href="#m5ae923fdc6" x="415.444219" y="11.36625" style="stroke: #000000; stroke-width: 0.8"/>
      </g>
     </g>
     <g id="text_11">
      <!-- 25000 -->
      <g transform="translate(24.824219 15.5325) scale(0.12 -0.12)">
       <use xlink:href="#TimesNewRomanPSMT-32"/>
       <use xlink:href="#TimesNewRomanPSMT-35" x="50"/>
       <use xlink:href="#TimesNewRomanPSMT-30" x="100"/>
       <use xlink:href="#TimesNewRomanPSMT-30" x="150"/>
       <use xlink:href="#TimesNewRomanPSMT-30" x="200"/>
      </g>
     </g>
    </g>
    <g id="text_12">
     <!-- $N_\mathrm{CO_2}$ -->
     <g transform="translate(17.374219 159.27225) rotate(-90) scale(0.15 -0.15)">
      <defs>
       <path id="STIXGeneral-Italic-4e" d="M 4653 4179 
L 4653 4077 
Q 4480 4038 4413 4016 
Q 4346 3994 4266 3882 
Q 4186 3770 4144 3635 
Q 4102 3501 4000 3149 
L 3066 -96 
L 2950 -96 
L 1478 3424 
L 749 723 
Q 691 525 691 378 
Q 691 243 790 182 
Q 890 122 1139 102 
L 1139 0 
L -128 0 
L -128 102 
Q 147 141 262 304 
Q 378 467 550 1075 
L 1299 3731 
Q 1152 4077 749 4077 
L 749 4179 
L 1773 4179 
L 3098 986 
L 3776 3469 
Q 3827 3648 3827 3750 
Q 3827 3923 3740 3987 
Q 3654 4051 3386 4077 
L 3386 4179 
L 4653 4179 
z
" transform="scale(0.015625)"/>
       <path id="STIXGeneral-Regular-43" d="M 3930 838 
L 4051 723 
Q 3482 -90 2304 -90 
Q 1376 -90 794 480 
Q 179 1082 179 2080 
Q 179 3014 755 3661 
Q 1357 4326 2310 4326 
Q 2720 4326 3072 4230 
Q 3475 4115 3514 4115 
Q 3725 4115 3782 4326 
L 3910 4326 
L 3968 2874 
L 3821 2874 
Q 3718 3334 3488 3584 
Q 3034 4070 2458 4070 
Q 1747 4070 1334 3548 
Q 922 3027 922 2182 
Q 922 1152 1382 653 
Q 1811 192 2522 192 
Q 2944 192 3251 339 
Q 3558 486 3930 838 
z
" transform="scale(0.015625)"/>
       <path id="STIXGeneral-Regular-4f" d="M 4403 2118 
Q 4403 1133 3820 521 
Q 3238 -90 2310 -90 
Q 1376 -90 797 524 
Q 218 1139 218 2138 
Q 218 3110 797 3718 
Q 1376 4326 2310 4326 
Q 3245 4326 3824 3702 
Q 4403 3078 4403 2118 
z
M 3674 2157 
Q 3674 2701 3520 3133 
Q 3366 3565 3091 3795 
Q 2733 4096 2304 4096 
Q 1760 4096 1389 3667 
Q 1184 3437 1065 3011 
Q 947 2586 947 2125 
Q 947 960 1523 429 
Q 1837 141 2317 141 
Q 2816 141 3142 448 
Q 3674 960 3674 2157 
z
" transform="scale(0.015625)"/>
       <path id="STIXGeneral-Regular-32" d="M 3034 877 
L 2688 0 
L 186 0 
L 186 77 
L 1325 1286 
Q 1773 1754 1965 2144 
Q 2157 2534 2157 2950 
Q 2157 3379 1920 3616 
Q 1683 3853 1267 3853 
Q 922 3853 720 3673 
Q 518 3494 326 3021 
L 192 3053 
Q 301 3648 630 3987 
Q 960 4326 1523 4326 
Q 2054 4326 2380 4006 
Q 2707 3686 2707 3200 
Q 2707 2477 1888 1613 
L 832 486 
L 2330 486 
Q 2541 486 2665 569 
Q 2790 653 2944 915 
L 3034 877 
z
" transform="scale(0.015625)"/>
      </defs>
      <use xlink:href="#STIXGeneral-Italic-4e" transform="translate(0 0.703125)"/>
      <use xlink:href="#STIXGeneral-Regular-43" transform="translate(66.699997 -12.525) scale(0.7)"/>
      <use xlink:href="#STIXGeneral-Regular-4f" transform="translate(113.389995 -12.525) scale(0.7)"/>
      <use xlink:href="#STIXGeneral-Regular-32" transform="translate(165.032482 -21.975) scale(0.49)"/>
     </g>
    </g>
   </g>
   <g id="patch_3">
    <path d="M 58.324219 277.47825 
L 58.324219 11.36625 
" style="fill: none; stroke: #000000; stroke-width: 0.8; stroke-linejoin: miter; stroke-linecap: square"/>
   </g>
   <g id="patch_4">
    <path d="M 415.444219 277.47825 
L 415.444219 11.36625 
" style="fill: none; stroke: #000000; stroke-width: 0.8; stroke-linejoin: miter; stroke-linecap: square"/>
   </g>
   <g id="patch_5">
    <path d="M 58.324219 277.47825 
L 415.444219 277.47825 
" style="fill: none; stroke: #000000; stroke-width: 0.8; stroke-linejoin: miter; stroke-linecap: square"/>
   </g>
   <g id="patch_6">
    <path d="M 58.324219 11.36625 
L 415.444219 11.36625 
" style="fill: none; stroke: #000000; stroke-width: 0.8; stroke-linejoin: miter; stroke-linecap: square"/>
   </g>
  </g>
 </g>
 <defs>
  <clipPath id="pa508dd0b49">
   <rect x="58.324219" y="11.36625" width="357.12" height="266.112"/>
  </clipPath>
 </defs>
</svg>
