<svg width="1100" height="525" xmlns="http://www.w3.org/2000/svg" xmlns:xlink="http://www.w3.org/1999/xlink" xml:space="preserve" overflow="hidden"><g transform="translate(-286 -272)"><path d="M619 440 1052.13 440" stroke="#FF0000" stroke-width="27.5" stroke-miterlimit="8" fill="none" fill-rule="evenodd"/><path d="M289.5 440.5C289.5 349.373 363.373 275.5 454.5 275.5 545.627 275.5 619.5 349.373 619.5 440.5 619.5 531.627 545.627 605.5 454.5 605.5 363.373 605.5 289.5 531.627 289.5 440.5Z" stroke="#000000" stroke-width="6.875" stroke-miterlimit="8" fill="#00B0F0" fill-rule="evenodd"/><path d="M1052.5 440.5C1052.5 349.373 1126.37 275.5 1217.5 275.5 1308.63 275.5 1382.5 349.373 1382.5 440.5 1382.5 531.627 1308.63 605.5 1217.5 605.5 1126.37 605.5 1052.5 531.627 1052.5 440.5Z" stroke="#000000" stroke-width="6.875" stroke-miterlimit="8" fill="#00B0F0" fill-rule="evenodd"/><path d="M642.417 661.062 1029.71 661.063 1029.71 667.938 642.417 667.937ZM647 678.25 619.5 664.5 647 650.75ZM1025.12 650.75 1052.62 664.5 1025.12 678.25Z"/><path d="M619.5 440.5 619.5 663.937" stroke="#156082" stroke-width="6.875" stroke-miterlimit="8" stroke-dasharray="6.875 6.875" fill="none" fill-rule="evenodd"/><path d="M1052.5 440.5 1052.5 663.937" stroke="#156082" stroke-width="6.875" stroke-miterlimit="8" stroke-dasharray="6.875 6.875" fill="none" fill-rule="evenodd"/><path d="M840.463 721.481C839.166 721.481 837.89 721.893 836.633 722.717 835.377 723.541 833.979 724.905 832.439 726.81 830.899 728.715 829.642 730.667 828.67 732.666 827.697 734.666 826.873 737.219 826.197 740.326L825.833 742.028C825.427 743.919 825.225 745.757 825.225 747.54 825.225 749.674 825.691 751.214 826.623 752.16 827.555 753.106 829.102 753.578 831.263 753.578 832.371 753.578 833.425 753.396 834.424 753.031 835.424 752.667 836.444 752.065 837.484 751.228 838.525 750.39 839.511 749.289 840.443 747.925 841.375 746.56 842.233 744.878 843.016 742.879 843.8 740.88 844.408 738.739 844.84 736.456 845.272 734.173 845.488 731.991 845.488 729.91 845.488 727.101 845.09 724.993 844.293 723.588 843.496 722.183 842.219 721.481 840.463 721.481ZM833.371 698.177 835.721 698.177 828.589 726.547 829.115 726.709C831.736 723.196 834.195 720.657 836.491 719.09 838.788 717.523 841.084 716.739 843.381 716.739 846.326 716.739 848.616 717.86 850.25 720.103 851.885 722.345 852.702 725.506 852.702 729.586 852.702 734.044 851.804 738.428 850.007 742.737 848.211 747.047 845.718 750.465 842.53 752.991 839.342 755.517 835.775 756.78 831.831 756.78 828.237 756.78 825.049 755.902 822.266 754.146L818.538 756.78 815.944 756.132 826.441 709.809C827.062 707.053 827.373 705.054 827.373 703.811 827.373 702.676 827.028 701.879 826.339 701.42 825.65 700.96 824.414 700.704 822.631 700.65L823.117 698.542Z" fill-rule="evenodd"/><text fill="#000000" fill-opacity="0" font-family="Arial,Arial_MSFontService,sans-serif" font-size="58.6025" x="815.944" y="749.455">𝑏</text></g></svg>