<svg width="2866" height="2699" xmlns="http://www.w3.org/2000/svg" xmlns:xlink="http://www.w3.org/1999/xlink" xml:space="preserve" overflow="hidden"><g transform="translate(-799 110)"><path d="M1762.5 2101.5C1762.5 2010.37 1836.37 1936.5 1927.5 1936.5 2018.63 1936.5 2092.5 2010.37 2092.5 2101.5 2092.5 2192.63 2018.63 2266.5 1927.5 2266.5 1836.37 2266.5 1762.5 2192.63 1762.5 2101.5Z" stroke="#000000" stroke-width="6.875" stroke-miterlimit="8" stroke-dasharray="27.5 20.625" fill="#FFC000" fill-rule="evenodd"/><path d="M1272.5 1606.5C1272.5 1515.37 1346.37 1441.5 1437.5 1441.5 1528.63 1441.5 1602.5 1515.37 1602.5 1606.5 1602.5 1697.63 1528.63 1771.5 1437.5 1771.5 1346.37 1771.5 1272.5 1697.63 1272.5 1606.5Z" stroke="#000000" stroke-width="6.875" stroke-miterlimit="8" stroke-dasharray="27.5 20.625" fill="#00B050" fill-rule="evenodd"/><path d="M2754.5 784.5C2754.5 693.373 2828.37 619.5 2919.5 619.5 3010.63 619.5 3084.5 693.373 3084.5 784.5 3084.5 875.627 3010.63 949.5 2919.5 949.5 2828.37 949.5 2754.5 875.627 2754.5 784.5Z" stroke="#000000" stroke-width="6.875" stroke-miterlimit="8" stroke-dasharray="27.5 20.625" fill="#00B0F0" fill-rule="evenodd"/><path d="M1762.5 454.5C1762.5 363.373 1836.37 289.5 1927.5 289.5 2018.63 289.5 2092.5 363.373 2092.5 454.5 2092.5 545.627 2018.63 619.5 1927.5 619.5 1836.37 619.5 1762.5 545.627 1762.5 454.5Z" stroke="#000000" stroke-width="6.875" stroke-miterlimit="8" stroke-dasharray="27.5 20.625" fill="#FFC000" fill-rule="evenodd"/><path d="M1762.52 2103.9C1761.19 2012.79 1833.98 1937.85 1925.1 1936.52 2016.21 1935.19 2091.15 2007.98 2092.48 2099.1 2092.51 2101.1 2092.5 2103.1 2092.46 2105.1L1927.5 2101.5Z" fill="#FFC000" fill-rule="evenodd"/><path d="M1762.52 2103.9C1761.19 2012.79 1833.98 1937.85 1925.1 1936.52 2016.21 1935.19 2091.15 2007.98 2092.48 2099.1 2092.51 2101.1 2092.5 2103.1 2092.46 2105.1" stroke="#000000" stroke-width="6.875" stroke-miterlimit="8" fill="none" fill-rule="evenodd"/><path d="M2092.39 460.394C2089.14 551.463 2012.68 622.65 1921.61 619.395 1834.13 616.268 1764.32 545.379 1762.53 457.867" stroke="#000000" stroke-width="6.875" stroke-miterlimit="8" fill="none" fill-rule="evenodd"/><path d="M2990.92 933.24C2908.78 972.686 2810.21 938.07 2770.76 855.923 2731.31 773.776 2765.93 675.205 2848.08 635.759 2894.55 613.443 2948.79 614.132 2994.68 637.623" stroke="#000000" stroke-width="6.875" stroke-miterlimit="8" fill="none" fill-rule="evenodd"/><path d="M1107.5 784.5C1107.5 693.373 1181.37 619.5 1272.5 619.5 1363.63 619.5 1437.5 693.373 1437.5 784.5 1437.5 875.627 1363.63 949.5 1272.5 949.5 1181.37 949.5 1107.5 875.627 1107.5 784.5Z" stroke="#000000" stroke-width="6.875" stroke-miterlimit="8" stroke-dasharray="27.5 20.625" fill="#00B0F0" fill-rule="evenodd"/><path d="M1345.96 636.756C1427.56 677.328 1460.82 776.365 1420.24 857.962 1404.3 890.033 1378.35 916.044 1346.32 932.068" stroke="#000000" stroke-width="6.875" stroke-miterlimit="8" fill="none" fill-rule="evenodd"/><rect x="1345" y="452" width="1650" height="1650" stroke="#000000" stroke-width="13.75" stroke-miterlimit="8" fill="none"/><path d="M2050.99 564.414 2215.73 738.597 2200.75 752.769 2036.01 578.586ZM2223.63 716.932 2243.67 783.144 2178.68 759.449Z"/><path d="M5.79104-8.53297 185.668 113.543 174.086 130.609-5.79104 8.53297ZM188.717 90.6862 222.541 151.031 153.97 141.884Z" transform="matrix(-1 0 0 1 2802.04 901.5)"/><path d="M2050.99 2214.41 2215.73 2388.6 2200.75 2402.77 2036.01 2228.59ZM2223.63 2366.93 2243.67 2433.14 2178.68 2409.45Z"/><path d="M5.79104-8.53297 185.668 113.543 174.086 130.609-5.79104 8.53297ZM188.717 90.6862 222.541 151.031 153.97 141.884Z" transform="matrix(-1 0 0 1 1155.04 901.5)"/><text font-family="Times New Roman,Times New Roman_MSFontService,sans-serif" font-weight="400" font-size="128" transform="matrix(1 0 0 1 2271.02 2051)">Original Cell</text><path d="M799.5 452.5 3494.5 452.5" stroke="#000000" stroke-width="6.875" stroke-miterlimit="8" stroke-dasharray="27.5 20.625" fill="none" fill-rule="evenodd"/><path d="M799.5 2099.5 3494.5 2099.5" stroke="#000000" stroke-width="6.875" stroke-miterlimit="8" stroke-dasharray="27.5 20.625" fill="none" fill-rule="evenodd"/><path d="M1345.5-109.5 1345.5 2585.5" stroke="#000000" stroke-width="6.875" stroke-miterlimit="8" stroke-dasharray="27.5 20.625" fill="none" fill-rule="evenodd"/><path d="M2995.5-109.5 2995.5 2585.5" stroke="#000000" stroke-width="6.875" stroke-miterlimit="8" stroke-dasharray="27.5 20.625" fill="none" fill-rule="evenodd"/><path d="M1342.62 1471.51C1417.17 1419.11 1520.09 1437.07 1572.49 1511.62 1624.89 1586.17 1606.93 1689.09 1532.38 1741.49 1475.09 1781.76 1398.63 1781.48 1341.64 1740.8" stroke="#000000" stroke-width="6.875" stroke-miterlimit="8" fill="none" fill-rule="evenodd"/><path d="M1.56554-10.193 301.392 35.8573 298.261 56.2433-1.56554 10.193ZM294.33 13.9058 350.791 53.878 284.937 75.0637Z" transform="matrix(1 0 0 -1 1602.5 1606.38)"/><path d="M2922.5 1606.5C2922.5 1515.37 2996.37 1441.5 3087.5 1441.5 3178.63 1441.5 3252.5 1515.37 3252.5 1606.5 3252.5 1697.63 3178.63 1771.5 3087.5 1771.5 2996.37 1771.5 2922.5 1697.63 2922.5 1606.5Z" stroke="#000000" stroke-width="6.875" stroke-miterlimit="8" stroke-dasharray="27.5 20.625" fill="#00B050" fill-rule="evenodd"/><path d="M2999.91 1746.33C2922.68 1697.95 2899.29 1596.13 2947.67 1518.91 2960.74 1498.03 2978.33 1480.35 2999.13 1467.16" stroke="#000000" stroke-width="6.875" stroke-miterlimit="8" fill="none" fill-rule="evenodd"/><path d="M1.56554-10.193 301.392 35.8573 298.261 56.2433-1.56554 10.193ZM294.33 13.9058 350.791 53.878 284.937 75.0637Z" transform="matrix(1 0 0 -1 3250.5 1606.38)"/></g></svg>