<?xml version="1.0" encoding="utf-8" standalone="no"?>
<!DOCTYPE svg PUBLIC "-//W3C//DTD SVG 1.1//EN"
  "http://www.w3.org/Graphics/SVG/1.1/DTD/svg11.dtd">
<svg xmlns:xlink="http://www.w3.org/1999/xlink" width="777.72pt" height="519.68625pt" viewBox="0 0 777.72 519.68625" xmlns="http://www.w3.org/2000/svg" version="1.1">
 <metadata>
  <rdf:RDF xmlns:dc="http://purl.org/dc/elements/1.1/" xmlns:cc="http://creativecommons.org/ns#" xmlns:rdf="http://www.w3.org/1999/02/22-rdf-syntax-ns#">
   <cc:Work>
    <dc:type rdf:resource="http://purl.org/dc/dcmitype/StillImage"/>
    <dc:date>2025-02-06T15:03:59.737991</dc:date>
    <dc:format>image/svg+xml</dc:format>
    <dc:creator>
     <cc:Agent>
      <dc:title>Matplotlib v3.9.1, https://matplotlib.org/</dc:title>
     </cc:Agent>
    </dc:creator>
   </cc:Work>
  </rdf:RDF>
 </metadata>
 <defs>
  <style type="text/css">*{stroke-linejoin: round; stroke-linecap: butt}</style>
 </defs>
 <g id="figure_1">
  <g id="patch_1">
   <path d="M 0 519.68625 
L 777.72 519.68625 
L 777.72 0 
L 0 0 
z
" style="fill: #ffffff"/>
  </g>
  <g id="axes_1">
   <g id="patch_2">
    <path d="M 97.92 454.88625 
L 767.52 454.88625 
L 767.52 11.36625 
L 97.92 11.36625 
z
" style="fill: #ffffff"/>
   </g>
   <g id="PolyCollection_1">
    <defs>
     <path id="mbde1df3681" d="M 161.497032 -65.9088 
L 161.497032 -64.8 
L 166.368156 -64.8 
L 166.368156 -64.8 
L 171.239281 -64.8 
L 171.239281 -64.8 
L 176.110405 -64.8 
L 176.110405 -64.8 
L 180.981529 -64.8 
L 180.981529 -64.8 
L 185.852654 -64.8 
L 185.852654 -64.8 
L 190.723778 -64.8 
L 190.723778 -64.8 
L 195.594903 -64.8 
L 195.594903 -64.8 
L 200.466027 -64.8 
L 200.466027 -64.8 
L 205.337151 -64.8 
L 205.337151 -64.8 
L 210.208276 -64.8 
L 210.208276 -64.8 
L 215.0794 -64.8 
L 215.0794 -64.8 
L 219.950524 -64.8 
L 219.950524 -64.8 
L 224.821649 -64.8 
L 224.821649 -64.8 
L 229.692773 -64.8 
L 229.692773 -64.8 
L 234.563897 -64.8 
L 234.563897 -64.8 
L 239.435022 -64.8 
L 239.435022 -64.8 
L 244.306146 -64.8 
L 244.306146 -64.8 
L 249.17727 -64.8 
L 249.17727 -64.8 
L 254.048395 -64.8 
L 254.048395 -64.8 
L 258.919519 -64.8 
L 258.919519 -64.8 
L 263.790644 -64.8 
L 263.790644 -64.8 
L 268.661768 -64.8 
L 268.661768 -64.8 
L 273.532892 -64.8 
L 273.532892 -64.8 
L 278.404017 -64.8 
L 278.404017 -64.8 
L 283.275141 -64.8 
L 283.275141 -64.8 
L 288.146265 -64.8 
L 288.146265 -64.8 
L 293.01739 -64.8 
L 293.01739 -64.8 
L 297.888514 -64.8 
L 297.888514 -64.8 
L 302.759638 -64.8 
L 302.759638 -64.8 
L 307.630763 -64.8 
L 307.630763 -64.8 
L 312.501887 -64.8 
L 312.501887 -64.8 
L 317.373012 -64.8 
L 317.373012 -64.8 
L 322.244136 -64.8 
L 322.244136 -64.8 
L 327.11526 -64.8 
L 327.11526 -64.8 
L 331.986385 -64.8 
L 331.986385 -64.8 
L 336.857509 -64.8 
L 336.857509 -64.8 
L 341.728633 -64.8 
L 341.728633 -64.8 
L 346.599758 -64.8 
L 346.599758 -64.8 
L 351.470882 -64.8 
L 351.470882 -64.8 
L 356.342006 -64.8 
L 356.342006 -64.8 
L 361.213131 -64.8 
L 361.213131 -64.8 
L 366.084255 -64.8 
L 366.084255 -64.8 
L 370.95538 -64.8 
L 370.95538 -64.8 
L 375.826504 -64.8 
L 375.826504 -64.8 
L 380.697628 -64.8 
L 380.697628 -64.8 
L 385.568753 -64.8 
L 385.568753 -64.8 
L 390.439877 -64.8 
L 390.439877 -64.8 
L 395.311001 -64.8 
L 395.311001 -64.8 
L 400.182126 -64.8 
L 400.182126 -64.8 
L 405.05325 -64.8 
L 405.05325 -64.8 
L 409.924374 -64.8 
L 409.924374 -64.8 
L 414.795499 -64.8 
L 414.795499 -64.8 
L 419.666623 -64.8 
L 419.666623 -64.8 
L 424.537747 -64.8 
L 424.537747 -64.8 
L 429.408872 -64.8 
L 429.408872 -64.8 
L 434.279996 -64.8 
L 434.279996 -64.8 
L 439.151121 -64.8 
L 439.151121 -64.8 
L 444.022245 -64.8 
L 444.022245 -64.8 
L 448.893369 -64.8 
L 448.893369 -64.8 
L 453.764494 -64.8 
L 453.764494 -64.8 
L 458.635618 -64.8 
L 458.635618 -64.8 
L 463.506742 -64.8 
L 463.506742 -64.8 
L 468.377867 -64.8 
L 468.377867 -64.8 
L 473.248991 -64.8 
L 473.248991 -64.8 
L 478.120115 -64.8 
L 478.120115 -64.8 
L 482.99124 -64.8 
L 482.99124 -64.8 
L 487.862364 -64.8 
L 487.862364 -64.8 
L 492.733489 -64.8 
L 492.733489 -64.8 
L 497.604613 -64.8 
L 497.604613 -64.8 
L 502.475737 -64.8 
L 502.475737 -64.8 
L 507.346862 -64.8 
L 507.346862 -64.8 
L 512.217986 -64.8 
L 512.217986 -64.8 
L 517.08911 -64.8 
L 517.08911 -64.8 
L 521.960235 -64.8 
L 521.960235 -64.8 
L 526.831359 -64.8 
L 526.831359 -64.8 
L 531.702483 -64.8 
L 531.702483 -64.8 
L 536.573608 -64.8 
L 536.573608 -64.8 
L 541.444732 -64.8 
L 541.444732 -64.8 
L 546.315857 -64.8 
L 546.315857 -64.8 
L 551.186981 -64.8 
L 551.186981 -64.8 
L 556.058105 -64.8 
L 556.058105 -64.8 
L 560.92923 -64.8 
L 560.92923 -64.8 
L 565.800354 -64.8 
L 565.800354 -64.8 
L 570.671478 -64.8 
L 570.671478 -64.8 
L 575.542603 -64.8 
L 575.542603 -64.8 
L 580.413727 -64.8 
L 580.413727 -64.8 
L 585.284851 -64.8 
L 585.284851 -64.8 
L 590.155976 -64.8 
L 590.155976 -64.8 
L 595.0271 -64.8 
L 595.0271 -64.8 
L 599.898224 -64.8 
L 599.898224 -64.8 
L 604.769349 -64.8 
L 604.769349 -64.8 
L 609.640473 -64.8 
L 609.640473 -64.8 
L 614.511598 -64.8 
L 614.511598 -64.8 
L 619.382722 -64.8 
L 619.382722 -64.8 
L 624.253846 -64.8 
L 624.253846 -64.8 
L 629.124971 -64.8 
L 629.124971 -64.8 
L 633.996095 -64.8 
L 633.996095 -64.8 
L 638.867219 -64.8 
L 638.867219 -64.8 
L 643.738344 -64.8 
L 643.738344 -64.8 
L 648.609468 -64.8 
L 648.609468 -64.8 
L 653.480592 -64.8 
L 653.480592 -64.8 
L 658.351717 -64.8 
L 658.351717 -64.8 
L 663.222841 -64.8 
L 663.222841 -64.8 
L 668.093966 -64.8 
L 668.093966 -64.8 
L 672.96509 -64.8 
L 672.96509 -64.8 
L 677.836214 -64.8 
L 677.836214 -64.8 
L 682.707339 -64.8 
L 682.707339 -64.8 
L 687.578463 -64.8 
L 687.578463 -64.8 
L 692.449587 -64.8 
L 692.449587 -64.8 
L 697.320712 -64.8 
L 697.320712 -64.8 
L 702.191836 -64.8 
L 702.191836 -64.8 
L 707.06296 -64.8 
L 707.06296 -64.8 
L 711.934085 -64.8 
L 711.934085 -64.8 
L 716.805209 -64.8 
L 716.805209 -64.8 
L 721.676334 -64.8 
L 721.676334 -64.8 
L 726.547458 -64.8 
L 726.547458 -64.8 
L 731.418582 -64.8 
L 731.418582 -64.8 
L 736.289707 -64.8 
L 736.289707 -64.8 
L 741.160831 -64.8 
L 741.160831 -64.8 
L 746.031955 -64.8 
L 746.031955 -64.8 
L 750.90308 -64.8 
L 750.90308 -64.8 
L 755.774204 -64.8 
L 755.774204 -64.8 
L 760.645328 -64.8 
L 760.645328 -64.8 
L 760.645328 -65.1696 
L 760.645328 -65.1696 
L 760.645328 -65.1696 
L 755.774204 -65.1696 
L 755.774204 -64.8 
L 750.90308 -64.8 
L 750.90308 -64.8 
L 746.031955 -64.8 
L 746.031955 -64.8 
L 741.160831 -64.8 
L 741.160831 -64.8 
L 736.289707 -64.8 
L 736.289707 -65.1696 
L 731.418582 -65.1696 
L 731.418582 -65.1696 
L 726.547458 -65.1696 
L 726.547458 -65.5392 
L 721.676334 -65.5392 
L 721.676334 -65.9088 
L 716.805209 -65.9088 
L 716.805209 -67.3872 
L 711.934085 -67.3872 
L 711.934085 -68.1264 
L 707.06296 -68.1264 
L 707.06296 -67.7568 
L 702.191836 -67.7568 
L 702.191836 -69.9744 
L 697.320712 -69.9744 
L 697.320712 -72.192 
L 692.449587 -72.192 
L 692.449587 -74.4096 
L 687.578463 -74.4096 
L 687.578463 -75.888 
L 682.707339 -75.888 
L 682.707339 -73.3008 
L 677.836214 -73.3008 
L 677.836214 -82.1712 
L 672.96509 -82.1712 
L 672.96509 -79.9536 
L 668.093966 -79.9536 
L 668.093966 -84.7584 
L 663.222841 -84.7584 
L 663.222841 -84.3888 
L 658.351717 -84.3888 
L 658.351717 -85.128 
L 653.480592 -85.128 
L 653.480592 -80.6928 
L 648.609468 -80.6928 
L 648.609468 -86.976 
L 643.738344 -86.976 
L 643.738344 -81.432 
L 638.867219 -81.432 
L 638.867219 -90.672 
L 633.996095 -90.672 
L 633.996095 -84.3888 
L 629.124971 -84.3888 
L 629.124971 -87.7152 
L 624.253846 -87.7152 
L 624.253846 -89.1936 
L 619.382722 -89.1936 
L 619.382722 -95.8464 
L 614.511598 -95.8464 
L 614.511598 -102.1296 
L 609.640473 -102.1296 
L 609.640473 -101.3904 
L 604.769349 -101.3904 
L 604.769349 -108.7824 
L 599.898224 -108.7824 
L 599.898224 -116.9136 
L 595.0271 -116.9136 
L 595.0271 -125.4144 
L 590.155976 -125.4144 
L 590.155976 -120.9792 
L 585.284851 -120.9792 
L 585.284851 -126.8928 
L 580.413727 -126.8928 
L 580.413727 -133.9152 
L 575.542603 -133.9152 
L 575.542603 -155.7216 
L 570.671478 -155.7216 
L 570.671478 -147.96 
L 565.800354 -147.96 
L 565.800354 -158.3088 
L 560.92923 -158.3088 
L 560.92923 -149.808 
L 556.058105 -149.808 
L 556.058105 -162.744 
L 551.186981 -162.744 
L 551.186981 -162.744 
L 546.315857 -162.744 
L 546.315857 -151.2864 
L 541.444732 -151.2864 
L 541.444732 -145.7424 
L 536.573608 -145.7424 
L 536.573608 -146.8512 
L 531.702483 -146.8512 
L 531.702483 -141.6768 
L 526.831359 -141.6768 
L 526.831359 -145.0032 
L 521.960235 -145.0032 
L 521.960235 -128.7408 
L 517.08911 -128.7408 
L 517.08911 -128.3712 
L 512.217986 -128.3712 
L 512.217986 -123.5664 
L 507.346862 -123.5664 
L 507.346862 -125.4144 
L 502.475737 -125.4144 
L 502.475737 -124.3056 
L 497.604613 -124.3056 
L 497.604613 -116.9136 
L 492.733489 -116.9136 
L 492.733489 -109.8912 
L 487.862364 -109.8912 
L 487.862364 -108.0432 
L 482.99124 -108.0432 
L 482.99124 -107.6736 
L 478.120115 -107.6736 
L 478.120115 -111.3696 
L 473.248991 -111.3696 
L 473.248991 -99.1728 
L 468.377867 -99.1728 
L 468.377867 -108.7824 
L 463.506742 -108.7824 
L 463.506742 -99.1728 
L 458.635618 -99.1728 
L 458.635618 -93.2592 
L 453.764494 -93.2592 
L 453.764494 -92.1504 
L 448.893369 -92.1504 
L 448.893369 -93.2592 
L 444.022245 -93.2592 
L 444.022245 -80.6928 
L 439.151121 -80.6928 
L 439.151121 -78.8448 
L 434.279996 -78.8448 
L 434.279996 -75.1488 
L 429.408872 -75.1488 
L 429.408872 -72.9312 
L 424.537747 -72.9312 
L 424.537747 -72.5616 
L 419.666623 -72.5616 
L 419.666623 -74.7792 
L 414.795499 -74.7792 
L 414.795499 -73.6704 
L 409.924374 -73.6704 
L 409.924374 -71.8224 
L 405.05325 -71.8224 
L 405.05325 -77.3664 
L 400.182126 -77.3664 
L 400.182126 -76.2576 
L 395.311001 -76.2576 
L 395.311001 -74.04 
L 390.439877 -74.04 
L 390.439877 -76.2576 
L 385.568753 -76.2576 
L 385.568753 -75.5184 
L 380.697628 -75.5184 
L 380.697628 -74.4096 
L 375.826504 -74.4096 
L 375.826504 -75.888 
L 370.95538 -75.888 
L 370.95538 -76.9968 
L 366.084255 -76.9968 
L 366.084255 -71.8224 
L 361.213131 -71.8224 
L 361.213131 -77.3664 
L 356.342006 -77.3664 
L 356.342006 -72.5616 
L 351.470882 -72.5616 
L 351.470882 -71.8224 
L 346.599758 -71.8224 
L 346.599758 -70.7136 
L 341.728633 -70.7136 
L 341.728633 -72.9312 
L 336.857509 -72.9312 
L 336.857509 -72.192 
L 331.986385 -72.192 
L 331.986385 -72.192 
L 327.11526 -72.192 
L 327.11526 -71.8224 
L 322.244136 -71.8224 
L 322.244136 -69.2352 
L 317.373012 -69.2352 
L 317.373012 -72.9312 
L 312.501887 -72.9312 
L 312.501887 -70.7136 
L 307.630763 -70.7136 
L 307.630763 -71.0832 
L 302.759638 -71.0832 
L 302.759638 -71.0832 
L 297.888514 -71.0832 
L 297.888514 -72.5616 
L 293.01739 -72.5616 
L 293.01739 -71.4528 
L 288.146265 -71.4528 
L 288.146265 -67.0176 
L 283.275141 -67.0176 
L 283.275141 -71.4528 
L 278.404017 -71.4528 
L 278.404017 -67.3872 
L 273.532892 -67.3872 
L 273.532892 -70.344 
L 268.661768 -70.344 
L 268.661768 -67.3872 
L 263.790644 -67.3872 
L 263.790644 -69.9744 
L 258.919519 -69.9744 
L 258.919519 -69.2352 
L 254.048395 -69.2352 
L 254.048395 -69.2352 
L 249.17727 -69.2352 
L 249.17727 -68.8656 
L 244.306146 -68.8656 
L 244.306146 -70.7136 
L 239.435022 -70.7136 
L 239.435022 -69.6048 
L 234.563897 -69.6048 
L 234.563897 -67.7568 
L 229.692773 -67.7568 
L 229.692773 -68.1264 
L 224.821649 -68.1264 
L 224.821649 -67.3872 
L 219.950524 -67.3872 
L 219.950524 -65.9088 
L 215.0794 -65.9088 
L 215.0794 -67.3872 
L 210.208276 -67.3872 
L 210.208276 -67.3872 
L 205.337151 -67.3872 
L 205.337151 -65.9088 
L 200.466027 -65.9088 
L 200.466027 -66.648 
L 195.594903 -66.648 
L 195.594903 -65.1696 
L 190.723778 -65.1696 
L 190.723778 -65.9088 
L 185.852654 -65.9088 
L 185.852654 -64.8 
L 180.981529 -64.8 
L 180.981529 -64.8 
L 176.110405 -64.8 
L 176.110405 -65.5392 
L 171.239281 -65.5392 
L 171.239281 -64.8 
L 166.368156 -64.8 
L 166.368156 -65.9088 
L 161.497032 -65.9088 
z
"/>
    </defs>
    <g clip-path="url(#p2bcd79c54a)">
     <use xlink:href="#mbde1df3681" x="0" y="519.68625" style="fill: #ffa500"/>
    </g>
   </g>
   <g id="PolyCollection_2">
    <defs>
     <path id="mb558e3d062" d="M 161.497032 -64.8 
L 161.497032 -64.8 
L 166.368156 -64.8 
L 166.368156 -64.8 
L 171.239281 -64.8 
L 171.239281 -64.8 
L 176.110405 -64.8 
L 176.110405 -64.8 
L 180.981529 -64.8 
L 180.981529 -64.8 
L 185.852654 -64.8 
L 185.852654 -64.8 
L 190.723778 -64.8 
L 190.723778 -64.8 
L 195.594903 -64.8 
L 195.594903 -64.8 
L 200.466027 -64.8 
L 200.466027 -64.8 
L 205.337151 -64.8 
L 205.337151 -64.8 
L 210.208276 -64.8 
L 210.208276 -64.8 
L 215.0794 -64.8 
L 215.0794 -64.8 
L 219.950524 -64.8 
L 219.950524 -64.8 
L 224.821649 -64.8 
L 224.821649 -64.8 
L 229.692773 -64.8 
L 229.692773 -64.8 
L 234.563897 -64.8 
L 234.563897 -64.8 
L 239.435022 -64.8 
L 239.435022 -64.8 
L 244.306146 -64.8 
L 244.306146 -64.8 
L 249.17727 -64.8 
L 249.17727 -64.8 
L 254.048395 -64.8 
L 254.048395 -64.8 
L 258.919519 -64.8 
L 258.919519 -64.8 
L 263.790644 -64.8 
L 263.790644 -64.8 
L 268.661768 -64.8 
L 268.661768 -64.8 
L 273.532892 -64.8 
L 273.532892 -64.8 
L 278.404017 -64.8 
L 278.404017 -64.8 
L 283.275141 -64.8 
L 283.275141 -64.8 
L 288.146265 -64.8 
L 288.146265 -64.8 
L 293.01739 -64.8 
L 293.01739 -64.8 
L 297.888514 -64.8 
L 297.888514 -64.8 
L 302.759638 -64.8 
L 302.759638 -64.8 
L 307.630763 -64.8 
L 307.630763 -64.8 
L 312.501887 -64.8 
L 312.501887 -64.8 
L 317.373012 -64.8 
L 317.373012 -64.8 
L 322.244136 -64.8 
L 322.244136 -64.8 
L 327.11526 -64.8 
L 327.11526 -64.8 
L 331.986385 -64.8 
L 331.986385 -64.8 
L 336.857509 -64.8 
L 336.857509 -64.8 
L 341.728633 -64.8 
L 341.728633 -64.8 
L 346.599758 -64.8 
L 346.599758 -64.8 
L 351.470882 -64.8 
L 351.470882 -64.8 
L 356.342006 -64.8 
L 356.342006 -64.8 
L 361.213131 -64.8 
L 361.213131 -64.8 
L 366.084255 -64.8 
L 366.084255 -64.8 
L 370.95538 -64.8 
L 370.95538 -64.8 
L 375.826504 -64.8 
L 375.826504 -64.8 
L 380.697628 -64.8 
L 380.697628 -64.8 
L 385.568753 -64.8 
L 385.568753 -64.8 
L 390.439877 -64.8 
L 390.439877 -64.8 
L 395.311001 -64.8 
L 395.311001 -64.8 
L 400.182126 -64.8 
L 400.182126 -64.8 
L 405.05325 -64.8 
L 405.05325 -64.8 
L 409.924374 -64.8 
L 409.924374 -64.8 
L 414.795499 -64.8 
L 414.795499 -64.8 
L 419.666623 -64.8 
L 419.666623 -64.8 
L 424.537747 -64.8 
L 424.537747 -64.8 
L 429.408872 -64.8 
L 429.408872 -64.8 
L 434.279996 -64.8 
L 434.279996 -64.8 
L 439.151121 -64.8 
L 439.151121 -64.8 
L 444.022245 -64.8 
L 444.022245 -64.8 
L 448.893369 -64.8 
L 448.893369 -64.8 
L 453.764494 -64.8 
L 453.764494 -64.8 
L 458.635618 -64.8 
L 458.635618 -64.8 
L 463.506742 -64.8 
L 463.506742 -64.8 
L 468.377867 -64.8 
L 468.377867 -64.8 
L 473.248991 -64.8 
L 473.248991 -64.8 
L 478.120115 -64.8 
L 478.120115 -64.8 
L 482.99124 -64.8 
L 482.99124 -64.8 
L 487.862364 -64.8 
L 487.862364 -64.8 
L 492.733489 -64.8 
L 492.733489 -64.8 
L 497.604613 -64.8 
L 497.604613 -64.8 
L 502.475737 -64.8 
L 502.475737 -64.8 
L 507.346862 -64.8 
L 507.346862 -64.8 
L 512.217986 -64.8 
L 512.217986 -64.8 
L 517.08911 -64.8 
L 517.08911 -64.8 
L 521.960235 -64.8 
L 521.960235 -64.8 
L 526.831359 -64.8 
L 526.831359 -64.8 
L 531.702483 -64.8 
L 531.702483 -64.8 
L 536.573608 -64.8 
L 536.573608 -64.8 
L 541.444732 -64.8 
L 541.444732 -64.8 
L 546.315857 -64.8 
L 546.315857 -64.8 
L 551.186981 -64.8 
L 551.186981 -64.8 
L 556.058105 -64.8 
L 556.058105 -64.8 
L 560.92923 -64.8 
L 560.92923 -64.8 
L 565.800354 -64.8 
L 565.800354 -64.8 
L 570.671478 -64.8 
L 570.671478 -64.8 
L 575.542603 -64.8 
L 575.542603 -64.8 
L 580.413727 -64.8 
L 580.413727 -64.8 
L 585.284851 -64.8 
L 585.284851 -64.8 
L 590.155976 -64.8 
L 590.155976 -64.8 
L 595.0271 -64.8 
L 595.0271 -64.8 
L 599.898224 -64.8 
L 599.898224 -64.8 
L 604.769349 -64.8 
L 604.769349 -64.8 
L 609.640473 -64.8 
L 609.640473 -64.8 
L 614.511598 -64.8 
L 614.511598 -64.8 
L 619.382722 -64.8 
L 619.382722 -64.8 
L 624.253846 -64.8 
L 624.253846 -64.8 
L 629.124971 -64.8 
L 629.124971 -64.8 
L 633.996095 -64.8 
L 633.996095 -64.8 
L 638.867219 -64.8 
L 638.867219 -64.8 
L 643.738344 -64.8 
L 643.738344 -64.8 
L 648.609468 -64.8 
L 648.609468 -64.8 
L 653.480592 -64.8 
L 653.480592 -64.8 
L 658.351717 -64.8 
L 658.351717 -64.8 
L 663.222841 -64.8 
L 663.222841 -64.8 
L 668.093966 -64.8 
L 668.093966 -64.8 
L 672.96509 -64.8 
L 672.96509 -64.8 
L 677.836214 -64.8 
L 677.836214 -64.8 
L 682.707339 -64.8 
L 682.707339 -64.8 
L 687.578463 -64.8 
L 687.578463 -64.8 
L 692.449587 -64.8 
L 692.449587 -64.8 
L 697.320712 -64.8 
L 697.320712 -64.8 
L 702.191836 -64.8 
L 702.191836 -64.8 
L 707.06296 -64.8 
L 707.06296 -64.8 
L 711.934085 -64.8 
L 711.934085 -64.8 
L 716.805209 -64.8 
L 716.805209 -64.8 
L 721.676334 -64.8 
L 721.676334 -64.8 
L 726.547458 -64.8 
L 726.547458 -64.8 
L 731.418582 -64.8 
L 731.418582 -64.8 
L 736.289707 -64.8 
L 736.289707 -64.8 
L 741.160831 -64.8 
L 741.160831 -64.8 
L 746.031955 -64.8 
L 746.031955 -64.8 
L 750.90308 -64.8 
L 750.90308 -64.8 
L 755.774204 -64.8 
L 755.774204 -64.8 
L 760.645328 -64.8 
L 760.645328 -64.8 
L 760.645328 -64.8 
L 760.645328 -64.8 
L 760.645328 -64.8 
L 755.774204 -64.8 
L 755.774204 -64.8 
L 750.90308 -64.8 
L 750.90308 -64.8 
L 746.031955 -64.8 
L 746.031955 -64.8 
L 741.160831 -64.8 
L 741.160831 -64.8 
L 736.289707 -64.8 
L 736.289707 -64.8 
L 731.418582 -64.8 
L 731.418582 -64.8 
L 726.547458 -64.8 
L 726.547458 -64.8 
L 721.676334 -64.8 
L 721.676334 -64.8 
L 716.805209 -64.8 
L 716.805209 -64.8 
L 711.934085 -64.8 
L 711.934085 -64.8 
L 707.06296 -64.8 
L 707.06296 -65.9088 
L 702.191836 -65.9088 
L 702.191836 -65.5392 
L 697.320712 -65.5392 
L 697.320712 -66.648 
L 692.449587 -66.648 
L 692.449587 -67.0176 
L 687.578463 -67.0176 
L 687.578463 -68.496 
L 682.707339 -68.496 
L 682.707339 -68.1264 
L 677.836214 -68.1264 
L 677.836214 -71.4528 
L 672.96509 -71.4528 
L 672.96509 -76.9968 
L 668.093966 -76.9968 
L 668.093966 -91.4112 
L 663.222841 -91.4112 
L 663.222841 -107.6736 
L 658.351717 -107.6736 
L 658.351717 -129.1104 
L 653.480592 -129.1104 
L 653.480592 -194.16 
L 648.609468 -194.16 
L 648.609468 -296.5392 
L 643.738344 -296.5392 
L 643.738344 -432.552 
L 638.867219 -432.552 
L 638.867219 -482.448 
L 633.996095 -482.448 
L 633.996095 -455.0976 
L 629.124971 -455.0976 
L 629.124971 -446.9664 
L 624.253846 -446.9664 
L 624.253846 -371.568 
L 619.382722 -371.568 
L 619.382722 -345.3264 
L 614.511598 -345.3264 
L 614.511598 -333.1296 
L 609.640473 -333.1296 
L 609.640473 -298.0176 
L 604.769349 -298.0176 
L 604.769349 -298.7568 
L 599.898224 -298.7568 
L 599.898224 -288.408 
L 595.0271 -288.408 
L 595.0271 -262.1664 
L 590.155976 -262.1664 
L 590.155976 -237.7728 
L 585.284851 -237.7728 
L 585.284851 -260.3184 
L 580.413727 -260.3184 
L 580.413727 -299.8656 
L 575.542603 -299.8656 
L 575.542603 -308.736 
L 570.671478 -308.736 
L 570.671478 -380.808 
L 565.800354 -380.808 
L 565.800354 -387.4608 
L 560.92923 -387.4608 
L 560.92923 -230.3808 
L 556.058105 -230.3808 
L 556.058105 -105.8256 
L 551.186981 -105.8256 
L 551.186981 -87.7152 
L 546.315857 -87.7152 
L 546.315857 -78.4752 
L 541.444732 -78.4752 
L 541.444732 -71.4528 
L 536.573608 -71.4528 
L 536.573608 -71.4528 
L 531.702483 -71.4528 
L 531.702483 -65.5392 
L 526.831359 -65.5392 
L 526.831359 -65.5392 
L 521.960235 -65.5392 
L 521.960235 -64.8 
L 517.08911 -64.8 
L 517.08911 -65.5392 
L 512.217986 -65.5392 
L 512.217986 -64.8 
L 507.346862 -64.8 
L 507.346862 -64.8 
L 502.475737 -64.8 
L 502.475737 -64.8 
L 497.604613 -64.8 
L 497.604613 -64.8 
L 492.733489 -64.8 
L 492.733489 -64.8 
L 487.862364 -64.8 
L 487.862364 -64.8 
L 482.99124 -64.8 
L 482.99124 -64.8 
L 478.120115 -64.8 
L 478.120115 -64.8 
L 473.248991 -64.8 
L 473.248991 -64.8 
L 468.377867 -64.8 
L 468.377867 -64.8 
L 463.506742 -64.8 
L 463.506742 -64.8 
L 458.635618 -64.8 
L 458.635618 -64.8 
L 453.764494 -64.8 
L 453.764494 -64.8 
L 448.893369 -64.8 
L 448.893369 -64.8 
L 444.022245 -64.8 
L 444.022245 -64.8 
L 439.151121 -64.8 
L 439.151121 -64.8 
L 434.279996 -64.8 
L 434.279996 -64.8 
L 429.408872 -64.8 
L 429.408872 -64.8 
L 424.537747 -64.8 
L 424.537747 -64.8 
L 419.666623 -64.8 
L 419.666623 -64.8 
L 414.795499 -64.8 
L 414.795499 -64.8 
L 409.924374 -64.8 
L 409.924374 -64.8 
L 405.05325 -64.8 
L 405.05325 -64.8 
L 400.182126 -64.8 
L 400.182126 -64.8 
L 395.311001 -64.8 
L 395.311001 -64.8 
L 390.439877 -64.8 
L 390.439877 -64.8 
L 385.568753 -64.8 
L 385.568753 -64.8 
L 380.697628 -64.8 
L 380.697628 -64.8 
L 375.826504 -64.8 
L 375.826504 -64.8 
L 370.95538 -64.8 
L 370.95538 -64.8 
L 366.084255 -64.8 
L 366.084255 -64.8 
L 361.213131 -64.8 
L 361.213131 -64.8 
L 356.342006 -64.8 
L 356.342006 -64.8 
L 351.470882 -64.8 
L 351.470882 -64.8 
L 346.599758 -64.8 
L 346.599758 -64.8 
L 341.728633 -64.8 
L 341.728633 -64.8 
L 336.857509 -64.8 
L 336.857509 -64.8 
L 331.986385 -64.8 
L 331.986385 -64.8 
L 327.11526 -64.8 
L 327.11526 -64.8 
L 322.244136 -64.8 
L 322.244136 -64.8 
L 317.373012 -64.8 
L 317.373012 -64.8 
L 312.501887 -64.8 
L 312.501887 -64.8 
L 307.630763 -64.8 
L 307.630763 -64.8 
L 302.759638 -64.8 
L 302.759638 -64.8 
L 297.888514 -64.8 
L 297.888514 -64.8 
L 293.01739 -64.8 
L 293.01739 -64.8 
L 288.146265 -64.8 
L 288.146265 -64.8 
L 283.275141 -64.8 
L 283.275141 -64.8 
L 278.404017 -64.8 
L 278.404017 -64.8 
L 273.532892 -64.8 
L 273.532892 -64.8 
L 268.661768 -64.8 
L 268.661768 -64.8 
L 263.790644 -64.8 
L 263.790644 -64.8 
L 258.919519 -64.8 
L 258.919519 -64.8 
L 254.048395 -64.8 
L 254.048395 -64.8 
L 249.17727 -64.8 
L 249.17727 -64.8 
L 244.306146 -64.8 
L 244.306146 -64.8 
L 239.435022 -64.8 
L 239.435022 -64.8 
L 234.563897 -64.8 
L 234.563897 -64.8 
L 229.692773 -64.8 
L 229.692773 -64.8 
L 224.821649 -64.8 
L 224.821649 -64.8 
L 219.950524 -64.8 
L 219.950524 -64.8 
L 215.0794 -64.8 
L 215.0794 -64.8 
L 210.208276 -64.8 
L 210.208276 -64.8 
L 205.337151 -64.8 
L 205.337151 -64.8 
L 200.466027 -64.8 
L 200.466027 -64.8 
L 195.594903 -64.8 
L 195.594903 -64.8 
L 190.723778 -64.8 
L 190.723778 -64.8 
L 185.852654 -64.8 
L 185.852654 -64.8 
L 180.981529 -64.8 
L 180.981529 -64.8 
L 176.110405 -64.8 
L 176.110405 -64.8 
L 171.239281 -64.8 
L 171.239281 -64.8 
L 166.368156 -64.8 
L 166.368156 -64.8 
L 161.497032 -64.8 
z
"/>
    </defs>
    <g clip-path="url(#p2bcd79c54a)">
     <use xlink:href="#mb558e3d062" x="0" y="519.68625" style="fill: #808080; fill-opacity: 0.5"/>
    </g>
   </g>
   <g id="PolyCollection_3">
    <defs>
     <path id="m68f6d0761f" d="M 161.497032 -64.8 
L 161.497032 -64.8 
L 166.368156 -64.8 
L 166.368156 -64.8 
L 171.239281 -64.8 
L 171.239281 -64.8 
L 176.110405 -64.8 
L 176.110405 -64.8 
L 180.981529 -64.8 
L 180.981529 -64.8 
L 185.852654 -64.8 
L 185.852654 -64.8 
L 190.723778 -64.8 
L 190.723778 -64.8 
L 195.594903 -64.8 
L 195.594903 -64.8 
L 200.466027 -64.8 
L 200.466027 -64.8 
L 205.337151 -64.8 
L 205.337151 -64.8 
L 210.208276 -64.8 
L 210.208276 -64.8 
L 215.0794 -64.8 
L 215.0794 -64.8 
L 219.950524 -64.8 
L 219.950524 -64.8 
L 224.821649 -64.8 
L 224.821649 -64.8 
L 229.692773 -64.8 
L 229.692773 -64.8 
L 234.563897 -64.8 
L 234.563897 -64.8 
L 239.435022 -64.8 
L 239.435022 -64.8 
L 244.306146 -64.8 
L 244.306146 -64.8 
L 249.17727 -64.8 
L 249.17727 -64.8 
L 254.048395 -64.8 
L 254.048395 -64.8 
L 258.919519 -64.8 
L 258.919519 -64.8 
L 263.790644 -64.8 
L 263.790644 -64.8 
L 268.661768 -64.8 
L 268.661768 -64.8 
L 273.532892 -64.8 
L 273.532892 -64.8 
L 278.404017 -64.8 
L 278.404017 -64.8 
L 283.275141 -64.8 
L 283.275141 -64.8 
L 288.146265 -64.8 
L 288.146265 -64.8 
L 293.01739 -64.8 
L 293.01739 -64.8 
L 297.888514 -64.8 
L 297.888514 -64.8 
L 302.759638 -64.8 
L 302.759638 -64.8 
L 307.630763 -64.8 
L 307.630763 -64.8 
L 312.501887 -64.8 
L 312.501887 -64.8 
L 317.373012 -64.8 
L 317.373012 -64.8 
L 322.244136 -64.8 
L 322.244136 -64.8 
L 327.11526 -64.8 
L 327.11526 -64.8 
L 331.986385 -64.8 
L 331.986385 -64.8 
L 336.857509 -64.8 
L 336.857509 -64.8 
L 341.728633 -64.8 
L 341.728633 -64.8 
L 346.599758 -64.8 
L 346.599758 -64.8 
L 351.470882 -64.8 
L 351.470882 -64.8 
L 356.342006 -64.8 
L 356.342006 -64.8 
L 361.213131 -64.8 
L 361.213131 -64.8 
L 366.084255 -64.8 
L 366.084255 -64.8 
L 370.95538 -64.8 
L 370.95538 -64.8 
L 375.826504 -64.8 
L 375.826504 -64.8 
L 380.697628 -64.8 
L 380.697628 -64.8 
L 385.568753 -64.8 
L 385.568753 -64.8 
L 390.439877 -64.8 
L 390.439877 -64.8 
L 395.311001 -64.8 
L 395.311001 -64.8 
L 400.182126 -64.8 
L 400.182126 -64.8 
L 405.05325 -64.8 
L 405.05325 -64.8 
L 409.924374 -64.8 
L 409.924374 -64.8 
L 414.795499 -64.8 
L 414.795499 -64.8 
L 419.666623 -64.8 
L 419.666623 -64.8 
L 424.537747 -64.8 
L 424.537747 -64.8 
L 429.408872 -64.8 
L 429.408872 -64.8 
L 434.279996 -64.8 
L 434.279996 -64.8 
L 439.151121 -64.8 
L 439.151121 -64.8 
L 444.022245 -64.8 
L 444.022245 -64.8 
L 448.893369 -64.8 
L 448.893369 -64.8 
L 453.764494 -64.8 
L 453.764494 -64.8 
L 458.635618 -64.8 
L 458.635618 -64.8 
L 463.506742 -64.8 
L 463.506742 -64.8 
L 468.377867 -64.8 
L 468.377867 -64.8 
L 473.248991 -64.8 
L 473.248991 -64.8 
L 478.120115 -64.8 
L 478.120115 -64.8 
L 482.99124 -64.8 
L 482.99124 -64.8 
L 487.862364 -64.8 
L 487.862364 -64.8 
L 492.733489 -64.8 
L 492.733489 -64.8 
L 497.604613 -64.8 
L 497.604613 -64.8 
L 502.475737 -64.8 
L 502.475737 -64.8 
L 507.346862 -64.8 
L 507.346862 -64.8 
L 512.217986 -64.8 
L 512.217986 -64.8 
L 517.08911 -64.8 
L 517.08911 -64.8 
L 521.960235 -64.8 
L 521.960235 -64.8 
L 526.831359 -64.8 
L 526.831359 -64.8 
L 531.702483 -64.8 
L 531.702483 -64.8 
L 536.573608 -64.8 
L 536.573608 -64.8 
L 541.444732 -64.8 
L 541.444732 -64.8 
L 546.315857 -64.8 
L 546.315857 -64.8 
L 551.186981 -64.8 
L 551.186981 -64.8 
L 556.058105 -64.8 
L 556.058105 -64.8 
L 560.92923 -64.8 
L 560.92923 -64.8 
L 565.800354 -64.8 
L 565.800354 -64.8 
L 570.671478 -64.8 
L 570.671478 -64.8 
L 575.542603 -64.8 
L 575.542603 -64.8 
L 580.413727 -64.8 
L 580.413727 -64.8 
L 585.284851 -64.8 
L 585.284851 -64.8 
L 590.155976 -64.8 
L 590.155976 -64.8 
L 595.0271 -64.8 
L 595.0271 -64.8 
L 599.898224 -64.8 
L 599.898224 -64.8 
L 604.769349 -64.8 
L 604.769349 -64.8 
L 609.640473 -64.8 
L 609.640473 -64.8 
L 614.511598 -64.8 
L 614.511598 -64.8 
L 619.382722 -64.8 
L 619.382722 -64.8 
L 624.253846 -64.8 
L 624.253846 -64.8 
L 629.124971 -64.8 
L 629.124971 -64.8 
L 633.996095 -64.8 
L 633.996095 -64.8 
L 638.867219 -64.8 
L 638.867219 -64.8 
L 643.738344 -64.8 
L 643.738344 -64.8 
L 648.609468 -64.8 
L 648.609468 -64.8 
L 653.480592 -64.8 
L 653.480592 -64.8 
L 658.351717 -64.8 
L 658.351717 -64.8 
L 663.222841 -64.8 
L 663.222841 -64.8 
L 668.093966 -64.8 
L 668.093966 -64.8 
L 672.96509 -64.8 
L 672.96509 -64.8 
L 677.836214 -64.8 
L 677.836214 -64.8 
L 682.707339 -64.8 
L 682.707339 -64.8 
L 687.578463 -64.8 
L 687.578463 -64.8 
L 692.449587 -64.8 
L 692.449587 -64.8 
L 697.320712 -64.8 
L 697.320712 -64.8 
L 702.191836 -64.8 
L 702.191836 -64.8 
L 707.06296 -64.8 
L 707.06296 -64.8 
L 711.934085 -64.8 
L 711.934085 -64.8 
L 716.805209 -64.8 
L 716.805209 -64.8 
L 721.676334 -64.8 
L 721.676334 -64.8 
L 726.547458 -64.8 
L 726.547458 -64.8 
L 731.418582 -64.8 
L 731.418582 -64.8 
L 736.289707 -64.8 
L 736.289707 -64.8 
L 741.160831 -64.8 
L 741.160831 -64.8 
L 746.031955 -64.8 
L 746.031955 -64.8 
L 750.90308 -64.8 
L 750.90308 -64.8 
L 755.774204 -64.8 
L 755.774204 -64.8 
L 760.645328 -64.8 
L 760.645328 -64.8 
L 760.645328 -64.8 
L 760.645328 -64.8 
L 760.645328 -64.8 
L 755.774204 -64.8 
L 755.774204 -64.8 
L 750.90308 -64.8 
L 750.90308 -64.8 
L 746.031955 -64.8 
L 746.031955 -64.8 
L 741.160831 -64.8 
L 741.160831 -64.8 
L 736.289707 -64.8 
L 736.289707 -64.8 
L 731.418582 -64.8 
L 731.418582 -64.8 
L 726.547458 -64.8 
L 726.547458 -64.8 
L 721.676334 -64.8 
L 721.676334 -64.8 
L 716.805209 -64.8 
L 716.805209 -64.8 
L 711.934085 -64.8 
L 711.934085 -64.8 
L 707.06296 -64.8 
L 707.06296 -64.8 
L 702.191836 -64.8 
L 702.191836 -65.1696 
L 697.320712 -65.1696 
L 697.320712 -64.8 
L 692.449587 -64.8 
L 692.449587 -64.8 
L 687.578463 -64.8 
L 687.578463 -64.8 
L 682.707339 -64.8 
L 682.707339 -64.8 
L 677.836214 -64.8 
L 677.836214 -64.8 
L 672.96509 -64.8 
L 672.96509 -64.8 
L 668.093966 -64.8 
L 668.093966 -64.8 
L 663.222841 -64.8 
L 663.222841 -64.8 
L 658.351717 -64.8 
L 658.351717 -65.1696 
L 653.480592 -65.1696 
L 653.480592 -65.5392 
L 648.609468 -65.5392 
L 648.609468 -66.2784 
L 643.738344 -66.2784 
L 643.738344 -67.0176 
L 638.867219 -67.0176 
L 638.867219 -69.6048 
L 633.996095 -69.6048 
L 633.996095 -71.4528 
L 629.124971 -71.4528 
L 629.124971 -84.3888 
L 624.253846 -84.3888 
L 624.253846 -111 
L 619.382722 -111 
L 619.382722 -154.2432 
L 614.511598 -154.2432 
L 614.511598 -166.0704 
L 609.640473 -166.0704 
L 609.640473 -179.376 
L 604.769349 -179.376 
L 604.769349 -167.1792 
L 599.898224 -167.1792 
L 599.898224 -171.984 
L 595.0271 -171.984 
L 595.0271 -160.896 
L 590.155976 -160.896 
L 590.155976 -163.1136 
L 585.284851 -163.1136 
L 585.284851 -159.7872 
L 580.413727 -159.7872 
L 580.413727 -160.896 
L 575.542603 -160.896 
L 575.542603 -142.0464 
L 570.671478 -142.0464 
L 570.671478 -139.0896 
L 565.800354 -139.0896 
L 565.800354 -136.1328 
L 560.92923 -136.1328 
L 560.92923 -131.328 
L 556.058105 -131.328 
L 556.058105 -137.6112 
L 551.186981 -137.6112 
L 551.186981 -132.8064 
L 546.315857 -132.8064 
L 546.315857 -128.7408 
L 541.444732 -128.7408 
L 541.444732 -132.8064 
L 536.573608 -132.8064 
L 536.573608 -137.2416 
L 531.702483 -137.2416 
L 531.702483 -137.9808 
L 526.831359 -137.9808 
L 526.831359 -142.416 
L 521.960235 -142.416 
L 521.960235 -157.2 
L 517.08911 -157.2 
L 517.08911 -169.0272 
L 512.217986 -169.0272 
L 512.217986 -159.7872 
L 507.346862 -159.7872 
L 507.346862 -171.6144 
L 502.475737 -171.6144 
L 502.475737 -174.9408 
L 497.604613 -174.9408 
L 497.604613 -186.768 
L 492.733489 -186.768 
L 492.733489 -159.4176 
L 487.862364 -159.4176 
L 487.862364 -163.8528 
L 482.99124 -163.8528 
L 482.99124 -126.8928 
L 478.120115 -126.8928 
L 478.120115 -113.2176 
L 473.248991 -113.2176 
L 473.248991 -100.2816 
L 468.377867 -100.2816 
L 468.377867 -80.3232 
L 463.506742 -80.3232 
L 463.506742 -81.432 
L 458.635618 -81.432 
L 458.635618 -72.5616 
L 453.764494 -72.5616 
L 453.764494 -68.8656 
L 448.893369 -68.8656 
L 448.893369 -66.648 
L 444.022245 -66.648 
L 444.022245 -66.648 
L 439.151121 -66.648 
L 439.151121 -65.5392 
L 434.279996 -65.5392 
L 434.279996 -65.1696 
L 429.408872 -65.1696 
L 429.408872 -64.8 
L 424.537747 -64.8 
L 424.537747 -64.8 
L 419.666623 -64.8 
L 419.666623 -64.8 
L 414.795499 -64.8 
L 414.795499 -64.8 
L 409.924374 -64.8 
L 409.924374 -64.8 
L 405.05325 -64.8 
L 405.05325 -64.8 
L 400.182126 -64.8 
L 400.182126 -64.8 
L 395.311001 -64.8 
L 395.311001 -64.8 
L 390.439877 -64.8 
L 390.439877 -64.8 
L 385.568753 -64.8 
L 385.568753 -64.8 
L 380.697628 -64.8 
L 380.697628 -64.8 
L 375.826504 -64.8 
L 375.826504 -64.8 
L 370.95538 -64.8 
L 370.95538 -64.8 
L 366.084255 -64.8 
L 366.084255 -64.8 
L 361.213131 -64.8 
L 361.213131 -64.8 
L 356.342006 -64.8 
L 356.342006 -64.8 
L 351.470882 -64.8 
L 351.470882 -64.8 
L 346.599758 -64.8 
L 346.599758 -64.8 
L 341.728633 -64.8 
L 341.728633 -64.8 
L 336.857509 -64.8 
L 336.857509 -64.8 
L 331.986385 -64.8 
L 331.986385 -64.8 
L 327.11526 -64.8 
L 327.11526 -64.8 
L 322.244136 -64.8 
L 322.244136 -64.8 
L 317.373012 -64.8 
L 317.373012 -64.8 
L 312.501887 -64.8 
L 312.501887 -64.8 
L 307.630763 -64.8 
L 307.630763 -64.8 
L 302.759638 -64.8 
L 302.759638 -64.8 
L 297.888514 -64.8 
L 297.888514 -64.8 
L 293.01739 -64.8 
L 293.01739 -64.8 
L 288.146265 -64.8 
L 288.146265 -64.8 
L 283.275141 -64.8 
L 283.275141 -64.8 
L 278.404017 -64.8 
L 278.404017 -64.8 
L 273.532892 -64.8 
L 273.532892 -64.8 
L 268.661768 -64.8 
L 268.661768 -64.8 
L 263.790644 -64.8 
L 263.790644 -64.8 
L 258.919519 -64.8 
L 258.919519 -64.8 
L 254.048395 -64.8 
L 254.048395 -64.8 
L 249.17727 -64.8 
L 249.17727 -64.8 
L 244.306146 -64.8 
L 244.306146 -64.8 
L 239.435022 -64.8 
L 239.435022 -64.8 
L 234.563897 -64.8 
L 234.563897 -64.8 
L 229.692773 -64.8 
L 229.692773 -64.8 
L 224.821649 -64.8 
L 224.821649 -64.8 
L 219.950524 -64.8 
L 219.950524 -64.8 
L 215.0794 -64.8 
L 215.0794 -64.8 
L 210.208276 -64.8 
L 210.208276 -64.8 
L 205.337151 -64.8 
L 205.337151 -64.8 
L 200.466027 -64.8 
L 200.466027 -64.8 
L 195.594903 -64.8 
L 195.594903 -64.8 
L 190.723778 -64.8 
L 190.723778 -64.8 
L 185.852654 -64.8 
L 185.852654 -64.8 
L 180.981529 -64.8 
L 180.981529 -64.8 
L 176.110405 -64.8 
L 176.110405 -64.8 
L 171.239281 -64.8 
L 171.239281 -64.8 
L 166.368156 -64.8 
L 166.368156 -64.8 
L 161.497032 -64.8 
z
"/>
    </defs>
    <g clip-path="url(#p2bcd79c54a)">
     <use xlink:href="#m68f6d0761f" x="0" y="519.68625" style="fill: #ff0000; fill-opacity: 0.5"/>
    </g>
   </g>
   <g id="matplotlib.axis_1">
    <g id="xtick_1">
     <g id="line2d_1">
      <defs>
       <path id="mcfe66a2d46" d="M 0 0 
L 0 -3.5 
" style="stroke: #000000; stroke-width: 0.8"/>
      </defs>
      <g>
       <use xlink:href="#mcfe66a2d46" x="97.92" y="454.88625" style="stroke: #000000; stroke-width: 0.8"/>
      </g>
     </g>
     <g id="line2d_2">
      <defs>
       <path id="m302c2a14c6" d="M 0 0 
L 0 3.5 
" style="stroke: #000000; stroke-width: 0.8"/>
      </defs>
      <g>
       <use xlink:href="#m302c2a14c6" x="97.92" y="11.36625" style="stroke: #000000; stroke-width: 0.8"/>
      </g>
     </g>
     <g id="text_1">
      <!-- -14 -->
      <g transform="translate(89.922187 466.71875) scale(0.12 -0.12)">
       <defs>
        <path id="TimesNewRomanPSMT-2d" d="M 259 1672 
L 1875 1672 
L 1875 1200 
L 259 1200 
L 259 1672 
z
" transform="scale(0.015625)"/>
        <path id="TimesNewRomanPSMT-31" d="M 750 3822 
L 1781 4325 
L 1884 4325 
L 1884 747 
Q 1884 391 1914 303 
Q 1944 216 2037 169 
Q 2131 122 2419 116 
L 2419 0 
L 825 0 
L 825 116 
Q 1125 122 1212 167 
Q 1300 213 1334 289 
Q 1369 366 1369 747 
L 1369 3034 
Q 1369 3497 1338 3628 
Q 1316 3728 1258 3775 
Q 1200 3822 1119 3822 
Q 1003 3822 797 3725 
L 750 3822 
z
" transform="scale(0.015625)"/>
        <path id="TimesNewRomanPSMT-34" d="M 2978 1563 
L 2978 1119 
L 2409 1119 
L 2409 0 
L 1894 0 
L 1894 1119 
L 100 1119 
L 100 1519 
L 2066 4325 
L 2409 4325 
L 2409 1563 
L 2978 1563 
z
M 1894 1563 
L 1894 3666 
L 406 1563 
L 1894 1563 
z
" transform="scale(0.015625)"/>
       </defs>
       <use xlink:href="#TimesNewRomanPSMT-2d"/>
       <use xlink:href="#TimesNewRomanPSMT-31" x="33.300781"/>
       <use xlink:href="#TimesNewRomanPSMT-34" x="83.300781"/>
      </g>
     </g>
    </g>
    <g id="xtick_2">
     <g id="line2d_3">
      <g>
       <use xlink:href="#mcfe66a2d46" x="172.32" y="454.88625" style="stroke: #000000; stroke-width: 0.8"/>
      </g>
     </g>
     <g id="line2d_4">
      <g>
       <use xlink:href="#m302c2a14c6" x="172.32" y="11.36625" style="stroke: #000000; stroke-width: 0.8"/>
      </g>
     </g>
     <g id="text_2">
      <!-- -12 -->
      <g transform="translate(164.322187 466.71875) scale(0.12 -0.12)">
       <defs>
        <path id="TimesNewRomanPSMT-32" d="M 2934 816 
L 2638 0 
L 138 0 
L 138 116 
Q 1241 1122 1691 1759 
Q 2141 2397 2141 2925 
Q 2141 3328 1894 3587 
Q 1647 3847 1303 3847 
Q 991 3847 742 3664 
Q 494 3481 375 3128 
L 259 3128 
Q 338 3706 661 4015 
Q 984 4325 1469 4325 
Q 1984 4325 2329 3994 
Q 2675 3663 2675 3213 
Q 2675 2891 2525 2569 
Q 2294 2063 1775 1497 
Q 997 647 803 472 
L 1909 472 
Q 2247 472 2383 497 
Q 2519 522 2628 598 
Q 2738 675 2819 816 
L 2934 816 
z
" transform="scale(0.015625)"/>
       </defs>
       <use xlink:href="#TimesNewRomanPSMT-2d"/>
       <use xlink:href="#TimesNewRomanPSMT-31" x="33.300781"/>
       <use xlink:href="#TimesNewRomanPSMT-32" x="83.300781"/>
      </g>
     </g>
    </g>
    <g id="xtick_3">
     <g id="line2d_5">
      <g>
       <use xlink:href="#mcfe66a2d46" x="246.72" y="454.88625" style="stroke: #000000; stroke-width: 0.8"/>
      </g>
     </g>
     <g id="line2d_6">
      <g>
       <use xlink:href="#m302c2a14c6" x="246.72" y="11.36625" style="stroke: #000000; stroke-width: 0.8"/>
      </g>
     </g>
     <g id="text_3">
      <!-- -10 -->
      <g transform="translate(238.722187 466.71875) scale(0.12 -0.12)">
       <defs>
        <path id="TimesNewRomanPSMT-30" d="M 231 2094 
Q 231 2819 450 3342 
Q 669 3866 1031 4122 
Q 1313 4325 1613 4325 
Q 2100 4325 2488 3828 
Q 2972 3213 2972 2159 
Q 2972 1422 2759 906 
Q 2547 391 2217 158 
Q 1888 -75 1581 -75 
Q 975 -75 572 641 
Q 231 1244 231 2094 
z
M 844 2016 
Q 844 1141 1059 588 
Q 1238 122 1591 122 
Q 1759 122 1940 273 
Q 2122 425 2216 781 
Q 2359 1319 2359 2297 
Q 2359 3022 2209 3506 
Q 2097 3866 1919 4016 
Q 1791 4119 1609 4119 
Q 1397 4119 1231 3928 
Q 1006 3669 925 3112 
Q 844 2556 844 2016 
z
" transform="scale(0.015625)"/>
       </defs>
       <use xlink:href="#TimesNewRomanPSMT-2d"/>
       <use xlink:href="#TimesNewRomanPSMT-31" x="33.300781"/>
       <use xlink:href="#TimesNewRomanPSMT-30" x="83.300781"/>
      </g>
     </g>
    </g>
    <g id="xtick_4">
     <g id="line2d_7">
      <g>
       <use xlink:href="#mcfe66a2d46" x="321.12" y="454.88625" style="stroke: #000000; stroke-width: 0.8"/>
      </g>
     </g>
     <g id="line2d_8">
      <g>
       <use xlink:href="#m302c2a14c6" x="321.12" y="11.36625" style="stroke: #000000; stroke-width: 0.8"/>
      </g>
     </g>
     <g id="text_4">
      <!-- -8 -->
      <g transform="translate(316.122187 466.71875) scale(0.12 -0.12)">
       <defs>
        <path id="TimesNewRomanPSMT-38" d="M 1228 2134 
Q 725 2547 579 2797 
Q 434 3047 434 3316 
Q 434 3728 753 4026 
Q 1072 4325 1600 4325 
Q 2113 4325 2425 4047 
Q 2738 3769 2738 3413 
Q 2738 3175 2569 2928 
Q 2400 2681 1866 2347 
Q 2416 1922 2594 1678 
Q 2831 1359 2831 1006 
Q 2831 559 2490 242 
Q 2150 -75 1597 -75 
Q 994 -75 656 303 
Q 388 606 388 966 
Q 388 1247 577 1523 
Q 766 1800 1228 2134 
z
M 1719 2469 
Q 2094 2806 2194 3001 
Q 2294 3197 2294 3444 
Q 2294 3772 2109 3958 
Q 1925 4144 1606 4144 
Q 1288 4144 1088 3959 
Q 888 3775 888 3528 
Q 888 3366 970 3203 
Q 1053 3041 1206 2894 
L 1719 2469 
z
M 1375 2016 
Q 1116 1797 991 1539 
Q 866 1281 866 981 
Q 866 578 1086 336 
Q 1306 94 1647 94 
Q 1984 94 2187 284 
Q 2391 475 2391 747 
Q 2391 972 2272 1150 
Q 2050 1481 1375 2016 
z
" transform="scale(0.015625)"/>
       </defs>
       <use xlink:href="#TimesNewRomanPSMT-2d"/>
       <use xlink:href="#TimesNewRomanPSMT-38" x="33.300781"/>
      </g>
     </g>
    </g>
    <g id="xtick_5">
     <g id="line2d_9">
      <g>
       <use xlink:href="#mcfe66a2d46" x="395.52" y="454.88625" style="stroke: #000000; stroke-width: 0.8"/>
      </g>
     </g>
     <g id="line2d_10">
      <g>
       <use xlink:href="#m302c2a14c6" x="395.52" y="11.36625" style="stroke: #000000; stroke-width: 0.8"/>
      </g>
     </g>
     <g id="text_5">
      <!-- -6 -->
      <g transform="translate(390.522187 466.71875) scale(0.12 -0.12)">
       <defs>
        <path id="TimesNewRomanPSMT-36" d="M 2869 4325 
L 2869 4209 
Q 2456 4169 2195 4045 
Q 1934 3922 1679 3669 
Q 1425 3416 1258 3105 
Q 1091 2794 978 2366 
Q 1428 2675 1881 2675 
Q 2316 2675 2634 2325 
Q 2953 1975 2953 1425 
Q 2953 894 2631 456 
Q 2244 -75 1606 -75 
Q 1172 -75 869 213 
Q 275 772 275 1663 
Q 275 2231 503 2743 
Q 731 3256 1154 3653 
Q 1578 4050 1965 4187 
Q 2353 4325 2688 4325 
L 2869 4325 
z
M 925 2138 
Q 869 1716 869 1456 
Q 869 1156 980 804 
Q 1091 453 1309 247 
Q 1469 100 1697 100 
Q 1969 100 2183 356 
Q 2397 613 2397 1088 
Q 2397 1622 2184 2012 
Q 1972 2403 1581 2403 
Q 1463 2403 1327 2353 
Q 1191 2303 925 2138 
z
" transform="scale(0.015625)"/>
       </defs>
       <use xlink:href="#TimesNewRomanPSMT-2d"/>
       <use xlink:href="#TimesNewRomanPSMT-36" x="33.300781"/>
      </g>
     </g>
    </g>
    <g id="xtick_6">
     <g id="line2d_11">
      <g>
       <use xlink:href="#mcfe66a2d46" x="469.92" y="454.88625" style="stroke: #000000; stroke-width: 0.8"/>
      </g>
     </g>
     <g id="line2d_12">
      <g>
       <use xlink:href="#m302c2a14c6" x="469.92" y="11.36625" style="stroke: #000000; stroke-width: 0.8"/>
      </g>
     </g>
     <g id="text_6">
      <!-- -4 -->
      <g transform="translate(464.922187 466.71875) scale(0.12 -0.12)">
       <use xlink:href="#TimesNewRomanPSMT-2d"/>
       <use xlink:href="#TimesNewRomanPSMT-34" x="33.300781"/>
      </g>
     </g>
    </g>
    <g id="xtick_7">
     <g id="line2d_13">
      <g>
       <use xlink:href="#mcfe66a2d46" x="544.32" y="454.88625" style="stroke: #000000; stroke-width: 0.8"/>
      </g>
     </g>
     <g id="line2d_14">
      <g>
       <use xlink:href="#m302c2a14c6" x="544.32" y="11.36625" style="stroke: #000000; stroke-width: 0.8"/>
      </g>
     </g>
     <g id="text_7">
      <!-- -2 -->
      <g transform="translate(539.322187 466.71875) scale(0.12 -0.12)">
       <use xlink:href="#TimesNewRomanPSMT-2d"/>
       <use xlink:href="#TimesNewRomanPSMT-32" x="33.300781"/>
      </g>
     </g>
    </g>
    <g id="xtick_8">
     <g id="line2d_15">
      <g>
       <use xlink:href="#mcfe66a2d46" x="618.72" y="454.88625" style="stroke: #000000; stroke-width: 0.8"/>
      </g>
     </g>
     <g id="line2d_16">
      <g>
       <use xlink:href="#m302c2a14c6" x="618.72" y="11.36625" style="stroke: #000000; stroke-width: 0.8"/>
      </g>
     </g>
     <g id="text_8">
      <!-- 0 -->
      <g transform="translate(615.72 466.71875) scale(0.12 -0.12)">
       <use xlink:href="#TimesNewRomanPSMT-30"/>
      </g>
     </g>
    </g>
    <g id="xtick_9">
     <g id="line2d_17">
      <g>
       <use xlink:href="#mcfe66a2d46" x="693.12" y="454.88625" style="stroke: #000000; stroke-width: 0.8"/>
      </g>
     </g>
     <g id="line2d_18">
      <g>
       <use xlink:href="#m302c2a14c6" x="693.12" y="11.36625" style="stroke: #000000; stroke-width: 0.8"/>
      </g>
     </g>
     <g id="text_9">
      <!-- 2 -->
      <g transform="translate(690.12 466.71875) scale(0.12 -0.12)">
       <use xlink:href="#TimesNewRomanPSMT-32"/>
      </g>
     </g>
    </g>
    <g id="xtick_10">
     <g id="line2d_19">
      <g>
       <use xlink:href="#mcfe66a2d46" x="767.52" y="454.88625" style="stroke: #000000; stroke-width: 0.8"/>
      </g>
     </g>
     <g id="line2d_20">
      <g>
       <use xlink:href="#m302c2a14c6" x="767.52" y="11.36625" style="stroke: #000000; stroke-width: 0.8"/>
      </g>
     </g>
     <g id="text_10">
      <!-- 4 -->
      <g transform="translate(764.52 466.71875) scale(0.12 -0.12)">
       <use xlink:href="#TimesNewRomanPSMT-34"/>
      </g>
     </g>
    </g>
   </g>
   <g id="matplotlib.axis_2">
    <g id="ytick_1">
     <g id="line2d_21">
      <defs>
       <path id="mb39bd01280" d="M 0 0 
L 3.5 0 
" style="stroke: #000000; stroke-width: 0.8"/>
      </defs>
      <g>
       <use xlink:href="#mb39bd01280" x="97.92" y="454.88625" style="stroke: #000000; stroke-width: 0.8"/>
      </g>
     </g>
     <g id="line2d_22">
      <defs>
       <path id="mb3a74691d7" d="M 0 0 
L -3.5 0 
" style="stroke: #000000; stroke-width: 0.8"/>
      </defs>
      <g>
       <use xlink:href="#mb3a74691d7" x="767.52" y="454.88625" style="stroke: #000000; stroke-width: 0.8"/>
      </g>
     </g>
     <g id="text_11">
      <!-- 0 -->
      <g transform="translate(88.42 459.0525) scale(0.12 -0.12)">
       <use xlink:href="#TimesNewRomanPSMT-30"/>
      </g>
     </g>
    </g>
    <g id="ytick_2">
     <g id="line2d_23">
      <g>
       <use xlink:href="#mb39bd01280" x="97.92" y="380.96625" style="stroke: #000000; stroke-width: 0.8"/>
      </g>
     </g>
     <g id="line2d_24">
      <g>
       <use xlink:href="#mb3a74691d7" x="767.52" y="380.96625" style="stroke: #000000; stroke-width: 0.8"/>
      </g>
     </g>
     <g id="text_12">
      <!-- 200 -->
      <g transform="translate(76.42 385.1325) scale(0.12 -0.12)">
       <use xlink:href="#TimesNewRomanPSMT-32"/>
       <use xlink:href="#TimesNewRomanPSMT-30" x="50"/>
       <use xlink:href="#TimesNewRomanPSMT-30" x="100"/>
      </g>
     </g>
    </g>
    <g id="ytick_3">
     <g id="line2d_25">
      <g>
       <use xlink:href="#mb39bd01280" x="97.92" y="307.04625" style="stroke: #000000; stroke-width: 0.8"/>
      </g>
     </g>
     <g id="line2d_26">
      <g>
       <use xlink:href="#mb3a74691d7" x="767.52" y="307.04625" style="stroke: #000000; stroke-width: 0.8"/>
      </g>
     </g>
     <g id="text_13">
      <!-- 400 -->
      <g transform="translate(76.42 311.2125) scale(0.12 -0.12)">
       <use xlink:href="#TimesNewRomanPSMT-34"/>
       <use xlink:href="#TimesNewRomanPSMT-30" x="50"/>
       <use xlink:href="#TimesNewRomanPSMT-30" x="100"/>
      </g>
     </g>
    </g>
    <g id="ytick_4">
     <g id="line2d_27">
      <g>
       <use xlink:href="#mb39bd01280" x="97.92" y="233.12625" style="stroke: #000000; stroke-width: 0.8"/>
      </g>
     </g>
     <g id="line2d_28">
      <g>
       <use xlink:href="#mb3a74691d7" x="767.52" y="233.12625" style="stroke: #000000; stroke-width: 0.8"/>
      </g>
     </g>
     <g id="text_14">
      <!-- 600 -->
      <g transform="translate(76.42 237.2925) scale(0.12 -0.12)">
       <use xlink:href="#TimesNewRomanPSMT-36"/>
       <use xlink:href="#TimesNewRomanPSMT-30" x="50"/>
       <use xlink:href="#TimesNewRomanPSMT-30" x="100"/>
      </g>
     </g>
    </g>
    <g id="ytick_5">
     <g id="line2d_29">
      <g>
       <use xlink:href="#mb39bd01280" x="97.92" y="159.20625" style="stroke: #000000; stroke-width: 0.8"/>
      </g>
     </g>
     <g id="line2d_30">
      <g>
       <use xlink:href="#mb3a74691d7" x="767.52" y="159.20625" style="stroke: #000000; stroke-width: 0.8"/>
      </g>
     </g>
     <g id="text_15">
      <!-- 800 -->
      <g transform="translate(76.42 163.3725) scale(0.12 -0.12)">
       <use xlink:href="#TimesNewRomanPSMT-38"/>
       <use xlink:href="#TimesNewRomanPSMT-30" x="50"/>
       <use xlink:href="#TimesNewRomanPSMT-30" x="100"/>
      </g>
     </g>
    </g>
    <g id="ytick_6">
     <g id="line2d_31">
      <g>
       <use xlink:href="#mb39bd01280" x="97.92" y="85.28625" style="stroke: #000000; stroke-width: 0.8"/>
      </g>
     </g>
     <g id="line2d_32">
      <g>
       <use xlink:href="#mb3a74691d7" x="767.52" y="85.28625" style="stroke: #000000; stroke-width: 0.8"/>
      </g>
     </g>
     <g id="text_16">
      <!-- 1000 -->
      <g transform="translate(70.42 89.4525) scale(0.12 -0.12)">
       <use xlink:href="#TimesNewRomanPSMT-31"/>
       <use xlink:href="#TimesNewRomanPSMT-30" x="50"/>
       <use xlink:href="#TimesNewRomanPSMT-30" x="100"/>
       <use xlink:href="#TimesNewRomanPSMT-30" x="150"/>
      </g>
     </g>
    </g>
    <g id="ytick_7">
     <g id="line2d_33">
      <g>
       <use xlink:href="#mb39bd01280" x="97.92" y="11.36625" style="stroke: #000000; stroke-width: 0.8"/>
      </g>
     </g>
     <g id="line2d_34">
      <g>
       <use xlink:href="#mb3a74691d7" x="767.52" y="11.36625" style="stroke: #000000; stroke-width: 0.8"/>
      </g>
     </g>
     <g id="text_17">
      <!-- 1200 -->
      <g transform="translate(70.42 15.5325) scale(0.12 -0.12)">
       <use xlink:href="#TimesNewRomanPSMT-31"/>
       <use xlink:href="#TimesNewRomanPSMT-32" x="50"/>
       <use xlink:href="#TimesNewRomanPSMT-30" x="100"/>
       <use xlink:href="#TimesNewRomanPSMT-30" x="150"/>
      </g>
     </g>
    </g>
   </g>
   <g id="patch_3">
    <path d="M 97.92 454.88625 
L 97.92 11.36625 
" style="fill: none; stroke: #000000; stroke-width: 0.8; stroke-linejoin: miter; stroke-linecap: square"/>
   </g>
   <g id="patch_4">
    <path d="M 767.52 454.88625 
L 767.52 11.36625 
" style="fill: none; stroke: #000000; stroke-width: 0.8; stroke-linejoin: miter; stroke-linecap: square"/>
   </g>
   <g id="patch_5">
    <path d="M 97.92 454.88625 
L 767.52 454.88625 
" style="fill: none; stroke: #000000; stroke-width: 0.8; stroke-linejoin: miter; stroke-linecap: square"/>
   </g>
   <g id="patch_6">
    <path d="M 97.92 11.36625 
L 767.52 11.36625 
" style="fill: none; stroke: #000000; stroke-width: 0.8; stroke-linejoin: miter; stroke-linecap: square"/>
   </g>
   <g id="legend_1">
    <g id="patch_7">
     <path d="M 690.52 33.76625 
L 718.52 33.76625 
L 718.52 23.96625 
L 690.52 23.96625 
z
" style="fill: #ffa500"/>
    </g>
    <g id="text_18">
     <!-- $\mathrm{CO_2}$ -->
     <g transform="translate(729.72 33.76625) scale(0.14 -0.14)">
      <defs>
       <path id="STIXGeneral-Regular-43" d="M 3930 838 
L 4051 723 
Q 3482 -90 2304 -90 
Q 1376 -90 794 480 
Q 179 1082 179 2080 
Q 179 3014 755 3661 
Q 1357 4326 2310 4326 
Q 2720 4326 3072 4230 
Q 3475 4115 3514 4115 
Q 3725 4115 3782 4326 
L 3910 4326 
L 3968 2874 
L 3821 2874 
Q 3718 3334 3488 3584 
Q 3034 4070 2458 4070 
Q 1747 4070 1334 3548 
Q 922 3027 922 2182 
Q 922 1152 1382 653 
Q 1811 192 2522 192 
Q 2944 192 3251 339 
Q 3558 486 3930 838 
z
" transform="scale(0.015625)"/>
       <path id="STIXGeneral-Regular-4f" d="M 4403 2118 
Q 4403 1133 3820 521 
Q 3238 -90 2310 -90 
Q 1376 -90 797 524 
Q 218 1139 218 2138 
Q 218 3110 797 3718 
Q 1376 4326 2310 4326 
Q 3245 4326 3824 3702 
Q 4403 3078 4403 2118 
z
M 3674 2157 
Q 3674 2701 3520 3133 
Q 3366 3565 3091 3795 
Q 2733 4096 2304 4096 
Q 1760 4096 1389 3667 
Q 1184 3437 1065 3011 
Q 947 2586 947 2125 
Q 947 960 1523 429 
Q 1837 141 2317 141 
Q 2816 141 3142 448 
Q 3674 960 3674 2157 
z
" transform="scale(0.015625)"/>
       <path id="STIXGeneral-Regular-32" d="M 3034 877 
L 2688 0 
L 186 0 
L 186 77 
L 1325 1286 
Q 1773 1754 1965 2144 
Q 2157 2534 2157 2950 
Q 2157 3379 1920 3616 
Q 1683 3853 1267 3853 
Q 922 3853 720 3673 
Q 518 3494 326 3021 
L 192 3053 
Q 301 3648 630 3987 
Q 960 4326 1523 4326 
Q 2054 4326 2380 4006 
Q 2707 3686 2707 3200 
Q 2707 2477 1888 1613 
L 832 486 
L 2330 486 
Q 2541 486 2665 569 
Q 2790 653 2944 915 
L 3034 877 
z
" transform="scale(0.015625)"/>
      </defs>
      <use xlink:href="#STIXGeneral-Regular-43" transform="translate(0 0.40625)"/>
      <use xlink:href="#STIXGeneral-Regular-4f" transform="translate(66.699997 0.40625)"/>
      <use xlink:href="#STIXGeneral-Regular-32" transform="translate(140.474979 -13.09375) scale(0.7)"/>
     </g>
    </g>
    <g id="patch_8">
     <path d="M 690.52 53.560938 
L 718.52 53.560938 
L 718.52 43.760938 
L 690.52 43.760938 
z
" style="fill: #808080; fill-opacity: 0.5"/>
    </g>
    <g id="text_19">
     <!-- $\mathrm{C}$ -->
     <g transform="translate(729.72 53.560938) scale(0.14 -0.14)">
      <use xlink:href="#STIXGeneral-Regular-43" transform="translate(0 0.40625)"/>
     </g>
    </g>
    <g id="patch_9">
     <path d="M 690.52 73.355625 
L 718.52 73.355625 
L 718.52 63.555625 
L 690.52 63.555625 
z
" style="fill: #ff0000; fill-opacity: 0.5"/>
    </g>
    <g id="text_20">
     <!-- $\mathrm{O}$ -->
     <g transform="translate(729.72 73.355625) scale(0.14 -0.14)">
      <use xlink:href="#STIXGeneral-Regular-4f" transform="translate(0 0.40625)"/>
     </g>
    </g>
   </g>
  </g>
  <g id="text_21">
   <!-- Potential Energy [kcal/mol] -->
   <g transform="translate(338.742656 509.249531) scale(0.15 -0.15)">
    <defs>
     <path id="TimesNewRomanPSMT-50" d="M 1313 1984 
L 1313 750 
Q 1313 350 1400 253 
Q 1519 116 1759 116 
L 1922 116 
L 1922 0 
L 106 0 
L 106 116 
L 266 116 
Q 534 116 650 291 
Q 713 388 713 750 
L 713 3488 
Q 713 3888 628 3984 
Q 506 4122 266 4122 
L 106 4122 
L 106 4238 
L 1659 4238 
Q 2228 4238 2556 4120 
Q 2884 4003 3109 3725 
Q 3334 3447 3334 3066 
Q 3334 2547 2992 2222 
Q 2650 1897 2025 1897 
Q 1872 1897 1694 1919 
Q 1516 1941 1313 1984 
z
M 1313 2163 
Q 1478 2131 1606 2115 
Q 1734 2100 1825 2100 
Q 2150 2100 2386 2351 
Q 2622 2603 2622 3003 
Q 2622 3278 2509 3514 
Q 2397 3750 2190 3867 
Q 1984 3984 1722 3984 
Q 1563 3984 1313 3925 
L 1313 2163 
z
" transform="scale(0.015625)"/>
     <path id="TimesNewRomanPSMT-6f" d="M 1600 2947 
Q 2250 2947 2644 2453 
Q 2978 2031 2978 1484 
Q 2978 1100 2793 706 
Q 2609 313 2286 112 
Q 1963 -88 1566 -88 
Q 919 -88 538 428 
Q 216 863 216 1403 
Q 216 1797 411 2186 
Q 606 2575 925 2761 
Q 1244 2947 1600 2947 
z
M 1503 2744 
Q 1338 2744 1170 2645 
Q 1003 2547 900 2300 
Q 797 2053 797 1666 
Q 797 1041 1045 587 
Q 1294 134 1700 134 
Q 2003 134 2200 384 
Q 2397 634 2397 1244 
Q 2397 2006 2069 2444 
Q 1847 2744 1503 2744 
z
" transform="scale(0.015625)"/>
     <path id="TimesNewRomanPSMT-74" d="M 1031 3803 
L 1031 2863 
L 1700 2863 
L 1700 2644 
L 1031 2644 
L 1031 788 
Q 1031 509 1111 412 
Q 1191 316 1316 316 
Q 1419 316 1516 380 
Q 1613 444 1666 569 
L 1788 569 
Q 1678 263 1478 108 
Q 1278 -47 1066 -47 
Q 922 -47 784 33 
Q 647 113 581 261 
Q 516 409 516 719 
L 516 2644 
L 63 2644 
L 63 2747 
Q 234 2816 414 2980 
Q 594 3144 734 3369 
Q 806 3488 934 3803 
L 1031 3803 
z
" transform="scale(0.015625)"/>
     <path id="TimesNewRomanPSMT-65" d="M 681 1784 
Q 678 1147 991 784 
Q 1303 422 1725 422 
Q 2006 422 2214 576 
Q 2422 731 2563 1106 
L 2659 1044 
Q 2594 616 2278 264 
Q 1963 -88 1488 -88 
Q 972 -88 605 314 
Q 238 716 238 1394 
Q 238 2128 614 2539 
Q 991 2950 1559 2950 
Q 2041 2950 2350 2633 
Q 2659 2316 2659 1784 
L 681 1784 
z
M 681 1966 
L 2006 1966 
Q 1991 2241 1941 2353 
Q 1863 2528 1708 2628 
Q 1553 2728 1384 2728 
Q 1125 2728 920 2526 
Q 716 2325 681 1966 
z
" transform="scale(0.015625)"/>
     <path id="TimesNewRomanPSMT-6e" d="M 1034 2341 
Q 1538 2947 1994 2947 
Q 2228 2947 2397 2830 
Q 2566 2713 2666 2444 
Q 2734 2256 2734 1869 
L 2734 647 
Q 2734 375 2778 278 
Q 2813 200 2889 156 
Q 2966 113 3172 113 
L 3172 0 
L 1756 0 
L 1756 113 
L 1816 113 
Q 2016 113 2095 173 
Q 2175 234 2206 353 
Q 2219 400 2219 647 
L 2219 1819 
Q 2219 2209 2117 2386 
Q 2016 2563 1775 2563 
Q 1403 2563 1034 2156 
L 1034 647 
Q 1034 356 1069 288 
Q 1113 197 1189 155 
Q 1266 113 1500 113 
L 1500 0 
L 84 0 
L 84 113 
L 147 113 
Q 366 113 442 223 
Q 519 334 519 647 
L 519 1709 
Q 519 2225 495 2337 
Q 472 2450 423 2490 
Q 375 2531 294 2531 
Q 206 2531 84 2484 
L 38 2597 
L 900 2947 
L 1034 2947 
L 1034 2341 
z
" transform="scale(0.015625)"/>
     <path id="TimesNewRomanPSMT-69" d="M 928 4444 
Q 1059 4444 1151 4351 
Q 1244 4259 1244 4128 
Q 1244 3997 1151 3903 
Q 1059 3809 928 3809 
Q 797 3809 703 3903 
Q 609 3997 609 4128 
Q 609 4259 701 4351 
Q 794 4444 928 4444 
z
M 1188 2947 
L 1188 647 
Q 1188 378 1227 289 
Q 1266 200 1342 156 
Q 1419 113 1622 113 
L 1622 0 
L 231 0 
L 231 113 
Q 441 113 512 153 
Q 584 194 626 287 
Q 669 381 669 647 
L 669 1750 
Q 669 2216 641 2353 
Q 619 2453 572 2492 
Q 525 2531 444 2531 
Q 356 2531 231 2484 
L 188 2597 
L 1050 2947 
L 1188 2947 
z
" transform="scale(0.015625)"/>
     <path id="TimesNewRomanPSMT-61" d="M 1822 413 
Q 1381 72 1269 19 
Q 1100 -59 909 -59 
Q 613 -59 420 144 
Q 228 347 228 678 
Q 228 888 322 1041 
Q 450 1253 767 1440 
Q 1084 1628 1822 1897 
L 1822 2009 
Q 1822 2438 1686 2597 
Q 1550 2756 1291 2756 
Q 1094 2756 978 2650 
Q 859 2544 859 2406 
L 866 2225 
Q 866 2081 792 2003 
Q 719 1925 600 1925 
Q 484 1925 411 2006 
Q 338 2088 338 2228 
Q 338 2497 613 2722 
Q 888 2947 1384 2947 
Q 1766 2947 2009 2819 
Q 2194 2722 2281 2516 
Q 2338 2381 2338 1966 
L 2338 994 
Q 2338 584 2353 492 
Q 2369 400 2405 369 
Q 2441 338 2488 338 
Q 2538 338 2575 359 
Q 2641 400 2828 588 
L 2828 413 
Q 2478 -56 2159 -56 
Q 2006 -56 1915 50 
Q 1825 156 1822 413 
z
M 1822 616 
L 1822 1706 
Q 1350 1519 1213 1441 
Q 966 1303 859 1153 
Q 753 1003 753 825 
Q 753 600 887 451 
Q 1022 303 1197 303 
Q 1434 303 1822 616 
z
" transform="scale(0.015625)"/>
     <path id="TimesNewRomanPSMT-6c" d="M 1184 4444 
L 1184 647 
Q 1184 378 1223 290 
Q 1263 203 1344 158 
Q 1425 113 1647 113 
L 1647 0 
L 244 0 
L 244 113 
Q 441 113 512 153 
Q 584 194 625 287 
Q 666 381 666 647 
L 666 3247 
Q 666 3731 644 3842 
Q 622 3953 573 3993 
Q 525 4034 450 4034 
Q 369 4034 244 3984 
L 191 4094 
L 1044 4444 
L 1184 4444 
z
" transform="scale(0.015625)"/>
     <path id="TimesNewRomanPSMT-20" transform="scale(0.015625)"/>
     <path id="TimesNewRomanPSMT-45" d="M 1338 4006 
L 1338 2331 
L 2269 2331 
Q 2631 2331 2753 2441 
Q 2916 2584 2934 2947 
L 3050 2947 
L 3050 1472 
L 2934 1472 
Q 2891 1781 2847 1869 
Q 2791 1978 2662 2040 
Q 2534 2103 2269 2103 
L 1338 2103 
L 1338 706 
Q 1338 425 1363 364 
Q 1388 303 1450 267 
Q 1513 231 1688 231 
L 2406 231 
Q 2766 231 2928 281 
Q 3091 331 3241 478 
Q 3434 672 3638 1063 
L 3763 1063 
L 3397 0 
L 131 0 
L 131 116 
L 281 116 
Q 431 116 566 188 
Q 666 238 702 338 
Q 738 438 738 747 
L 738 3500 
Q 738 3903 656 3997 
Q 544 4122 281 4122 
L 131 4122 
L 131 4238 
L 3397 4238 
L 3444 3309 
L 3322 3309 
Q 3256 3644 3176 3769 
Q 3097 3894 2941 3959 
Q 2816 4006 2500 4006 
L 1338 4006 
z
" transform="scale(0.015625)"/>
     <path id="TimesNewRomanPSMT-72" d="M 1038 2947 
L 1038 2303 
Q 1397 2947 1775 2947 
Q 1947 2947 2059 2842 
Q 2172 2738 2172 2600 
Q 2172 2478 2090 2393 
Q 2009 2309 1897 2309 
Q 1788 2309 1652 2417 
Q 1516 2525 1450 2525 
Q 1394 2525 1328 2463 
Q 1188 2334 1038 2041 
L 1038 669 
Q 1038 431 1097 309 
Q 1138 225 1241 169 
Q 1344 113 1538 113 
L 1538 0 
L 72 0 
L 72 113 
Q 291 113 397 181 
Q 475 231 506 341 
Q 522 394 522 644 
L 522 1753 
Q 522 2253 501 2348 
Q 481 2444 426 2487 
Q 372 2531 291 2531 
Q 194 2531 72 2484 
L 41 2597 
L 906 2947 
L 1038 2947 
z
" transform="scale(0.015625)"/>
     <path id="TimesNewRomanPSMT-67" d="M 966 1044 
Q 703 1172 562 1401 
Q 422 1631 422 1909 
Q 422 2334 742 2640 
Q 1063 2947 1563 2947 
Q 1972 2947 2272 2747 
L 2878 2747 
Q 3013 2747 3034 2739 
Q 3056 2731 3066 2713 
Q 3084 2684 3084 2613 
Q 3084 2531 3069 2500 
Q 3059 2484 3036 2475 
Q 3013 2466 2878 2466 
L 2506 2466 
Q 2681 2241 2681 1891 
Q 2681 1491 2375 1206 
Q 2069 922 1553 922 
Q 1341 922 1119 984 
Q 981 866 932 777 
Q 884 688 884 625 
Q 884 572 936 522 
Q 988 472 1138 450 
Q 1225 438 1575 428 
Q 2219 413 2409 384 
Q 2700 344 2873 169 
Q 3047 -6 3047 -263 
Q 3047 -616 2716 -925 
Q 2228 -1381 1444 -1381 
Q 841 -1381 425 -1109 
Q 191 -953 191 -784 
Q 191 -709 225 -634 
Q 278 -519 444 -313 
Q 466 -284 763 25 
Q 600 122 533 198 
Q 466 275 466 372 
Q 466 481 555 628 
Q 644 775 966 1044 
z
M 1509 2797 
Q 1278 2797 1122 2612 
Q 966 2428 966 2047 
Q 966 1553 1178 1281 
Q 1341 1075 1591 1075 
Q 1828 1075 1981 1253 
Q 2134 1431 2134 1813 
Q 2134 2309 1919 2591 
Q 1759 2797 1509 2797 
z
M 934 0 
Q 788 -159 713 -296 
Q 638 -434 638 -550 
Q 638 -700 819 -813 
Q 1131 -1006 1722 -1006 
Q 2284 -1006 2551 -807 
Q 2819 -609 2819 -384 
Q 2819 -222 2659 -153 
Q 2497 -84 2016 -72 
Q 1313 -53 934 0 
z
" transform="scale(0.015625)"/>
     <path id="TimesNewRomanPSMT-79" d="M 38 2863 
L 1372 2863 
L 1372 2747 
L 1306 2747 
Q 1166 2747 1095 2686 
Q 1025 2625 1025 2534 
Q 1025 2413 1128 2197 
L 1825 753 
L 2466 2334 
Q 2519 2463 2519 2588 
Q 2519 2644 2497 2672 
Q 2472 2706 2419 2726 
Q 2366 2747 2231 2747 
L 2231 2863 
L 3163 2863 
L 3163 2747 
Q 3047 2734 2984 2696 
Q 2922 2659 2847 2556 
Q 2819 2513 2741 2316 
L 1575 -541 
Q 1406 -956 1132 -1168 
Q 859 -1381 606 -1381 
Q 422 -1381 303 -1275 
Q 184 -1169 184 -1031 
Q 184 -900 270 -820 
Q 356 -741 506 -741 
Q 609 -741 788 -809 
Q 913 -856 944 -856 
Q 1038 -856 1148 -759 
Q 1259 -663 1372 -384 
L 1575 113 
L 547 2272 
Q 500 2369 397 2513 
Q 319 2622 269 2659 
Q 197 2709 38 2747 
L 38 2863 
z
" transform="scale(0.015625)"/>
     <path id="TimesNewRomanPSMT-5b" d="M 1900 -1269 
L 525 -1269 
L 525 4334 
L 1900 4334 
L 1900 4088 
L 994 4088 
L 994 -1025 
L 1900 -1025 
L 1900 -1269 
z
" transform="scale(0.015625)"/>
     <path id="TimesNewRomanPSMT-6b" d="M 1047 4444 
L 1047 1597 
L 1775 2259 
Q 2006 2472 2044 2528 
Q 2069 2566 2069 2603 
Q 2069 2666 2017 2711 
Q 1966 2756 1847 2763 
L 1847 2863 
L 3091 2863 
L 3091 2763 
Q 2834 2756 2664 2684 
Q 2494 2613 2291 2428 
L 1556 1750 
L 2291 822 
Q 2597 438 2703 334 
Q 2853 188 2966 144 
Q 3044 113 3238 113 
L 3238 0 
L 1847 0 
L 1847 113 
Q 1966 116 2008 148 
Q 2050 181 2050 241 
Q 2050 313 1925 472 
L 1047 1594 
L 1047 644 
Q 1047 366 1086 278 
Q 1125 191 1197 153 
Q 1269 116 1509 113 
L 1509 0 
L 53 0 
L 53 113 
Q 272 113 381 166 
Q 447 200 481 272 
Q 528 375 528 628 
L 528 3234 
Q 528 3731 506 3842 
Q 484 3953 434 3995 
Q 384 4038 303 4038 
Q 238 4038 106 3984 
L 53 4094 
L 903 4444 
L 1047 4444 
z
" transform="scale(0.015625)"/>
     <path id="TimesNewRomanPSMT-63" d="M 2631 1088 
Q 2516 522 2178 217 
Q 1841 -88 1431 -88 
Q 944 -88 581 321 
Q 219 731 219 1428 
Q 219 2103 620 2525 
Q 1022 2947 1584 2947 
Q 2006 2947 2278 2723 
Q 2550 2500 2550 2259 
Q 2550 2141 2473 2067 
Q 2397 1994 2259 1994 
Q 2075 1994 1981 2113 
Q 1928 2178 1911 2362 
Q 1894 2547 1784 2644 
Q 1675 2738 1481 2738 
Q 1169 2738 978 2506 
Q 725 2200 725 1697 
Q 725 1184 976 792 
Q 1228 400 1656 400 
Q 1963 400 2206 609 
Q 2378 753 2541 1131 
L 2631 1088 
z
" transform="scale(0.015625)"/>
     <path id="TimesNewRomanPSMT-2f" d="M 1794 4444 
L 259 -88 
L 9 -88 
L 1544 4444 
L 1794 4444 
z
" transform="scale(0.015625)"/>
     <path id="TimesNewRomanPSMT-6d" d="M 1050 2338 
Q 1363 2650 1419 2697 
Q 1559 2816 1721 2881 
Q 1884 2947 2044 2947 
Q 2313 2947 2506 2790 
Q 2700 2634 2766 2338 
Q 3088 2713 3309 2830 
Q 3531 2947 3766 2947 
Q 3994 2947 4170 2830 
Q 4347 2713 4450 2447 
Q 4519 2266 4519 1878 
L 4519 647 
Q 4519 378 4559 278 
Q 4591 209 4675 161 
Q 4759 113 4950 113 
L 4950 0 
L 3538 0 
L 3538 113 
L 3597 113 
Q 3781 113 3884 184 
Q 3956 234 3988 344 
Q 4000 397 4000 647 
L 4000 1878 
Q 4000 2228 3916 2372 
Q 3794 2572 3525 2572 
Q 3359 2572 3192 2489 
Q 3025 2406 2788 2181 
L 2781 2147 
L 2788 2013 
L 2788 647 
Q 2788 353 2820 281 
Q 2853 209 2943 161 
Q 3034 113 3253 113 
L 3253 0 
L 1806 0 
L 1806 113 
Q 2044 113 2133 169 
Q 2222 225 2256 338 
Q 2272 391 2272 647 
L 2272 1878 
Q 2272 2228 2169 2381 
Q 2031 2581 1784 2581 
Q 1616 2581 1450 2491 
Q 1191 2353 1050 2181 
L 1050 647 
Q 1050 366 1089 281 
Q 1128 197 1204 155 
Q 1281 113 1516 113 
L 1516 0 
L 100 0 
L 100 113 
Q 297 113 375 155 
Q 453 197 493 289 
Q 534 381 534 647 
L 534 1741 
Q 534 2213 506 2350 
Q 484 2453 437 2492 
Q 391 2531 309 2531 
Q 222 2531 100 2484 
L 53 2597 
L 916 2947 
L 1050 2947 
L 1050 2338 
z
" transform="scale(0.015625)"/>
     <path id="TimesNewRomanPSMT-5d" d="M 234 4334 
L 1609 4334 
L 1609 -1272 
L 234 -1272 
L 234 -1025 
L 1141 -1025 
L 1141 4088 
L 234 4088 
L 234 4334 
z
" transform="scale(0.015625)"/>
    </defs>
    <use xlink:href="#TimesNewRomanPSMT-50"/>
    <use xlink:href="#TimesNewRomanPSMT-6f" x="55.615234"/>
    <use xlink:href="#TimesNewRomanPSMT-74" x="105.615234"/>
    <use xlink:href="#TimesNewRomanPSMT-65" x="133.398438"/>
    <use xlink:href="#TimesNewRomanPSMT-6e" x="177.783203"/>
    <use xlink:href="#TimesNewRomanPSMT-74" x="227.783203"/>
    <use xlink:href="#TimesNewRomanPSMT-69" x="255.566406"/>
    <use xlink:href="#TimesNewRomanPSMT-61" x="283.349609"/>
    <use xlink:href="#TimesNewRomanPSMT-6c" x="327.734375"/>
    <use xlink:href="#TimesNewRomanPSMT-20" x="355.517578"/>
    <use xlink:href="#TimesNewRomanPSMT-45" x="380.517578"/>
    <use xlink:href="#TimesNewRomanPSMT-6e" x="441.601562"/>
    <use xlink:href="#TimesNewRomanPSMT-65" x="491.601562"/>
    <use xlink:href="#TimesNewRomanPSMT-72" x="535.986328"/>
    <use xlink:href="#TimesNewRomanPSMT-67" x="567.537109"/>
    <use xlink:href="#TimesNewRomanPSMT-79" x="617.537109"/>
    <use xlink:href="#TimesNewRomanPSMT-20" x="667.537109"/>
    <use xlink:href="#TimesNewRomanPSMT-5b" x="692.537109"/>
    <use xlink:href="#TimesNewRomanPSMT-6b" x="725.837891"/>
    <use xlink:href="#TimesNewRomanPSMT-63" x="775.837891"/>
    <use xlink:href="#TimesNewRomanPSMT-61" x="820.222656"/>
    <use xlink:href="#TimesNewRomanPSMT-6c" x="864.607422"/>
    <use xlink:href="#TimesNewRomanPSMT-2f" x="892.390625"/>
    <use xlink:href="#TimesNewRomanPSMT-6d" x="920.173828"/>
    <use xlink:href="#TimesNewRomanPSMT-6f" x="997.957031"/>
    <use xlink:href="#TimesNewRomanPSMT-6c" x="1047.957031"/>
    <use xlink:href="#TimesNewRomanPSMT-5d" x="1075.740234"/>
   </g>
  </g>
  <g id="text_22">
   <!-- $N_\mathrm{CO_2}$ -->
   <g transform="translate(17.374219 245.09625) rotate(-90) scale(0.15 -0.15)">
    <defs>
     <path id="STIXGeneral-Italic-4e" d="M 4653 4179 
L 4653 4077 
Q 4480 4038 4413 4016 
Q 4346 3994 4266 3882 
Q 4186 3770 4144 3635 
Q 4102 3501 4000 3149 
L 3066 -96 
L 2950 -96 
L 1478 3424 
L 749 723 
Q 691 525 691 378 
Q 691 243 790 182 
Q 890 122 1139 102 
L 1139 0 
L -128 0 
L -128 102 
Q 147 141 262 304 
Q 378 467 550 1075 
L 1299 3731 
Q 1152 4077 749 4077 
L 749 4179 
L 1773 4179 
L 3098 986 
L 3776 3469 
Q 3827 3648 3827 3750 
Q 3827 3923 3740 3987 
Q 3654 4051 3386 4077 
L 3386 4179 
L 4653 4179 
z
" transform="scale(0.015625)"/>
    </defs>
    <use xlink:href="#STIXGeneral-Italic-4e" transform="translate(0 0.703125)"/>
    <use xlink:href="#STIXGeneral-Regular-43" transform="translate(66.699997 -12.525) scale(0.7)"/>
    <use xlink:href="#STIXGeneral-Regular-4f" transform="translate(113.389995 -12.525) scale(0.7)"/>
    <use xlink:href="#STIXGeneral-Regular-32" transform="translate(165.032482 -21.975) scale(0.49)"/>
   </g>
  </g>
 </g>
 <defs>
  <clipPath id="p2bcd79c54a">
   <rect x="97.92" y="11.36625" width="669.6" height="443.52"/>
  </clipPath>
 </defs>
</svg>
